<svg width="685" height="159" viewBox="0 0 685 159" fill="none" xmlns="http://www.w3.org/2000/svg">
<mask id="mask0" mask-type="alpha" maskUnits="userSpaceOnUse" x="0" y="0" width="685" height="159">
<rect width="685" height="158.227" fill="white"/>
</mask>
<g mask="url(#mask0)">
<rect x="-30.5142" y="-70.9012" width="168.679" height="219.359" transform="rotate(17.096 -30.5142 -70.9012)" fill="black"/>
</g>
<path d="M73.34 119.422C71.9409 119.449 70.5797 118.966 69.5114 118.062C67.0636 116.001 66.6295 112.194 66.551 110.975C62.8584 104.803 61.1062 93.0403 61.9274 88.4846C62.5917 84.7816 63.3814 72.7937 63.5854 69.5352C60.5573 67.751 58.2142 65.0037 56.9305 61.7319C55.6467 58.4601 55.4962 54.8525 56.5031 51.4851C57.5099 48.1178 59.616 45.1849 62.4851 43.1548C65.3541 41.1246 68.8207 40.1144 72.3312 40.2853C75.8417 40.4563 79.1937 41.7985 81.8519 44.0978C84.5101 46.397 86.3213 49.5207 86.9963 52.9699C87.6712 56.4192 87.1709 59.9951 85.5753 63.1267C83.9798 66.2583 81.3809 68.765 78.1937 70.2465C78.3036 72.8616 78.9103 81.136 82.2315 88.788C84.8467 82.9196 90.8982 80.885 93.2832 80.2939C95.7572 61.606 107.839 58.8496 111.715 58.473C112.05 56.3784 113.142 54.4798 114.785 53.1381C118.394 50.2248 123.63 50.8315 123.855 50.8576C124.171 50.8972 124.462 51.0508 124.673 51.2896C124.883 51.5285 125 51.8361 125 52.1548V105.164C125 105.379 124.947 105.59 124.846 105.779C124.744 105.969 124.598 106.13 124.42 106.249C124.242 106.369 124.037 106.442 123.823 106.464C123.61 106.485 123.394 106.454 123.195 106.372C119.084 104.683 114.942 99.8449 112.625 96.7852C109.811 108.292 97.2897 115.824 75.338 119.202L74.59 119.317C74.1767 119.385 73.7588 119.42 73.34 119.422ZM66.1274 70.7224C65.8502 75.0165 65.1388 85.3674 64.506 88.924C63.7737 92.988 65.552 104.469 68.9517 109.887C69.0765 110.091 69.145 110.323 69.1505 110.562C69.1505 111.608 69.5741 114.699 71.206 116.069C71.6205 116.396 72.103 116.626 72.618 116.742C73.133 116.858 73.6675 116.857 74.1821 116.739L74.9405 116.619C97.4936 113.146 109.461 105.337 110.538 93.4012C110.538 92.6323 110.067 85.4667 103.106 82.5639C102.803 82.4197 102.567 82.1645 102.447 81.8512C102.327 81.5378 102.332 81.1903 102.461 80.8805C102.59 80.5707 102.833 80.3224 103.14 80.187C103.447 80.0515 103.794 80.0392 104.11 80.1527C111.987 83.4321 113.002 91.1364 113.132 93.0141C114.063 94.3792 118.18 100.227 122.385 102.983V53.3839C120.899 53.3839 118.284 53.6454 116.417 55.1622C115.083 56.2397 114.325 57.7774 114.163 59.812C114.127 60.1434 113.969 60.4496 113.72 60.6704C113.47 60.8911 113.147 61.0103 112.813 61.0045C112.217 61.0045 98.0794 60.8214 95.7676 81.5022C95.7375 81.791 95.6114 82.0613 95.4094 82.27C95.2074 82.4786 94.9413 82.6134 94.6536 82.6528C94.277 82.7104 85.307 84.1225 83.8006 92.5225C83.2201 95.7653 83.0004 97.6011 82.8696 98.6942C82.6238 100.75 82.5401 100.964 81.4261 102.528L80.903 103.297C80.8099 103.449 80.6866 103.581 80.5407 103.683C80.3948 103.786 80.2295 103.858 80.0548 103.894C79.8802 103.931 79.6999 103.931 79.5251 103.895C79.3504 103.859 79.1848 103.788 79.0386 103.686C78.8924 103.583 78.7686 103.452 78.675 103.301C78.5813 103.149 78.5197 102.979 78.494 102.803C78.4683 102.626 78.4789 102.446 78.5253 102.274C78.5717 102.102 78.6529 101.941 78.7638 101.801C78.9783 101.492 79.1613 101.231 79.3235 101.011C80.1185 99.8972 80.1185 99.8972 80.3016 98.3961C80.4271 97.3187 80.6415 95.556 81.175 92.512C76.7972 84.3631 75.8296 75.0165 75.6152 71.167C72.4823 72.0002 69.1686 71.8449 66.1274 70.7224ZM71.5669 42.8657C69.6398 42.8654 67.7364 43.29 65.9921 44.1093C64.2479 44.9287 62.7058 46.1225 61.4756 47.6059C60.2454 49.0893 59.3575 50.8256 58.875 52.6914C58.3925 54.5571 58.3274 56.5062 58.6843 58.4C59.0411 60.2937 59.8111 62.0855 60.9395 63.6477C62.0679 65.2099 63.5269 66.504 65.2125 67.438C66.8982 68.3719 68.7691 68.9227 70.6919 69.051C72.6147 69.1794 74.5421 68.8821 76.337 68.1805L76.4206 68.1439C79.2542 67.0182 81.6064 64.9395 83.072 62.2659C84.5377 59.5923 85.025 56.4913 84.4501 53.497C83.8751 50.5028 82.2739 47.8028 79.9223 45.8622C77.5707 43.9216 74.6158 42.8619 71.5669 42.8657ZM71.5669 65.0109C69.7791 65.012 68.0312 64.4828 66.5442 63.4903C65.0572 62.4978 63.898 61.0866 63.2131 59.4352C62.5283 57.7838 62.3485 55.9664 62.6967 54.2129C63.0448 52.4593 63.9052 50.8484 65.169 49.5839C66.4328 48.3194 68.0432 47.4581 69.7965 47.1089C71.5499 46.7598 73.3674 46.9385 75.0192 47.6224C76.6709 48.3063 78.0828 49.4647 79.0761 50.9511C80.0695 52.4375 80.5997 54.1851 80.5997 55.9729C80.5969 58.3682 79.6445 60.6646 77.9513 62.3588C76.2581 64.053 73.9622 65.0068 71.5669 65.0109ZM71.5669 49.5501C70.2964 49.549 69.0541 49.9248 67.9971 50.63C66.9402 51.3351 66.1162 52.3378 65.6292 53.5114C65.1423 54.6849 65.0144 55.9765 65.2616 57.2227C65.5088 58.469 66.1201 59.6139 67.0182 60.5127C67.9162 61.4115 69.0607 62.0237 70.3067 62.272C71.5528 62.5202 72.8445 62.3933 74.0184 61.9073C75.1923 61.4214 76.1957 60.5981 76.9017 59.5418C77.6077 58.4854 77.9845 57.2435 77.9845 55.9729C77.9818 54.2712 77.3049 52.6399 76.1021 51.4362C74.8993 50.2324 73.2686 49.5542 71.5669 49.5501ZM71.5669 59.6498C70.8428 59.6498 70.1349 59.4351 69.5328 59.0328C68.9307 58.6305 68.4615 58.0587 68.1844 57.3897C67.9073 56.7207 67.8348 55.9845 67.976 55.2743C68.1173 54.5641 68.466 53.9118 68.978 53.3997C69.4901 52.8877 70.1424 52.539 70.8526 52.3977C71.5628 52.2564 72.299 52.329 72.968 52.6061C73.637 52.8832 74.2088 53.3524 74.6111 53.9545C75.0134 54.5566 75.2281 55.2645 75.2281 55.9886C75.2281 56.9596 74.8424 57.8909 74.1558 58.5775C73.4692 59.2641 72.5379 59.6498 71.5669 59.6498ZM71.5669 54.9112C71.36 54.9112 71.1578 54.9725 70.9857 55.0874C70.8137 55.2024 70.6796 55.3658 70.6005 55.5569C70.5213 55.748 70.5006 55.9584 70.5409 56.1613C70.5813 56.3642 70.6809 56.5506 70.8272 56.6969C70.9735 56.8432 71.1599 56.9428 71.3628 56.9832C71.5657 57.0235 71.7761 57.0028 71.9672 56.9237C72.1584 56.8445 72.3217 56.7104 72.4367 56.5384C72.5516 56.3664 72.613 56.1641 72.613 55.9572C72.615 55.8185 72.5895 55.6808 72.5379 55.5521C72.4863 55.4234 72.4095 55.3062 72.3122 55.2074C72.2148 55.1086 72.0988 55.0301 71.9709 54.9766C71.8429 54.923 71.7056 54.8954 71.5669 54.8955V54.9112Z" fill="black"/>
<path d="M71.4959 117.578C70.0968 117.605 68.7356 117.122 67.6673 116.218C65.2195 114.157 64.7854 110.35 64.7069 109.131C61.0143 102.959 59.2621 91.1961 60.0833 86.6405C60.7475 82.9375 61.5373 70.9495 61.7413 67.691C58.7131 65.9069 56.3701 63.1596 55.0863 59.8878C53.8026 56.616 53.6521 53.0084 54.6589 49.641C55.6658 46.2736 57.7719 43.3407 60.6409 41.3106C63.51 39.2805 66.9765 38.2703 70.487 38.4412C73.9975 38.6122 77.3495 39.9544 80.0078 42.2537C82.666 44.5529 84.4772 47.6766 85.1521 51.1258C85.8271 54.5751 85.3268 58.151 83.7312 61.2826C82.1356 64.4142 79.5368 66.9209 76.3496 68.4024C76.4595 71.0175 77.0662 79.2919 80.3874 86.9439C83.0026 81.0755 89.0541 79.0409 91.4391 78.4498C93.9131 59.7619 105.995 57.0055 109.871 56.6289C110.206 54.5343 111.298 52.6357 112.941 51.294C116.55 48.3807 121.785 48.9874 122.01 49.0135C122.327 49.053 122.617 49.2067 122.828 49.4455C123.039 49.6844 123.156 49.992 123.156 50.3107V103.32C123.156 103.535 123.103 103.746 123.001 103.935C122.9 104.124 122.754 104.286 122.576 104.405C122.397 104.525 122.192 104.598 121.979 104.62C121.765 104.641 121.55 104.61 121.351 104.528C117.24 102.839 113.098 98.0008 110.781 94.9411C107.967 106.448 95.4455 113.979 73.4939 117.358L72.7459 117.473C72.3326 117.541 71.9146 117.576 71.4959 117.578ZM64.2832 68.8783C64.006 73.1724 63.2947 83.5232 62.6618 87.0799C61.9296 91.1438 63.7079 102.624 67.1076 108.043C67.2324 108.246 67.3009 108.479 67.3064 108.718C67.3064 109.764 67.73 112.855 69.3619 114.225C69.7763 114.552 70.2588 114.782 70.7739 114.898C71.2889 115.014 71.8234 115.013 72.338 114.895L73.0963 114.774C95.6495 111.302 107.617 103.493 108.694 91.557C108.694 90.7882 108.223 83.6226 101.262 80.7198C100.959 80.5756 100.723 80.3204 100.603 80.007C100.483 79.6937 100.488 79.3462 100.617 79.0364C100.746 78.7266 100.989 78.4783 101.296 78.3428C101.603 78.2074 101.95 78.1951 102.266 78.3086C110.143 81.588 111.157 89.2923 111.288 91.17C112.219 92.5351 116.335 98.3826 120.541 101.139V51.5398C119.055 51.5398 116.44 51.8013 114.573 53.3181C113.239 54.3955 112.481 55.9333 112.319 57.9679C112.283 58.2993 112.125 58.6055 111.876 58.8262C111.626 59.047 111.302 59.1662 110.969 59.1604C110.373 59.1604 96.2353 58.9773 93.9235 79.658C93.8934 79.9469 93.7673 80.2172 93.5653 80.4258C93.3633 80.6345 93.0972 80.7693 92.8095 80.8087C92.4329 80.8662 83.4629 82.2784 81.9565 90.6783C81.376 93.9211 81.1563 95.757 81.0255 96.8501C80.7797 98.9056 80.696 99.1201 79.582 100.684L79.0589 101.453C78.9658 101.605 78.8424 101.736 78.6966 101.839C78.5507 101.942 78.3853 102.014 78.2107 102.05C78.036 102.086 77.8558 102.087 77.681 102.051C77.5063 102.015 77.3407 101.944 77.1945 101.842C77.0483 101.739 76.9245 101.608 76.8309 101.456C76.7372 101.305 76.6756 101.135 76.6499 100.959C76.6242 100.782 76.6348 100.602 76.6812 100.43C76.7276 100.258 76.8088 100.097 76.9197 99.9569C77.1342 99.6484 77.3172 99.3868 77.4794 99.1672C78.2744 98.0531 78.2744 98.0531 78.4574 96.552C78.583 95.4746 78.7974 93.7119 79.3309 90.6679C74.9531 82.519 73.9855 73.1724 73.7711 69.3229C70.6382 70.1561 67.3245 70.0008 64.2832 68.8783ZM69.7228 41.0216C67.7957 41.0213 65.8922 41.4459 64.148 42.2652C62.4038 43.0845 60.8616 44.2784 59.6315 45.7618C58.4013 47.2451 57.5134 48.9815 57.0309 50.8472C56.5484 52.713 56.4833 54.6621 56.8401 56.5559C57.197 58.4496 57.967 60.2414 59.0954 61.8036C60.2238 63.3658 61.6828 64.6599 63.3684 65.5939C65.0541 66.5278 66.9249 67.0786 68.8478 67.2069C70.7706 67.3352 72.698 67.038 74.4928 66.3364L74.5765 66.2998C77.41 65.174 79.7622 63.0953 81.2279 60.4218C82.6936 57.7482 83.1809 54.6472 82.6059 51.6529C82.031 48.6587 80.4298 45.9587 78.0782 44.0181C75.7265 42.0775 72.7717 41.0178 69.7228 41.0216ZM69.7228 63.1668C67.935 63.1678 66.1871 62.6386 64.7001 61.6462C63.2131 60.6537 62.0539 59.2425 61.369 57.5911C60.6842 55.9397 60.5044 54.1223 60.8526 52.3688C61.2007 50.6152 62.0611 49.0043 63.3249 47.7398C64.5886 46.4753 66.1991 45.614 67.9524 45.2648C69.7057 44.9157 71.5233 45.0943 73.175 45.7783C74.8268 46.4622 76.2387 47.6206 77.232 49.107C78.2254 50.5934 78.7556 52.341 78.7556 54.1288C78.7528 56.5241 77.8004 58.8205 76.1072 60.5147C74.414 62.2089 72.1181 63.1626 69.7228 63.1668ZM69.7228 47.7059C68.4522 47.7049 67.2099 48.0807 66.153 48.7858C65.0961 49.491 64.2721 50.4937 63.7851 51.6672C63.2982 52.8408 63.1702 54.1324 63.4175 55.3786C63.6647 56.6249 64.276 57.7698 65.1741 58.6686C66.0721 59.5674 67.2165 60.1796 68.4626 60.4278C69.7086 60.6761 71.0003 60.5492 72.1743 60.0632C73.3482 59.5772 74.3516 58.754 75.0576 57.6977C75.7636 56.6413 76.1404 55.3993 76.1404 54.1288C76.1376 52.4271 75.4608 50.7958 74.258 49.5921C73.0552 48.3883 71.4245 47.7101 69.7228 47.7059ZM69.7228 57.8057C68.9987 57.8057 68.2908 57.591 67.6887 57.1887C67.0866 56.7864 66.6174 56.2146 66.3402 55.5456C66.0631 54.8766 65.9906 54.1404 66.1319 53.4302C66.2732 52.72 66.6219 52.0676 67.1339 51.5556C67.6459 51.0436 68.2983 50.6949 69.0085 50.5536C69.7187 50.4123 70.4549 50.4848 71.1239 50.7619C71.7929 51.0391 72.3647 51.5083 72.767 52.1104C73.1693 52.7125 73.384 53.4204 73.384 54.1445C73.384 55.1155 72.9983 56.0468 72.3117 56.7334C71.6251 57.42 70.6938 57.8057 69.7228 57.8057ZM69.7228 53.067C69.5159 53.067 69.3136 53.1284 69.1416 53.2433C68.9696 53.3583 68.8355 53.5216 68.7563 53.7128C68.6772 53.9039 68.6565 54.1143 68.6968 54.3172C68.7372 54.5201 68.8368 54.7065 68.9831 54.8528C69.1294 54.9991 69.3158 55.0987 69.5187 55.1391C69.7216 55.1794 69.932 55.1587 70.1231 55.0795C70.3142 55.0004 70.4776 54.8663 70.5926 54.6943C70.7075 54.5222 70.7689 54.32 70.7689 54.1131C70.7709 53.9744 70.7454 53.8367 70.6938 53.708C70.6421 53.5792 70.5654 53.4621 70.4681 53.3633C70.3707 53.2645 70.2547 53.186 70.1268 53.1324C69.9988 53.0789 69.8615 53.0513 69.7228 53.0513V53.067Z" fill="white"/>
</svg>
