<svg width="685" height="159" viewBox="0 0 685 159" fill="none" xmlns="http://www.w3.org/2000/svg">
<mask id="mask0" mask-type="alpha" maskUnits="userSpaceOnUse" x="0" y="0" width="685" height="159">
<rect width="685" height="158.227" fill="white"/>
</mask>
<g mask="url(#mask0)">
<rect x="-30.5142" y="-70.9012" width="168.679" height="219.359" transform="rotate(17.096 -30.5142 -70.9012)" fill="black"/>
</g>
<path d="M112.402 111.391C111.136 111.39 109.893 111.048 108.803 110.403L99.6865 105.003C98.3938 105.608 96.9924 105.946 95.5662 105.996C93.605 106.044 92.3378 105.439 90.7438 104.672C89.6791 104.148 88.5881 103.68 87.475 103.268C86.6142 102.965 85.7283 102.738 84.8278 102.59C83.8027 102.372 82.2491 102.041 79.7471 101.48L77.0635 100.899C73.4315 100.092 71.7729 99.7208 71.1716 99.4827C70.7681 99.3253 70.3403 99.172 69.8964 99.0146C67.2047 98.0501 63.8432 96.8475 61.1717 92.9614C57.1362 87.1099 57.0999 79.6442 57.7698 74.4344C58.1087 71.7911 59.0087 64.842 64.3073 58.0583C65.8719 56.0593 67.6742 54.2583 69.6745 52.6952C72.2532 50.6774 81.6195 44.1964 94.0126 45.8913C97.1722 46.3633 100.247 47.2903 103.141 48.6435C106.783 50.3433 110.107 52.6525 112.971 55.4716C113.527 55.0851 114.205 54.9161 114.877 54.9968C115.549 55.0775 116.168 55.4021 116.616 55.9091C117.064 56.4161 117.31 57.0701 117.308 57.7468C117.306 58.4235 117.055 59.0758 116.603 59.5797C117.76 61.0989 118.808 62.6983 119.739 64.3658C119.865 64.5915 119.899 64.857 119.835 65.1073C119.77 65.3575 119.611 65.5733 119.392 65.7096L112.685 69.8904C110.349 71.714 108.313 73.8928 106.652 76.3472C106.438 78.1551 106.167 80.8549 106.026 82.2754L112.83 83.2842C115.279 83.6371 117.505 84.8969 119.069 86.814C120.633 88.7311 121.419 91.1657 121.272 93.6353C121.204 94.9872 121.095 96.3068 120.958 97.5659C121.598 97.7392 122.155 98.1374 122.527 98.6876C122.898 99.2379 123.059 99.9034 122.98 100.563C122.902 101.222 122.588 101.831 122.097 102.278C121.607 102.725 120.971 102.98 120.308 102.998H120.074C119.793 104.265 119.441 105.515 119.021 106.743C118.683 107.716 118.133 108.601 117.409 109.334C116.686 110.067 115.808 110.629 114.84 110.98C114.058 111.259 113.233 111.398 112.402 111.391ZM100.223 102.994L109.816 108.672C110.459 109.055 111.181 109.291 111.927 109.361C112.673 109.43 113.426 109.333 114.13 109.075C114.817 108.826 115.44 108.427 115.954 107.907C116.468 107.387 116.859 106.759 117.1 106.069C117.487 104.938 117.811 103.786 118.068 102.618L116.454 102.328C116.078 103.784 115.536 105.192 114.84 106.525C114.652 106.873 114.396 107.179 114.087 107.425C113.777 107.671 113.421 107.852 113.04 107.957C112.652 108.064 112.247 108.094 111.848 108.043C111.449 107.992 111.064 107.863 110.715 107.663L101.41 102.259H101.385L99.2103 100.996C98.2194 100.421 97.3157 99.7078 96.5267 98.8774L96.3895 98.7361L94.7188 98.4375C94.7654 98.8699 94.9123 99.2854 95.1477 99.6511C95.383 100.017 95.7005 100.323 96.0747 100.544L100.223 102.973V102.994ZM103.121 100.919L111.708 105.907C111.823 105.975 111.951 106.019 112.084 106.036C112.216 106.053 112.351 106.042 112.479 106.004C112.6 105.972 112.713 105.915 112.811 105.838C112.909 105.761 112.991 105.665 113.052 105.556C113.646 104.412 114.115 103.206 114.448 101.961L103.339 99.967C103.294 100.302 103.222 100.621 103.137 100.919H103.121ZM89.8842 47.6306C80.199 47.6306 73.0481 52.5983 70.9174 54.2811C69.0409 55.7437 67.3497 57.4295 65.8811 59.3013C60.9417 65.6451 60.0902 72.1987 59.7714 74.6684C59.1459 79.5393 59.166 86.4642 62.8343 91.7951C65.1466 95.1607 68.032 96.1938 70.5784 97.1058C71.0385 97.2713 71.4864 97.4327 71.9142 97.5981C72.3419 97.7636 74.4081 98.2317 77.5033 98.9218L80.1869 99.519C82.6809 100.08 84.2224 100.407 85.2515 100.625C86.2423 100.794 87.217 101.046 88.1651 101.379C89.3403 101.812 90.492 102.307 91.6155 102.86C93.1288 103.587 94.0368 104.023 95.5178 103.986C96.1709 103.958 96.819 103.86 97.4508 103.692L95.0295 102.259C94.277 101.813 93.66 101.171 93.2448 100.401C92.8296 99.6309 92.6319 98.7625 92.6728 97.8887V97.812C90.7212 96.9728 89.1128 95.4953 88.1112 93.6219C87.1096 91.7485 86.7743 89.5903 87.1603 87.5013L89.0489 77.3036C89.3338 75.7569 90.1538 74.3598 91.3653 73.3569L111.389 56.771C108.725 54.1707 105.644 52.0359 102.273 50.4555C99.5627 49.1897 96.6819 48.3264 93.722 47.8929C92.4502 47.7178 91.168 47.6302 89.8842 47.6306ZM119.509 100.818L120.316 100.96C120.413 100.957 120.51 100.936 120.599 100.896C120.688 100.857 120.768 100.8 120.836 100.729C120.903 100.659 120.956 100.576 120.991 100.485C121.026 100.394 121.043 100.297 121.04 100.199C121.038 100.102 121.016 100.005 120.977 99.9162C120.937 99.8271 120.881 99.7465 120.81 99.6793C120.739 99.612 120.656 99.5593 120.565 99.5242C120.474 99.4891 120.377 99.4723 120.28 99.4746C120.208 99.4807 120.137 99.4807 120.066 99.4746L119.662 99.402H119.626L102.338 96.2382C102.298 96.2357 102.259 96.229 102.221 96.218L95.3887 94.971C93.8631 94.6995 92.5052 93.8399 91.6071 92.5773C90.709 91.3146 90.3424 89.7498 90.5864 88.2196L91.6599 81.2584C91.6599 81.2584 91.6599 81.2221 91.6599 81.206V81.1454L91.9908 78.9824C92.2043 77.5966 92.923 76.3388 94.0085 75.4513L114.888 58.3973L114.924 58.365C115.017 58.297 115.091 58.2082 115.142 58.1058C115.194 58.0034 115.22 57.8903 115.219 57.7759C115.219 57.5779 115.14 57.388 115 57.248C114.86 57.1079 114.671 57.0293 114.473 57.0293C114.373 57.029 114.274 57.0492 114.182 57.0888C114.091 57.1284 114.008 57.1864 113.94 57.2593C113.908 57.2923 113.874 57.3233 113.839 57.3521L92.6526 74.9065C91.8104 75.6113 91.2397 76.5872 91.0384 77.6668L89.1498 87.8645C88.8282 89.5973 89.1404 91.3879 90.0294 92.9096C90.9184 94.4314 92.325 95.5826 93.9924 96.1534L94.061 96.1776C94.3903 96.2832 94.7259 96.3681 95.0658 96.4319L115.808 100.153L115.937 100.177L119.4 100.798H119.46L119.509 100.818ZM100.655 99.4827L101.321 99.8661C101.321 99.7854 101.353 99.6966 101.369 99.6119L100.655 99.4827ZM117.463 96.9323L118.964 97.2067C119.093 96.0203 119.19 94.7854 119.259 93.5142C119.368 91.5518 118.738 89.6196 117.494 88.0981C116.249 86.5767 114.481 85.5763 112.535 85.2939L104.828 84.1519H104.735L101.293 83.6394H101.196L93.5283 82.5054L93.3346 83.7443L102.435 85.1486L112.33 86.6539C113.899 86.8904 115.324 87.7033 116.326 88.9337C117.328 90.1641 117.835 91.7239 117.749 93.3084C117.697 94.5513 117.596 95.766 117.463 96.9323ZM103.452 94.3657L115.493 96.5691C115.615 95.4876 115.707 94.3617 115.768 93.2075C115.826 92.122 115.478 91.0536 114.792 90.2106C114.106 89.3676 113.13 88.8103 112.055 88.6474L103.238 87.2874C103.169 89.3832 103.223 91.4812 103.399 93.5707C103.395 93.8371 103.415 94.1034 103.452 94.3657ZM93.0239 85.7136L92.5921 88.5062C92.4371 89.5136 92.682 90.5418 93.2747 91.3712C93.8673 92.2005 94.7606 92.7654 95.764 92.9452L101.385 93.9743C101.385 93.8774 101.385 93.7806 101.385 93.6837C101.197 91.4466 101.146 89.2 101.232 86.9565L93.0239 85.7136ZM102.495 81.7669L104.029 81.9929C104.178 80.4755 104.46 77.6709 104.662 75.8791C104.783 74.8783 103.585 72.7475 102.451 71.1495L101.583 71.8597C102.39 72.7677 103.367 74.3335 103.121 76.2463C102.87 78.3367 102.644 80.5441 102.495 81.7669ZM93.831 80.4876L100.498 81.4723C100.631 80.2253 100.873 78.0502 101.135 76.0002C101.289 74.7895 100.578 73.7524 100.034 73.143L95.3201 76.9929C94.6208 77.5652 94.158 78.3759 94.0206 79.2689L93.831 80.4876ZM104.033 69.8783C104.88 71.0253 105.599 72.2623 106.176 73.5668C107.727 71.6023 109.504 69.8266 111.47 68.2762C111.5 68.2501 111.532 68.2272 111.567 68.2076L117.479 64.5151C116.742 63.259 115.934 62.0464 115.058 60.8832L104.033 69.8783ZM76.6882 85.0437C75.8587 85.0437 75.0479 84.7977 74.3583 84.3368C73.6687 83.8759 73.1313 83.2208 72.8141 82.4544C72.4968 81.6881 72.414 80.8448 72.5761 80.0314C72.7383 79.2179 73.138 78.4708 73.7248 77.8846C74.3116 77.2984 75.059 76.8993 75.8727 76.738C76.6863 76.5767 77.5294 76.6603 78.2955 76.9783C79.0616 77.2962 79.7161 77.8343 80.1764 78.5243C80.6366 79.2144 80.8818 80.0254 80.881 80.8549C80.8789 81.9659 80.4363 83.0307 79.6504 83.8159C78.8644 84.6011 77.7992 85.0426 76.6882 85.0437ZM76.6882 78.6797C76.258 78.6797 75.8374 78.8073 75.4797 79.0463C75.122 79.2853 74.8432 79.625 74.6786 80.0225C74.514 80.4199 74.4709 80.8573 74.5548 81.2792C74.6388 81.7011 74.8459 82.0887 75.1501 82.3929C75.4543 82.6971 75.8419 82.9043 76.2638 82.9882C76.6858 83.0721 77.1231 83.0291 77.5206 82.8644C77.918 82.6998 78.2577 82.421 78.4967 82.0633C78.7357 81.7056 78.8633 81.2851 78.8633 80.8549C78.8622 80.2783 78.6327 79.7257 78.225 79.318C77.8174 78.9103 77.2647 78.6808 76.6882 78.6797ZM98.6614 52.4974C98.5035 52.4971 98.3476 52.4612 98.2054 52.3925C97.6405 52.1108 97.0483 51.8877 96.4379 51.7266C95.8279 51.5681 95.2031 51.4734 94.5735 51.4442C94.3059 51.4313 94.0544 51.3127 93.8743 51.1144C93.6942 50.9161 93.6002 50.6544 93.613 50.3869C93.6259 50.1193 93.7445 49.8678 93.9428 49.6877C94.1411 49.5075 94.4028 49.4136 94.6703 49.4264C95.439 49.4631 96.2017 49.5794 96.9464 49.7735C97.6917 49.9682 98.4151 50.2386 99.1054 50.5806C99.3096 50.6818 99.4735 50.8491 99.5704 51.0554C99.6674 51.2617 99.6916 51.4947 99.6392 51.7165C99.5868 51.9383 99.4608 52.1359 99.2818 52.2769C99.1028 52.418 98.8813 52.4943 98.6534 52.4934L98.6614 52.4974Z" fill="black"/>
<path d="M110.957 109.78C109.69 109.778 108.447 109.437 107.357 108.791L98.2411 103.392C96.9485 103.996 95.5471 104.334 94.1209 104.384C92.1597 104.433 90.8925 103.827 89.2985 103.061C88.2338 102.537 87.1428 102.068 86.0297 101.656C85.1688 101.353 84.283 101.126 83.3824 100.978C82.3574 100.76 80.8038 100.43 78.3018 99.8686L75.6182 99.2875C71.9862 98.4804 70.3276 98.1091 69.7263 97.871C69.3228 97.7136 68.895 97.5603 68.4511 97.4029C65.7594 96.4384 62.3979 95.2358 59.7264 91.3497C55.6909 85.4982 55.6546 78.0325 56.3244 72.8227C56.6634 70.1794 57.5633 63.2303 62.8619 56.4466C64.4265 54.4476 66.2289 52.6466 68.2292 51.0835C70.8078 49.0657 80.1742 42.5847 92.5672 44.2796C95.7269 44.7516 98.8016 45.6786 101.696 47.0318C105.337 48.7316 108.662 51.0408 111.526 53.8599C112.081 53.4734 112.76 53.3044 113.431 53.3851C114.103 53.4658 114.722 53.7904 115.17 54.2974C115.619 54.8044 115.865 55.4584 115.863 56.1351C115.86 56.8118 115.61 57.4641 115.158 57.968C116.315 59.4872 117.363 61.0866 118.294 62.7541C118.42 62.9798 118.454 63.2453 118.389 63.4956C118.325 63.7458 118.166 63.9616 117.946 64.0979L111.239 68.2787C108.903 70.1024 106.868 72.2811 105.206 74.7355C104.993 76.5434 104.722 79.2432 104.581 80.6637L111.385 81.6725C113.833 82.0254 116.06 83.2852 117.624 85.2023C119.187 87.1194 119.974 89.554 119.827 92.0236C119.758 93.3755 119.649 94.6951 119.512 95.9542C120.153 96.1275 120.71 96.5257 121.082 97.0759C121.453 97.6262 121.614 98.2917 121.535 98.9509C121.456 99.61 121.143 100.219 120.652 100.666C120.161 101.113 119.526 101.369 118.863 101.386H118.628C118.348 102.653 117.996 103.903 117.575 105.131C117.238 106.104 116.687 106.989 115.964 107.722C115.241 108.455 114.363 109.018 113.394 109.368C112.612 109.647 111.787 109.787 110.957 109.78ZM98.7779 101.382L108.37 107.06C109.014 107.444 109.735 107.679 110.482 107.749C111.228 107.819 111.98 107.721 112.684 107.463C113.372 107.215 113.995 106.816 114.509 106.296C115.023 105.776 115.414 105.147 115.654 104.457C116.042 103.326 116.365 102.174 116.623 101.007L115.009 100.716C114.633 102.172 114.091 103.58 113.394 104.913C113.207 105.261 112.951 105.567 112.641 105.814C112.332 106.06 111.976 106.241 111.595 106.346C111.207 106.453 110.802 106.482 110.403 106.431C110.004 106.381 109.619 106.251 109.27 106.051L99.9643 100.647H99.9401L97.765 99.3843C96.7741 98.8095 95.8704 98.0961 95.0814 97.2657L94.9441 97.1245L93.2735 96.8258C93.3201 97.2582 93.467 97.6737 93.7023 98.0394C93.9377 98.4051 94.2551 98.7108 94.6294 98.9324L98.7779 101.362V101.382ZM101.675 99.3077L110.263 104.296C110.378 104.364 110.506 104.408 110.638 104.424C110.771 104.441 110.905 104.43 111.034 104.392C111.154 104.36 111.267 104.304 111.366 104.227C111.464 104.15 111.546 104.054 111.607 103.944C112.201 102.8 112.669 101.594 113.003 100.349L101.893 98.3553C101.849 98.6902 101.776 99.009 101.691 99.3077H101.675ZM88.4389 46.0189C78.7537 46.0189 71.6028 50.9866 69.4721 52.6694C67.5956 54.132 65.9043 55.8178 64.4358 57.6896C59.4963 64.0334 58.6449 70.587 58.326 73.0568C57.7005 77.9276 57.7207 84.8525 61.389 90.1834C63.7013 93.549 66.5867 94.5821 69.1331 95.4941C69.5932 95.6596 70.0411 95.821 70.4689 95.9864C70.8966 96.1519 72.9628 96.62 76.058 97.3101L78.7416 97.9073C81.2356 98.4683 82.7771 98.7952 83.8062 99.0131C84.797 99.1818 85.7717 99.4343 86.7198 99.7677C87.895 100.201 89.0467 100.695 90.1702 101.249C91.6835 101.975 92.5914 102.411 94.0725 102.375C94.7256 102.347 95.3737 102.248 96.0055 102.08L93.5842 100.647C92.8316 100.201 92.2147 99.5591 91.7995 98.7892C91.3843 98.0192 91.1866 97.1508 91.2275 96.277V96.2003C89.2759 95.3611 87.6675 93.8836 86.6659 92.0102C85.6643 90.1368 85.329 87.9786 85.715 85.8896L87.6036 75.6919C87.8885 74.1452 88.7085 72.7481 89.92 71.7452L109.944 55.1593C107.28 52.559 104.199 50.4242 100.828 48.8438C98.1174 47.578 95.2366 46.7147 92.2767 46.2812C91.0049 46.1061 89.7227 46.0185 88.4389 46.0189ZM118.064 99.2068L118.871 99.348C118.968 99.3456 119.064 99.3241 119.153 99.2845C119.243 99.245 119.323 99.1883 119.39 99.1177C119.458 99.0471 119.51 98.9639 119.545 98.8729C119.581 98.7819 119.597 98.6848 119.595 98.5873C119.593 98.4898 119.571 98.3937 119.532 98.3046C119.492 98.2154 119.435 98.1349 119.365 98.0676C119.294 98.0003 119.211 97.9476 119.12 97.9125C119.029 97.8774 118.932 97.8606 118.834 97.8629C118.763 97.869 118.692 97.869 118.62 97.8629L118.217 97.7903H118.181L100.892 94.6265C100.853 94.624 100.814 94.6173 100.775 94.6063L93.9433 93.3593C92.4178 93.0878 91.0599 92.2282 90.1618 90.9656C89.2636 89.7029 88.8971 88.1381 89.1411 86.608L90.2145 79.6467C90.2145 79.6467 90.2145 79.6104 90.2145 79.5943V79.5337L90.5455 77.3707C90.759 75.9849 91.4777 74.7271 92.5632 73.8396L113.443 56.7856L113.479 56.7533C113.571 56.6853 113.646 56.5965 113.697 56.4941C113.748 56.3917 113.775 56.2786 113.774 56.1642C113.774 55.9662 113.695 55.7763 113.555 55.6363C113.415 55.4963 113.225 55.4176 113.027 55.4176C112.927 55.4173 112.829 55.4375 112.737 55.4771C112.645 55.5167 112.563 55.5747 112.495 55.6476C112.463 55.6806 112.429 55.7116 112.394 55.7404L91.2073 73.2948C90.3651 73.9996 89.7944 74.9755 89.5931 76.0551L87.7045 86.2528C87.3829 87.9856 87.6951 89.7762 88.5841 91.298C89.4731 92.8197 90.8797 93.971 92.5471 94.5417L92.6157 94.566C92.945 94.6715 93.2806 94.7564 93.6205 94.8202L114.363 98.5409L114.492 98.5651L117.955 99.1866H118.015L118.064 99.2068ZM99.2097 97.871L99.8755 98.2544C99.8755 98.1737 99.9078 98.0849 99.924 98.0002L99.2097 97.871ZM116.018 95.3206L117.519 95.595C117.648 94.4086 117.745 93.1737 117.813 91.9025C117.922 89.9401 117.293 88.0079 116.049 86.4864C114.804 84.965 113.035 83.9646 111.09 83.6822L103.382 82.5402H103.29L99.8473 82.0277H99.7504L92.083 80.8937L91.8893 82.1326L100.989 83.5369L110.884 85.0422C112.454 85.2787 113.878 86.0916 114.88 87.322C115.882 88.5524 116.39 90.1122 116.304 91.6967C116.252 92.9396 116.151 94.1543 116.018 95.3206ZM102.006 92.754L114.048 94.9574C114.169 93.8759 114.262 92.75 114.323 91.5958C114.381 90.5103 114.033 89.4419 113.347 88.5989C112.66 87.7559 111.685 87.1986 110.61 87.0357L101.792 85.6758C101.723 87.7715 101.777 89.8695 101.954 91.959C101.95 92.2254 101.97 92.4917 102.006 92.754ZM91.5785 84.1019L91.1467 86.8945C90.9918 87.902 91.2367 88.9301 91.8293 89.7595C92.422 90.5888 93.3153 91.1537 94.3186 91.3335L99.9401 92.3626C99.9401 92.2657 99.9401 92.1689 99.9401 92.072C99.7516 89.8349 99.7004 87.5883 99.7867 85.3448L91.5785 84.1019ZM101.05 80.1552L102.583 80.3812C102.733 78.8638 103.015 76.0592 103.217 74.2674C103.338 73.2666 102.139 71.1359 101.005 69.5378L100.138 70.248C100.945 71.156 101.922 72.7218 101.675 74.6346C101.425 76.725 101.199 78.9324 101.05 80.1552ZM92.3856 78.8759L99.0523 79.8606C99.1855 78.6136 99.4276 76.4385 99.6899 74.3885C99.8432 73.1778 99.133 72.1407 98.5882 71.5313L93.8747 75.3812C93.1755 75.9535 92.7127 76.7642 92.5753 77.6572L92.3856 78.8759ZM102.587 68.2666C103.435 69.4136 104.154 70.6506 104.73 71.9551C106.282 69.9906 108.059 68.2149 110.025 66.6645C110.055 66.6385 110.087 66.6155 110.122 66.5959L116.034 62.9034C115.297 61.6473 114.488 60.4347 113.612 59.2715L102.587 68.2666ZM75.2429 83.432C74.4134 83.432 73.6026 83.186 72.913 82.7251C72.2234 82.2642 71.686 81.6091 71.3687 80.8427C71.0515 80.0764 70.9687 79.2331 71.1308 78.4197C71.2929 77.6062 71.6927 76.8591 72.2795 76.2729C72.8663 75.6867 73.6137 75.2877 74.4273 75.1263C75.2409 74.965 76.0841 75.0486 76.8502 75.3666C77.6163 75.6845 78.2708 76.2226 78.7311 76.9126C79.1913 77.6027 79.4365 78.4137 79.4357 79.2432C79.4336 80.3542 78.991 81.419 78.2051 82.2042C77.4191 82.9894 76.3538 83.4309 75.2429 83.432ZM75.2429 77.068C74.8127 77.068 74.3921 77.1956 74.0344 77.4346C73.6767 77.6736 73.3979 78.0133 73.2333 78.4108C73.0687 78.8082 73.0256 79.2456 73.1095 79.6675C73.1934 80.0895 73.4006 80.477 73.7048 80.7812C74.009 81.0854 74.3966 81.2926 74.8185 81.3765C75.2404 81.4604 75.6778 81.4174 76.0752 81.2527C76.4727 81.0881 76.8124 80.8093 77.0514 80.4516C77.2904 80.0939 77.418 79.6734 77.418 79.2432C77.4169 78.6666 77.1874 78.114 76.7797 77.7063C76.372 77.2986 75.8194 77.0691 75.2429 77.068ZM97.2161 50.8857C97.0582 50.8854 96.9023 50.8495 96.7601 50.7808C96.1952 50.4991 95.6029 50.276 94.9926 50.115C94.3826 49.9564 93.7578 49.8618 93.1282 49.8325C92.8606 49.8196 92.6091 49.701 92.429 49.5027C92.2489 49.3045 92.1549 49.0427 92.1677 48.7752C92.1806 48.5076 92.2992 48.2561 92.4975 48.076C92.6957 47.8959 92.9575 47.8019 93.225 47.8147C93.9937 47.8514 94.7564 47.9677 95.501 48.1618C96.2463 48.3565 96.9698 48.6269 97.66 48.9689C97.8643 49.0701 98.0282 49.2374 98.1251 49.4437C98.2221 49.65 98.2463 49.883 98.1939 50.1048C98.1415 50.3266 98.0155 50.5242 97.8365 50.6652C97.6575 50.8063 97.436 50.8826 97.2081 50.8817L97.2161 50.8857Z" fill="white"/>
</svg>
