<svg width="88" height="77" viewBox="0 0 88 77" fill="none" xmlns="http://www.w3.org/2000/svg">
<path d="M76.3664 47.2721C73.7664 48.7527 70.7393 49.3025 67.7848 48.8307C64.8303 48.359 62.1249 46.8939 60.1153 44.6773C58.1057 42.4607 56.912 39.6251 56.7312 36.6386C56.5504 33.6521 57.3934 30.6932 59.121 28.2504L57.4736 26.4173L49.655 45.4537C50.2103 45.8791 50.6494 46.4374 50.9321 47.0772C51.2148 47.7169 51.3319 48.4176 51.2725 49.1145L54.925 50.1229L56.3941 49.2884C56.584 49.1805 56.8089 49.1525 57.0195 49.2105C57.23 49.2685 57.4089 49.4077 57.5167 49.5976C57.6246 49.7875 57.6526 50.0124 57.5946 50.223C57.5366 50.4335 57.3974 50.6124 57.2075 50.7202L55.4406 51.724C55.2507 51.8319 55.0257 51.8603 54.815 51.8029L50.8151 50.6963C50.5013 51.3024 50.0439 51.8224 49.4828 52.2109C48.9217 52.5994 48.2739 52.8446 47.5962 52.9251C46.9185 53.0056 46.2314 52.9188 45.5949 52.6725C44.9584 52.4262 44.392 52.0277 43.945 51.512L42.1265 52.545C43.4624 55.2731 43.8146 58.3791 43.1233 61.337C42.432 64.2949 40.7398 66.9231 38.3331 68.7766C35.9265 70.63 32.9533 71.5949 29.9169 71.5078C26.8805 71.4207 23.9675 70.287 21.6711 68.2986C19.3746 66.3102 17.8359 63.5894 17.3153 60.5967C16.7947 57.604 17.3243 54.5233 18.8144 51.8763C20.3045 49.2292 22.6636 47.1785 25.4922 46.0711C28.3208 44.9638 31.4452 44.868 34.3363 45.7999L36.1359 40.7927L32.607 37.9148L31.2835 38.8523C30.9712 39.0731 30.616 39.226 30.241 39.3011C29.866 39.3763 29.4793 39.372 29.1061 39.2885C28.7328 39.205 28.3812 39.0443 28.0738 38.8165C27.7665 38.5888 27.5103 38.2992 27.3218 37.9664L27.0908 37.5597C26.7332 36.9284 26.6405 36.181 26.8332 35.4814C27.0259 34.7818 27.4882 34.1872 28.1187 33.8281L32.3484 31.4252C32.9593 31.0777 33.6804 30.9784 34.3625 31.148C35.0445 31.3176 35.6351 31.7431 36.012 32.3363C36.389 32.9294 36.5232 33.6449 36.3871 34.3344C36.2509 35.0239 35.8547 35.6345 35.2806 36.0399L34.0168 36.9359L37.1408 39.4945L54.3539 22.9395L53.3742 21.8483C53.1256 21.5732 52.9594 21.2336 52.8946 20.8685C52.8299 20.5034 52.8692 20.1274 53.008 19.7835L53.2531 19.1746C53.364 18.9031 53.403 18.6075 53.3664 18.3164C53.3298 18.0254 53.2188 17.7487 53.044 17.5131L50.0408 13.3933C49.7931 13.0525 49.4285 12.815 49.0167 12.726C48.6049 12.6371 48.1748 12.7031 47.8086 12.9114L45.804 14.0502C45.6141 14.158 45.3892 14.1861 45.1786 14.1281C44.9681 14.0701 44.7892 13.9308 44.6813 13.7409C44.5735 13.5511 44.5454 13.3261 44.6034 13.1156C44.6614 12.905 44.8007 12.7262 44.9906 12.6183L46.9952 11.4795C47.7134 11.0711 48.5569 10.9417 49.3645 11.1161C50.1721 11.2904 50.8871 11.7562 51.3729 12.4244L54.3749 16.5487C54.7125 17.0094 54.9265 17.5489 54.9966 18.1158C55.0667 18.6827 54.9905 19.2581 54.7753 19.7872L54.5303 20.3961C54.5075 20.4534 54.5012 20.516 54.5123 20.5767C54.5233 20.6374 54.5512 20.6938 54.5927 20.7394L56.1053 22.4218L57.8199 24.3266C57.8199 24.3266 57.8313 24.3466 57.8362 24.3552L60.1701 26.9499C61.4544 25.549 63.027 24.4431 64.7796 23.7083C66.5323 22.9734 68.4233 22.627 70.3227 22.6929C72.222 22.7589 74.0845 23.2356 75.7819 24.0902C77.4794 24.9449 78.9715 26.1572 80.1556 27.6437C81.3397 29.1303 82.1876 30.8557 82.6409 32.7013C83.0943 34.5469 83.1424 36.4688 82.7819 38.3348C82.4214 40.2008 81.6609 41.9665 80.5527 43.5104C79.4445 45.0543 78.0148 46.3397 76.3623 47.2782L76.3664 47.2721ZM60.271 29.5214C58.7223 31.8742 58.0907 34.7135 58.4958 37.501C58.9009 40.2885 60.3145 42.8306 62.4689 44.6453C64.6232 46.46 67.3684 47.4213 70.1843 47.347C73.0001 47.2726 75.6908 46.1678 77.7463 44.2419C79.8019 42.3161 81.0795 39.703 81.3369 36.898C81.5944 34.093 80.8138 31.291 79.1431 29.0231C77.4725 26.7553 75.0278 25.1791 72.2726 24.5935C69.5173 24.0078 66.643 24.4533 64.1943 25.8456C63.1034 26.4629 62.1218 27.256 61.2891 28.193L67.8772 35.5225C67.9649 35.6194 68.0828 35.6836 68.2118 35.7046C68.3407 35.7257 68.473 35.7023 68.5869 35.6383L69.4718 35.1356C69.6617 35.0277 69.8866 34.9997 70.0972 35.0577C70.3077 35.1157 70.4866 35.2549 70.5944 35.4448C70.7023 35.6347 70.7303 35.8596 70.6723 36.0702C70.6143 36.2807 70.4751 36.4596 70.2852 36.5674L69.3975 37.0718C68.9566 37.3191 68.4449 37.4095 67.946 37.3282C67.4471 37.247 66.9905 36.9989 66.6509 36.6244L63.3055 32.896C62.6184 34.4268 62.4873 36.1494 62.9347 37.7665C63.3821 39.3836 64.38 40.7938 65.7562 41.7537C67.1324 42.7136 68.8005 43.1629 70.4727 43.0242C72.1448 42.8854 73.716 42.1672 74.9152 40.9936C76.1143 39.82 76.8661 38.2645 77.0408 36.5958C77.2155 34.927 76.8022 33.2496 75.8721 31.8531C74.942 30.4566 73.5536 29.4285 71.9465 28.9465C70.3393 28.4644 68.6143 28.5585 67.0691 29.2125C66.9689 29.255 66.8613 29.2774 66.7525 29.2783C66.6436 29.2792 66.5357 29.2587 66.4347 29.2179C66.3338 29.1771 66.2419 29.1168 66.1643 29.0405C66.0867 28.9641 66.0249 28.8733 65.9824 28.7731C65.9399 28.6729 65.9175 28.5653 65.9166 28.4564C65.9157 28.3476 65.9362 28.2396 65.977 28.1387C66.0178 28.0378 66.0781 27.9459 66.1544 27.8682C66.2307 27.7906 66.3216 27.7288 66.4218 27.6863C68.3482 26.8733 70.5004 26.7689 72.4964 27.3917C74.4925 28.0145 76.2034 29.3241 77.3257 31.0883C78.448 32.8526 78.9092 34.9573 78.6273 37.0292C78.3455 39.101 77.3389 41.0061 75.7861 42.4064C74.2333 43.8067 72.2347 44.6118 70.1448 44.6787C68.055 44.7457 66.0089 44.0703 64.3697 42.7722C62.7304 41.4742 61.6039 39.6375 61.19 37.5879C60.7761 35.5383 61.1016 33.4084 62.1087 31.5759L60.271 29.5214ZM24.6207 48.3078C22.6722 49.4146 21.0893 51.0664 20.0663 53.0601C19.0432 55.0539 18.6246 57.303 18.8617 59.5314C19.0988 61.7598 19.9814 63.8704 21.4011 65.6043C22.8208 67.3381 24.7158 68.6197 26.8536 69.2918C28.9914 69.9639 31.2789 69.9971 33.4353 69.3875C35.5918 68.7779 37.5233 67.5519 38.9928 65.8601C40.4623 64.1682 41.4059 62.0841 41.7077 59.8636C42.0095 57.6431 41.6564 55.3827 40.6918 53.3601L38.3722 54.6778C39.1089 56.3195 39.3269 58.1469 38.9971 59.9158C38.6672 61.6848 37.8052 63.3108 36.5263 64.5766C35.2473 65.8424 33.6125 66.6876 31.8402 66.9991C30.068 67.3107 28.2429 67.0738 26.6089 66.3201C24.975 65.5664 23.61 64.3319 22.6966 62.7815C21.7832 61.2312 21.3649 59.439 21.4976 57.6445C21.6302 55.8499 22.3076 54.1387 23.439 52.7395C24.5705 51.3404 26.1021 50.3199 27.8291 49.8147C28.0389 49.7533 28.2644 49.7778 28.4561 49.8827C28.6479 49.9876 28.7901 50.1644 28.8515 50.3741C28.9129 50.5839 28.8884 50.8094 28.7835 51.0011C28.6786 51.1929 28.5018 51.3351 28.2921 51.3965C26.889 51.8043 25.6431 52.6291 24.7198 53.7616C23.7965 54.894 23.2394 56.2805 23.1225 57.7369C23.0055 59.1934 23.3343 60.651 24.0652 61.9162C24.796 63.1814 25.8944 64.1944 27.2145 64.8208C28.5345 65.4472 30.0139 65.6574 31.4562 65.4233C32.8984 65.1893 34.2354 64.5222 35.2897 63.5105C36.3439 62.4988 37.0656 61.1904 37.3589 59.759C37.6521 58.3276 37.5032 56.8409 36.9317 55.4961L31.2243 58.7384C31.078 58.8219 30.9096 58.8586 30.7418 58.8434C30.574 58.8282 30.4149 58.7619 30.286 58.6534C30.1571 58.545 30.0645 58.3996 30.0208 58.2369C29.9772 58.0742 29.9844 57.902 30.0417 57.7435L33.7797 47.3472C32.2694 46.8671 30.676 46.7045 29.0998 46.8698C27.5236 47.0352 25.9986 47.5247 24.6207 48.3078ZM45.8522 46.561C45.4902 46.7648 45.1836 47.0543 44.9595 47.4042C44.7354 47.754 44.6006 48.1535 44.5668 48.5676C44.5331 48.9817 44.6014 49.3977 44.7659 49.7792C44.9304 50.1608 45.186 50.4961 45.5102 50.7558C45.8345 51.0156 46.2175 51.1918 46.6258 51.269C47.034 51.3462 47.4549 51.3221 47.8517 51.1988C48.2484 51.0754 48.6088 50.8566 48.9013 50.5616C49.1938 50.2665 49.4094 49.9042 49.5292 49.5063L49.5432 49.4643C49.6819 48.98 49.6733 48.4653 49.5183 47.9859C49.3633 47.5065 49.0691 47.0841 48.6731 46.7726C48.2771 46.4611 47.7973 46.2747 47.2949 46.237C46.7925 46.1993 46.2902 46.3121 45.8522 46.561ZM41.3131 51.1131L43.1316 50.0801C42.9533 49.5372 42.8878 48.9637 42.939 48.3946C42.9903 47.8255 43.1572 47.2729 43.4296 46.7706L37.4897 41.9024L35.8754 46.3953C38.093 47.4292 39.9767 49.0635 41.3131 51.1131ZM37.5587 53.2459L39.8784 51.9282C38.7387 50.2189 37.1612 48.8468 35.3105 47.9548L34.4071 50.4719C35.6674 51.1268 36.7492 52.0789 37.5587 53.2459ZM32.3439 56.2084L36.1211 54.0626C35.514 53.2325 34.7349 52.5433 33.8369 52.042L32.3439 56.2084ZM45.0388 45.1292C45.9903 44.5881 47.1167 44.4436 48.174 44.7269L56.2596 25.0539L55.4493 24.1543L38.4115 40.5378L44.4794 45.5114C44.6549 45.3686 44.842 45.2408 45.0388 45.1292ZM28.9342 35.2436C28.8087 35.3149 28.6987 35.4103 28.6104 35.5244C28.5221 35.6385 28.4573 35.769 28.4199 35.9084C28.3824 36.0477 28.3729 36.1931 28.3921 36.3361C28.4112 36.4791 28.4585 36.6169 28.5313 36.7414L28.7688 37.1595C28.8435 37.2927 28.9454 37.4086 29.0679 37.4997C29.1904 37.5909 29.3307 37.6552 29.4797 37.6885C29.6287 37.7217 29.783 37.7233 29.9326 37.6929C30.0823 37.6626 30.2238 37.6011 30.3481 37.5124L32.1656 36.211L32.2028 36.1898L34.3281 34.6833C34.5647 34.5249 34.7301 34.2802 34.7887 34.0016C34.8473 33.7229 34.7946 33.4324 34.6417 33.1921C34.4889 32.9518 34.2481 32.7808 33.9709 32.7158C33.6937 32.6508 33.402 32.6968 33.1582 32.844L28.9342 35.2436Z" fill="black"/>
<path d="M73.7575 47.0335C71.1575 48.514 68.1305 49.0638 65.1759 48.5921C62.2214 48.1203 59.516 46.6552 57.5064 44.4386C55.4968 42.222 54.3031 39.3864 54.1223 36.3999C53.9415 33.4134 54.7845 30.4546 56.5121 28.0118L54.8647 26.1787L47.0462 45.2151C47.6014 45.6405 48.0406 46.1988 48.3232 46.8385C48.6059 47.4783 48.723 48.1789 48.6636 48.8758L52.3161 49.8843L53.7852 49.0497C53.9751 48.9419 54.2 48.9138 54.4106 48.9718C54.6211 49.0298 54.8 49.1691 54.9079 49.3589C55.0157 49.5488 55.0437 49.7738 54.9858 49.9843C54.9278 50.1949 54.7885 50.3737 54.5986 50.4816L52.8317 51.4854C52.6418 51.5933 52.4168 51.6217 52.2061 51.5643L48.2062 50.4577C47.8924 51.0638 47.435 51.5838 46.8739 51.9723C46.3128 52.3608 45.6651 52.606 44.9873 52.6865C44.3096 52.7669 43.6225 52.6802 42.986 52.4339C42.3495 52.1875 41.7831 51.7891 41.3361 51.2733L39.5176 52.3064C40.8536 55.0345 41.2057 58.1404 40.5144 61.0984C39.8231 64.0563 38.1309 66.6845 35.7243 68.5379C33.3176 70.3914 30.3444 71.3562 27.308 71.2691C24.2716 71.182 21.3586 70.0483 19.0622 68.06C16.7657 66.0716 15.227 63.3507 14.7064 60.358C14.1858 57.3653 14.7154 54.2847 16.2055 51.6376C17.6956 48.9906 20.0547 46.9398 22.8833 45.8325C25.7119 44.7252 28.8363 44.6293 31.7275 45.5612L33.527 40.5541L29.9981 37.6761L28.6746 38.6136C28.3623 38.8344 28.0071 38.9874 27.6321 39.0625C27.2571 39.1376 26.8704 39.1333 26.4972 39.0499C26.1239 38.9664 25.7723 38.8056 25.465 38.5779C25.1576 38.3502 24.9015 38.0606 24.713 37.7277L24.4819 37.3211C24.1243 36.6897 24.0316 35.9423 24.2243 35.2427C24.417 34.5432 24.8793 33.9486 25.5098 33.5894L29.7395 31.1866C30.3504 30.839 31.0715 30.7398 31.7536 30.9094C32.4356 31.079 33.0262 31.5044 33.4032 32.0976C33.7801 32.6908 33.9143 33.4062 33.7782 34.0957C33.642 34.7852 33.2458 35.3959 32.6717 35.8013L31.4079 36.6972L34.5319 39.2559L51.745 22.7008L50.7653 21.6096C50.5167 21.3345 50.3505 20.995 50.2858 20.6298C50.221 20.2647 50.2603 19.8887 50.3991 19.5449L50.6442 18.936C50.7551 18.6644 50.7942 18.3689 50.7575 18.0778C50.7209 17.7867 50.6099 17.51 50.4351 17.2744L47.4319 13.1547C47.1842 12.8139 46.8196 12.5763 46.4078 12.4874C45.996 12.3985 45.5659 12.4645 45.1997 12.6727L43.1951 13.8115C43.0052 13.9194 42.7803 13.9474 42.5697 13.8894C42.3592 13.8314 42.1803 13.6922 42.0724 13.5023C41.9646 13.3124 41.9366 13.0875 41.9946 12.8769C42.0525 12.6664 42.1918 12.4875 42.3817 12.3796L44.3863 11.2409C45.1045 10.8325 45.948 10.7031 46.7556 10.8774C47.5632 11.0517 48.2782 11.5175 48.764 12.1858L51.766 16.31C52.1036 16.7708 52.3177 17.3103 52.3877 17.8772C52.4578 18.444 52.3816 19.0194 52.1664 19.5485L51.9214 20.1574C51.8986 20.2148 51.8924 20.2773 51.9034 20.338C51.9144 20.3987 51.9423 20.4551 51.9838 20.5007L53.4964 22.1832L55.2111 24.0879C55.2111 24.0879 55.2224 24.108 55.2273 24.1166L57.5612 26.7112C58.8455 25.3104 60.4181 24.2045 62.1707 23.4696C63.9234 22.7347 65.8144 22.3883 67.7138 22.4543C69.6131 22.5202 71.4756 22.9969 73.1731 23.8516C74.8705 24.7062 76.3626 25.9186 77.5467 27.4051C78.7308 28.8916 79.5787 30.6171 80.0321 32.4627C80.4854 34.3083 80.5336 36.2302 80.1731 38.0962C79.8126 39.9621 79.052 41.7278 77.9438 43.2717C76.8356 44.8156 75.406 46.1011 73.7534 47.0396L73.7575 47.0335ZM57.6621 29.2827C56.1135 31.6356 55.4818 34.4748 55.8869 37.2624C56.292 40.0499 57.7057 42.5919 59.86 44.4066C62.0143 46.2214 64.7596 47.1827 67.5754 47.1083C70.3912 47.034 73.0819 45.9292 75.1374 44.0033C77.193 42.0774 78.4706 39.4643 78.7281 36.6593C78.9855 33.8543 78.2049 31.0523 76.5342 28.7845C74.8636 26.5166 72.4189 24.9405 69.6637 24.3548C66.9085 23.7692 64.0341 24.2147 61.5854 25.607C60.4945 26.2243 59.5129 27.0174 58.6802 27.9543L65.2683 35.2839C65.356 35.3807 65.4739 35.445 65.6029 35.466C65.7318 35.487 65.8641 35.4636 65.978 35.3996L66.8629 34.8969C67.0528 34.7891 67.2777 34.761 67.4883 34.819C67.6988 34.877 67.8777 35.0163 67.9856 35.2062C68.0934 35.396 68.1214 35.621 68.0635 35.8315C68.0055 36.0421 67.8662 36.2209 67.6763 36.3288L66.7886 36.8331C66.3477 37.0804 65.836 37.1709 65.3371 37.0896C64.8382 37.0083 64.3816 36.7602 64.042 36.3858L60.6967 32.6574C60.0095 34.1881 59.8784 35.9107 60.3258 37.5279C60.7732 39.145 61.7711 40.5552 63.1473 41.5151C64.5235 42.475 66.1916 42.9243 67.8638 42.7855C69.5359 42.6467 71.1071 41.9286 72.3063 40.7549C73.5054 39.5813 74.2572 38.0259 74.4319 36.3571C74.6066 34.6884 74.1933 33.011 73.2632 31.6144C72.3331 30.2179 70.9447 29.1899 69.3376 28.7078C67.7304 28.2257 66.0054 28.3198 64.4603 28.9739C64.36 29.0164 64.2524 29.0387 64.1436 29.0396C64.0347 29.0406 63.9268 29.02 63.8259 28.9792C63.7249 28.9384 63.633 28.8781 63.5554 28.8018C63.4778 28.7255 63.416 28.6346 63.3735 28.5344C63.331 28.4342 63.3086 28.3266 63.3077 28.2178C63.3068 28.1089 63.3273 28.0009 63.3681 27.9C63.4089 27.7991 63.4692 27.7072 63.5455 27.6296C63.6219 27.552 63.7127 27.4901 63.8129 27.4476C65.7393 26.6346 67.8915 26.5303 69.8875 27.153C71.8836 27.7758 73.5945 29.0855 74.7168 30.8497C75.8391 32.6139 76.3003 34.7186 76.0184 36.7905C75.7366 38.8624 74.73 40.7674 73.1772 42.1678C71.6244 43.5681 69.6258 44.3731 67.536 44.4401C65.4461 44.5071 63.4 43.8316 61.7608 42.5336C60.1215 41.2355 58.995 39.3988 58.5811 37.3492C58.1672 35.2997 58.4927 33.1697 59.4998 31.3373L57.6621 29.2827ZM22.0119 48.0691C20.0634 49.176 18.4804 50.8277 17.4574 52.8215C16.4343 54.8153 16.0157 57.0644 16.2528 59.2927C16.4899 61.5211 17.3725 63.6318 18.7922 65.3656C20.2119 67.0995 22.1069 68.3811 24.2447 69.0532C26.3825 69.7252 28.67 69.7585 30.8265 69.1489C32.9829 68.5392 34.9144 67.3133 36.3839 65.6214C37.8535 63.9296 38.797 61.8455 39.0988 59.625C39.4006 57.4044 39.0476 55.1441 38.0829 53.1214L35.7633 54.4392C36.5 56.0808 36.7181 57.9083 36.3882 59.6772C36.0583 61.4461 35.1963 63.0722 33.9174 64.3379C32.6385 65.6037 31.0036 66.4489 29.2314 66.7605C27.4591 67.072 25.634 66.8351 24.0001 66.0815C22.3661 65.3278 21.0012 64.0932 20.0878 62.5429C19.1744 60.9926 18.756 59.2003 18.8887 57.4058C19.0213 55.6113 19.6987 53.9001 20.8301 52.5009C21.9616 51.1017 23.4932 50.0813 25.2202 49.5761C25.43 49.5147 25.6555 49.5391 25.8473 49.644C26.039 49.7489 26.1812 49.9257 26.2426 50.1355C26.304 50.3452 26.2795 50.5708 26.1746 50.7625C26.0697 50.9542 25.8929 51.0964 25.6832 51.1578C24.2801 51.5656 23.0342 52.3905 22.1109 53.5229C21.1876 54.6554 20.6305 56.0418 20.5136 57.4983C20.3967 58.9547 20.7255 60.4123 21.4563 61.6775C22.1872 62.9428 23.2855 63.9558 24.6056 64.5822C25.9256 65.2086 27.405 65.4187 28.8473 65.1847C30.2895 64.9506 31.6265 64.2835 32.6808 63.2718C33.7351 62.2602 34.4567 60.9518 34.75 59.5204C35.0433 58.089 34.8943 56.6022 34.3228 55.2575L28.6154 58.4998C28.4691 58.5833 28.3007 58.6199 28.1329 58.6047C27.9651 58.5895 27.806 58.5232 27.6771 58.4148C27.5482 58.3063 27.4557 58.1609 27.412 57.9982C27.3683 57.8355 27.3755 57.6633 27.4328 57.5049L31.1708 47.1085C29.6605 46.6284 28.0671 46.4659 26.4909 46.6312C24.9147 46.7965 23.3897 47.2861 22.0119 48.0691ZM43.2433 46.3224C42.8813 46.5262 42.5748 46.8157 42.3507 47.1655C42.1265 47.5154 41.9917 47.9149 41.9579 48.3289C41.9242 48.743 41.9925 49.1591 42.157 49.5406C42.3215 49.9221 42.5771 50.2574 42.9014 50.5172C43.2256 50.7769 43.6087 50.9531 44.0169 51.0304C44.4251 51.1076 44.846 51.0835 45.2428 50.9601C45.6395 50.8368 45.9999 50.618 46.2924 50.3229C46.5849 50.0278 46.8005 49.6655 46.9203 49.2677L46.9343 49.2257C47.0731 48.7413 47.0644 48.2266 46.9094 47.7472C46.7545 47.2678 46.4602 46.8455 46.0642 46.534C45.6682 46.2225 45.1884 46.036 44.686 45.9983C44.1836 45.9607 43.6814 46.0735 43.2433 46.3224ZM38.7042 50.8745L40.5227 49.8414C40.3444 49.2986 40.2789 48.725 40.3301 48.156C40.3814 47.5869 40.5483 47.0343 40.8207 46.532L34.8809 41.6638L33.2665 46.1567C35.4841 47.1905 37.3679 48.8249 38.7042 50.8745ZM34.9499 53.0073L37.2695 51.6895C36.1298 49.9803 34.5523 48.6081 32.7017 47.7162L31.7982 50.2332C33.0585 50.8881 34.1403 51.8403 34.9499 53.0073ZM29.735 55.9698L33.5123 53.824C32.9052 52.9939 32.126 52.3046 31.228 51.8034L29.735 55.9698ZM42.4299 44.8905C43.3814 44.3495 44.5078 44.205 45.5651 44.4883L53.6507 24.8152L52.8405 23.9157L35.8027 40.2992L41.8705 45.2727C42.046 45.13 42.2331 45.0022 42.4299 44.8905ZM26.3253 35.005C26.1999 35.0762 26.0898 35.1717 26.0015 35.2858C25.9132 35.3999 25.8485 35.5304 25.811 35.6697C25.7735 35.809 25.7641 35.9544 25.7832 36.0974C25.8023 36.2404 25.8496 36.3782 25.9224 36.5028L26.1599 36.9209C26.2346 37.054 26.3365 37.17 26.459 37.2611C26.5815 37.3522 26.7218 37.4165 26.8708 37.4498C27.0198 37.4831 27.1741 37.4846 27.3237 37.4543C27.4734 37.424 27.6149 37.3624 27.7392 37.2738L29.5567 35.9723L29.5939 35.9512L31.7192 34.4446C31.9559 34.2863 32.1212 34.0416 32.1798 33.7629C32.2384 33.4843 32.1857 33.1937 32.0329 32.9534C31.88 32.7131 31.6392 32.5422 31.362 32.4772C31.0848 32.4121 30.7931 32.4581 30.5493 32.6054L26.3253 35.005Z" fill="white"/>
</svg>
