<svg width="74" height="48" viewBox="0 0 74 48" fill="none" xmlns="http://www.w3.org/2000/svg">
<path d="M60.8501 47.1253C57.8581 47.1284 54.9545 46.1112 52.6186 44.2417C50.2827 42.3721 48.6541 39.7619 48.0016 36.8419C47.3491 33.922 47.7118 30.8668 49.0298 28.1808C50.3478 25.4948 52.5423 23.3384 55.251 22.0678L54.7241 19.6602L38.523 32.3503C38.7956 32.9944 38.9017 33.6968 38.8315 34.3927C38.7613 35.0886 38.517 35.7556 38.1212 36.3322L40.7988 39.0132H42.4884C42.7068 39.0132 42.9162 39.0999 43.0707 39.2544C43.2251 39.4088 43.3118 39.6182 43.3118 39.8366C43.3118 40.055 43.2251 40.2644 43.0707 40.4188C42.9162 40.5732 42.7068 40.66 42.4884 40.66H40.4563C40.2378 40.66 40.0283 40.5736 39.8733 40.4196L36.9421 37.4817C36.3699 37.8537 35.7153 38.0799 35.0355 38.1405C34.3557 38.2012 33.6714 38.0944 33.0424 37.8296C32.4134 37.5648 31.8588 37.15 31.427 36.6215C30.9953 36.0929 30.6996 35.4666 30.5657 34.7974H28.4743C28.2883 37.8294 27.0603 40.7039 24.9982 42.9343C22.9361 45.1648 20.1665 46.6141 17.1585 47.0369C14.1504 47.4598 11.0886 46.8301 8.49152 45.2545C5.89442 43.679 3.92157 41.2544 2.90698 38.3912C1.89239 35.528 1.8984 32.4022 2.92398 29.5429C3.94957 26.6836 5.93172 24.2666 8.53486 22.7011C11.138 21.1355 14.2022 20.5176 17.2086 20.952C20.215 21.3864 22.979 22.8463 25.0325 25.0847L29.0704 21.6198L27.4236 17.3744L25.8098 17.5358C25.4291 17.5735 25.0448 17.5311 24.6816 17.4112C24.3184 17.2913 23.9844 17.0965 23.701 16.8396C23.4177 16.5826 23.1914 16.2692 23.0367 15.9194C22.8819 15.5696 22.8023 15.1912 22.8027 14.8087V14.341C22.8036 13.6154 23.0922 12.9198 23.6053 12.4067C24.1184 11.8936 24.8141 11.6049 25.5397 11.6041H30.4043C31.1071 11.6036 31.7832 11.8735 32.2924 12.3578C32.8017 12.8422 33.1051 13.5039 33.1398 14.2058C33.1745 14.9078 32.9379 15.5962 32.4789 16.1284C32.0199 16.6607 31.3738 16.9959 30.6744 17.0648L29.133 17.2196L30.5855 20.9875L53.7294 15.0953L53.4165 13.6626C53.3363 13.3005 53.3595 12.9232 53.4835 12.5738C53.6076 12.2243 53.8275 11.9168 54.118 11.6864L54.6318 11.278C54.8624 11.0967 55.0424 10.859 55.1543 10.5878C55.2662 10.3167 55.3064 10.0212 55.2708 9.73003L54.6944 4.66451C54.6474 4.24585 54.4478 3.8592 54.1336 3.57849C53.8195 3.29777 53.4129 3.14268 52.9916 3.14288H50.6861C50.4678 3.14288 50.2583 3.05613 50.1039 2.90171C49.9495 2.7473 49.8627 2.53787 49.8627 2.31949C49.8627 2.10111 49.9495 1.89168 50.1039 1.73726C50.2583 1.58284 50.4678 1.49609 50.6861 1.49609H52.9916C53.8178 1.49578 54.6152 1.79992 55.2313 2.35039C55.8473 2.90086 56.239 3.65906 56.3313 4.48007L56.9044 9.54888C56.9703 10.1163 56.8899 10.6911 56.6709 11.2186C56.4518 11.7461 56.1013 12.2088 55.6528 12.5625L55.139 12.9709C55.0909 13.0095 55.0546 13.0608 55.0342 13.1191C55.0138 13.1773 55.0102 13.2401 55.0238 13.3003L55.5079 15.5103L56.058 18.0134C56.058 18.0134 56.058 18.0364 56.058 18.0463L56.8056 21.4552C58.6142 20.8715 60.5279 20.6867 62.4148 20.9135C64.3017 21.1402 66.117 21.7731 67.7359 22.7686C69.3548 23.7641 70.7387 25.0985 71.7925 26.6801C72.8463 28.2617 73.5449 30.0528 73.8401 31.9302C74.1354 33.8076 74.0204 35.7267 73.503 37.5554C72.9856 39.3841 72.0781 41.0789 70.8429 42.5233C69.6078 43.9677 68.0744 45.1273 66.3482 45.9223C64.622 46.7173 62.744 47.1288 60.8435 47.1286L60.8501 47.1253ZM55.6232 23.7409C53.1145 25.0217 51.1628 27.1784 50.1381 29.8023C49.1135 32.4261 49.087 35.3347 50.0638 37.9767C51.0406 40.6187 52.9528 42.8105 55.4378 44.1367C57.9229 45.463 60.8081 45.8314 63.5467 45.1722C66.2853 44.513 68.6869 42.872 70.2962 40.5602C71.9056 38.2485 72.6109 35.4266 72.2785 32.6295C71.946 29.8324 70.599 27.2544 68.4926 25.3842C66.3862 23.5141 63.6669 22.4817 60.8501 22.4827C59.5966 22.4806 58.3514 22.6854 57.1646 23.0888L59.2725 32.7159C59.3009 32.8434 59.3717 32.9575 59.4734 33.0395C59.5752 33.1215 59.7017 33.1665 59.8324 33.1671H60.8501C61.0685 33.1671 61.2779 33.2539 61.4323 33.4083C61.5868 33.5627 61.6735 33.7721 61.6735 33.9905C61.6735 34.2089 61.5868 34.4183 61.4323 34.5727C61.2779 34.7271 61.0685 34.8139 60.8501 34.8139H59.8291C59.3236 34.8112 58.834 34.637 58.4404 34.3199C58.0467 34.0029 57.7723 33.5616 57.6619 33.0683L56.5948 28.174C55.2413 29.1656 54.2763 30.5986 53.8666 32.2257C53.4568 33.8528 53.628 35.5719 54.3504 37.0862C55.0729 38.6006 56.3014 39.8153 57.8238 40.5205C59.3463 41.2258 61.0672 41.3775 62.6895 40.9493C64.3119 40.5212 65.7339 39.5401 66.71 38.1754C67.6862 36.8107 68.1554 35.1481 68.0365 33.4744C67.9176 31.8007 67.2182 30.2211 66.0589 29.0081C64.8996 27.795 63.3532 27.0248 61.6867 26.8303C61.5785 26.8177 61.4739 26.784 61.3788 26.731C61.2837 26.6781 61.2 26.6069 61.1324 26.5216C61.0648 26.4362 61.0147 26.3384 60.9849 26.2337C60.9551 26.129 60.9462 26.0195 60.9588 25.9114C60.9713 25.8032 61.0051 25.6986 61.058 25.6035C61.111 25.5084 61.1822 25.4247 61.2675 25.3571C61.3528 25.2895 61.4506 25.2394 61.5553 25.2096C61.66 25.1798 61.7696 25.1709 61.8777 25.1835C63.9543 25.4281 65.8771 26.4004 67.305 27.9278C68.733 29.4553 69.5737 31.4391 69.6781 33.5275C69.7826 35.6158 69.1439 37.6736 67.8755 39.3359C66.607 40.9981 64.7908 42.1574 62.749 42.608C60.7071 43.0585 58.5717 42.7713 56.7215 41.7973C54.8713 40.8232 53.4259 39.2253 52.6418 37.2869C51.8576 35.3486 51.7854 33.1952 52.4379 31.2086C53.0903 29.2221 54.4254 27.5309 56.2062 26.435L55.6232 23.7409ZM15.3461 22.4663C13.1051 22.4663 10.913 23.1205 9.03859 24.3488C7.16423 25.577 5.68927 27.3258 4.79475 29.3805C3.90023 31.4351 3.62509 33.7063 4.00308 35.9151C4.38108 38.124 5.39576 40.1744 6.9226 41.8147C8.44943 43.455 10.422 44.6138 12.5981 45.1489C14.7742 45.684 17.0592 45.5721 19.1726 44.8269C21.286 44.0817 23.1359 42.7357 24.4951 40.954C25.8544 39.1724 26.6638 37.0326 26.8242 34.7974H24.1564C23.9861 36.5888 23.273 38.2854 22.1125 39.6605C20.9519 41.0357 19.3992 42.0237 17.662 42.4926C15.9247 42.9615 14.0857 42.8888 12.3909 42.2843C10.696 41.6798 9.22614 40.5724 8.1777 39.11C7.12925 37.6475 6.55225 35.8999 6.52384 34.1007C6.49542 32.3015 7.01695 30.5366 8.01869 29.0418C9.02043 27.547 10.4546 26.3936 12.1295 25.736C13.8044 25.0783 15.6402 24.9476 17.3914 25.3613C17.6041 25.4116 17.7881 25.5442 17.903 25.7301C18.0179 25.9161 18.0542 26.14 18.004 26.3527C17.9538 26.5654 17.8211 26.7494 17.6352 26.8643C17.4493 26.9792 17.2253 27.0155 17.0126 26.9653C15.5912 26.6268 14.1005 26.7286 12.7383 27.2572C11.3761 27.7858 10.2069 28.7162 9.38585 29.9248C8.56479 31.1334 8.1307 32.5632 8.14122 34.0243C8.15174 35.4854 8.60637 36.9087 9.44475 38.1054C10.2831 39.3021 11.4656 40.2155 12.8353 40.7244C14.2049 41.2334 15.697 41.3137 17.1134 40.9548C18.5297 40.5959 19.8035 39.8147 20.7655 38.715C21.7275 37.6153 22.3324 36.249 22.4997 34.7974H15.9356C15.7672 34.7978 15.6027 34.7464 15.4643 34.6504C15.3259 34.5543 15.2203 34.418 15.1618 34.2601C15.1033 34.1021 15.0946 33.93 15.137 33.7669C15.1794 33.6039 15.2707 33.4577 15.3988 33.3482L23.7842 26.1551C22.7081 24.9916 21.403 24.0632 19.9508 23.4284C18.4987 22.7936 16.9309 22.466 15.3461 22.4663ZM34.6695 31.4347C34.254 31.433 33.8445 31.5334 33.4768 31.7269C33.1092 31.9203 32.7946 32.2011 32.5607 32.5445C32.3268 32.8878 32.1808 33.2834 32.1353 33.6963C32.0899 34.1093 32.1465 34.5271 32.3001 34.9131C32.4538 35.2991 32.6998 35.6415 33.0166 35.9103C33.3334 36.1791 33.7113 36.3661 34.1172 36.4548C34.5231 36.5435 34.9445 36.5313 35.3446 36.4192C35.7447 36.3071 36.1111 36.0985 36.4118 35.8118L36.4447 35.7822C36.8046 35.4296 37.0513 34.9778 37.1533 34.4844C37.2554 33.9911 37.2082 33.4785 37.0177 33.012C36.8273 32.5456 36.5022 32.1465 36.084 31.8655C35.6657 31.5846 35.1733 31.4346 34.6695 31.4347ZM28.4743 33.1506H30.5657C30.6788 32.5906 30.9052 32.0595 31.2308 31.59C31.5565 31.1205 31.9746 30.7224 32.4595 30.4203L29.6995 23.2534L26.0765 26.3626C27.4941 28.3569 28.3247 30.7084 28.4743 33.1506ZM24.1564 33.1506H26.8242C26.6775 31.1015 25.9837 29.1292 24.8151 27.4396L22.7863 29.1819C23.5586 30.3738 24.0289 31.736 24.1564 33.1506ZM18.1588 33.1506H22.503C22.3852 32.129 22.0481 31.1449 21.5149 30.2655L18.1588 33.1506ZM34.6695 29.7879C35.7641 29.7875 36.8148 30.2182 37.5942 30.9868L54.342 17.875L54.0818 16.6926L31.175 22.5223L33.9943 29.8439C34.2174 29.8065 34.4433 29.7878 34.6695 29.7879ZM25.5496 13.2377C25.4053 13.2377 25.2625 13.2663 25.1293 13.3219C24.9962 13.3775 24.8754 13.459 24.774 13.5616C24.6726 13.6643 24.5926 13.786 24.5386 13.9198C24.4846 14.0536 24.4577 14.1968 24.4594 14.341V14.8219C24.4586 14.9746 24.4899 15.1257 24.5514 15.2654C24.6129 15.4052 24.7032 15.5304 24.8163 15.6329C24.9294 15.7354 25.0628 15.813 25.2079 15.8605C25.353 15.9081 25.5064 15.9245 25.6583 15.9088L27.8814 15.6749H27.9242L30.5163 15.4147C30.8003 15.394 31.0649 15.2629 31.2535 15.0496C31.4422 14.8362 31.5398 14.5575 31.5256 14.2731C31.5114 13.9887 31.3865 13.7211 31.1775 13.5276C30.9686 13.3341 30.6923 13.2301 30.4076 13.2377H25.5496Z" fill="black"/>
<path d="M58.6997 45.6292C55.7078 45.6323 52.8042 44.6151 50.4682 42.7456C48.1323 40.876 46.5037 38.2658 45.8512 35.3458C45.1988 32.4259 45.5615 29.3707 46.8794 26.6847C48.1974 23.9987 50.3919 21.8423 53.1006 20.5717L52.5737 18.1641L36.3726 30.8542C36.6452 31.4983 36.7513 32.2007 36.6811 32.8966C36.6109 33.5925 36.3666 34.2595 35.9708 34.8361L38.6484 37.5171H40.338C40.5564 37.5171 40.7659 37.6039 40.9203 37.7583C41.0747 37.9127 41.1614 38.1221 41.1614 38.3405C41.1614 38.5589 41.0747 38.7683 40.9203 38.9227C40.7659 39.0771 40.5564 39.1639 40.338 39.1639H38.3059C38.0874 39.1639 37.8779 39.0775 37.7229 38.9235L34.7917 35.9856C34.2195 36.3576 33.5649 36.5838 32.8851 36.6444C32.2053 36.7051 31.521 36.5984 30.892 36.3336C30.263 36.0688 29.7084 35.6539 29.2766 35.1254C28.8449 34.5968 28.5492 33.9706 28.4153 33.3013H26.3239C26.1379 36.3333 24.9099 39.2078 22.8478 41.4383C20.7857 43.6687 18.0161 45.118 15.0081 45.5408C12 45.9637 8.93823 45.334 6.34113 43.7585C3.74403 42.1829 1.77118 39.7583 0.756591 36.8951C-0.258001 34.0319 -0.251995 30.9061 0.773593 28.0468C1.79918 25.1875 3.78133 22.7705 6.38447 21.205C8.9876 19.6394 12.0518 19.0215 15.0582 19.4559C18.0646 19.8903 20.8286 21.3502 22.8821 23.5886L26.92 20.1237L25.2732 15.8783L23.6594 16.0397C23.2788 16.0774 22.8944 16.035 22.5312 15.9151C22.168 15.7952 21.834 15.6005 21.5507 15.3435C21.2673 15.0865 21.041 14.7731 20.8863 14.4233C20.7316 14.0735 20.6519 13.6951 20.6523 13.3126V12.8449C20.6532 12.1193 20.9419 11.4237 21.4549 10.9106C21.968 10.3975 22.6637 10.1089 23.3893 10.108H28.2539C28.9567 10.1075 29.6328 10.3774 30.142 10.8618C30.6513 11.3461 30.9547 12.0078 30.9894 12.7097C31.0241 13.4117 30.7875 14.1001 30.3285 14.6323C29.8695 15.1646 29.2234 15.4999 28.524 15.5687L26.9826 15.7235L28.4351 19.4914L51.579 13.5992L51.2661 12.1665C51.1859 11.8044 51.2091 11.4271 51.3331 11.0777C51.4572 10.7282 51.6771 10.4207 51.9677 10.1903L52.4814 9.78192C52.712 9.60059 52.892 9.36288 53.0039 9.09172C53.1158 8.82056 53.156 8.52512 53.1204 8.23394L52.544 3.16842C52.497 2.74976 52.2974 2.36311 51.9832 2.08239C51.6691 1.80167 51.2625 1.64659 50.8412 1.64679H48.5357C48.3174 1.64679 48.1079 1.56004 47.9535 1.40562C47.7991 1.2512 47.7124 1.04177 47.7124 0.823394C47.7124 0.605016 47.7991 0.395583 47.9535 0.241167C48.1079 0.0867504 48.3174 2.46587e-07 48.5357 2.46587e-07H50.8412C51.6674 -0.000316135 52.4648 0.303826 53.0809 0.854298C53.697 1.40477 54.0886 2.16297 54.1809 2.98398L54.754 8.05279C54.82 8.62017 54.7396 9.19498 54.5205 9.7225C54.3014 10.25 53.9509 10.7127 53.5025 11.0664L52.9887 11.4748C52.9405 11.5134 52.9042 11.5647 52.8838 11.623C52.8634 11.6812 52.8598 11.744 52.8734 11.8042L53.3575 14.0142L53.9076 16.5173C53.9076 16.5173 53.9076 16.5403 53.9076 16.5502L54.6552 19.9591C56.4638 19.3754 58.3775 19.1906 60.2644 19.4174C62.1513 19.6441 63.9666 20.277 65.5855 21.2725C67.2044 22.268 68.5884 23.6025 69.6421 25.184C70.6959 26.7656 71.3945 28.5567 71.6897 30.4341C71.985 32.3115 71.87 34.2306 71.3526 36.0593C70.8352 37.888 69.9277 39.5828 68.6925 41.0272C67.4574 42.4716 65.924 43.6312 64.1978 44.4262C62.4716 45.2212 60.5936 45.6327 58.6931 45.6325L58.6997 45.6292ZM53.4728 22.2448C50.9641 23.5256 49.0124 25.6824 47.9877 28.3062C46.9631 30.93 46.9367 33.8386 47.9134 36.4806C48.8902 39.1226 50.8024 41.3144 53.2874 42.6406C55.7725 43.9669 58.6577 44.3353 61.3963 43.6761C64.1349 43.0169 66.5365 41.3759 68.1458 39.0641C69.7552 36.7524 70.4605 33.9305 70.1281 31.1334C69.7957 28.3363 68.4486 25.7583 66.3422 23.8882C64.2358 22.018 61.5165 20.9856 58.6997 20.9867C57.4462 20.9845 56.201 21.1893 55.0142 21.5927L57.1221 31.2198C57.1505 31.3473 57.2213 31.4614 57.3231 31.5434C57.4248 31.6254 57.5513 31.6704 57.682 31.671H58.6997C58.9181 31.671 59.1275 31.7578 59.2819 31.9122C59.4364 32.0666 59.5231 32.276 59.5231 32.4944C59.5231 32.7128 59.4364 32.9222 59.2819 33.0766C59.1275 33.231 58.9181 33.3178 58.6997 33.3178H57.6787C57.1732 33.3151 56.6836 33.1409 56.29 32.8238C55.8963 32.5068 55.6219 32.0655 55.5115 31.5722L54.4444 26.6779C53.0909 27.6695 52.1259 29.1025 51.7162 30.7296C51.3064 32.3567 51.4776 34.0758 52.2 35.5901C52.9225 37.1045 54.151 38.3192 55.6734 39.0245C57.1959 39.7297 58.9168 39.8814 60.5392 39.4532C62.1615 39.0251 63.5835 38.044 64.5597 36.6793C65.5358 35.3146 66.005 33.652 65.8861 31.9783C65.7672 30.3046 65.0678 28.725 63.9085 27.512C62.7492 26.299 61.2029 25.5287 59.5363 25.3342C59.4282 25.3216 59.3236 25.2879 59.2285 25.2349C59.1334 25.182 59.0496 25.1108 58.982 25.0255C58.9144 24.9401 58.8643 24.8423 58.8345 24.7376C58.8047 24.6329 58.7959 24.5234 58.8084 24.4153C58.8209 24.3071 58.8547 24.2025 58.9076 24.1074C58.9606 24.0123 59.0318 23.9286 59.1171 23.861C59.2024 23.7934 59.3002 23.7433 59.4049 23.7135C59.5096 23.6837 59.6192 23.6748 59.7273 23.6874C61.8039 23.932 63.7267 24.9043 65.1546 26.4317C66.5826 27.9592 67.4233 29.943 67.5277 32.0314C67.6322 34.1197 66.9935 36.1775 65.7251 37.8398C64.4566 39.502 62.6404 40.6613 60.5986 41.1119C58.5568 41.5624 56.4213 41.2752 54.5711 40.3012C52.7209 39.3271 51.2755 37.7292 50.4914 35.7908C49.7072 33.8525 49.635 31.6991 50.2875 29.7125C50.94 27.726 52.275 26.0348 54.0558 24.9389L53.4728 22.2448ZM13.1957 20.9702C10.9548 20.9702 8.76256 21.6244 6.8882 22.8527C5.01384 24.0809 3.53888 25.8297 2.64436 27.8844C1.74984 29.9391 1.4747 32.2102 1.85269 34.419C2.23068 36.6279 3.24537 38.6783 4.77221 40.3186C6.29904 41.9589 8.27158 43.1177 10.4477 43.6528C12.6238 44.1879 14.9088 44.076 17.0222 43.3308C19.1357 42.5856 20.9855 41.2396 22.3447 39.4579C23.704 37.6763 24.5135 35.5365 24.6738 33.3013H22.006C21.8357 35.0927 21.1226 36.7893 19.9621 38.1644C18.8015 39.5396 17.2488 40.5276 15.5116 40.9965C13.7743 41.4654 11.9353 41.3927 10.2405 40.7882C8.54566 40.1837 7.07575 39.0763 6.02731 37.6139C4.97886 36.1515 4.40186 34.4038 4.37345 32.6046C4.34503 30.8055 4.86656 29.0405 5.8683 27.5457C6.87003 26.0509 8.30424 24.8976 9.97914 24.2399C11.654 23.5822 13.4898 23.4515 15.241 23.8652C15.4537 23.9155 15.6377 24.0481 15.7526 24.234C15.8675 24.42 15.9038 24.6439 15.8536 24.8566C15.8034 25.0693 15.6707 25.2533 15.4848 25.3682C15.2989 25.4831 15.0749 25.5194 14.8622 25.4692C13.4408 25.1307 11.9501 25.2326 10.5879 25.7611C9.22575 26.2897 8.05653 27.2201 7.23546 28.4287C6.41439 29.6373 5.98031 31.0671 5.99083 32.5282C6.00135 33.9893 6.45598 35.4127 7.29436 36.6093C8.13274 37.806 9.31524 38.7194 10.6849 39.2284C12.0545 39.7373 13.5466 39.8176 14.963 39.4587C16.3793 39.0998 17.6531 38.3186 18.6151 37.2189C19.5772 36.1192 20.182 34.7529 20.3493 33.3013H13.7852C13.6168 33.3017 13.4523 33.2503 13.3139 33.1543C13.1755 33.0582 13.0699 32.9219 13.0114 32.764C12.9529 32.606 12.9442 32.4339 12.9866 32.2708C13.029 32.1078 13.1204 31.9616 13.2484 31.8522L21.6338 24.659C20.5577 23.4955 19.2526 22.5671 17.8005 21.9323C16.3483 21.2975 14.7805 20.9699 13.1957 20.9702ZM32.5191 29.9386C32.1036 29.9369 31.6941 30.0373 31.3265 30.2308C30.9588 30.4242 30.6442 30.705 30.4103 31.0484C30.1765 31.3917 30.0304 31.7873 29.985 32.2002C29.9395 32.6132 29.9961 33.031 30.1498 33.417C30.3034 33.803 30.5494 34.1454 30.8662 34.4142C31.183 34.683 31.5609 34.87 31.9668 34.9587C32.3727 35.0474 32.7942 35.0352 33.1942 34.9231C33.5943 34.811 33.9607 34.6024 34.2614 34.3158L34.2943 34.2861C34.6542 33.9335 34.9009 33.4817 35.0029 32.9883C35.105 32.495 35.0578 31.9824 34.8673 31.5159C34.6769 31.0495 34.3518 30.6504 33.9336 30.3694C33.5153 30.0885 33.0229 29.9385 32.5191 29.9386ZM26.3239 31.6545H28.4153C28.5284 31.0945 28.7548 30.5634 29.0804 30.0939C29.4061 29.6244 29.8242 29.2264 30.3091 28.9242L27.5491 21.7574L23.9262 24.8665C25.3437 26.8608 26.1743 29.2123 26.3239 31.6545ZM22.006 31.6545H24.6738C24.5271 29.6054 23.8333 27.6331 22.6647 25.9435L20.6359 27.6858C21.4082 28.8777 21.8785 30.24 22.006 31.6545ZM16.0084 31.6545H20.3526C20.2348 30.6329 19.8977 29.6488 19.3646 28.7694L16.0084 31.6545ZM32.5191 28.2918C33.6137 28.2914 34.6644 28.7221 35.4438 29.4907L52.1916 16.3789L51.9314 15.1966L29.0246 21.0262L31.8439 28.3478C32.067 28.3104 32.2929 28.2917 32.5191 28.2918ZM23.3992 11.7416C23.2549 11.7416 23.1121 11.7702 22.9789 11.8258C22.8458 11.8814 22.725 11.9629 22.6236 12.0655C22.5222 12.1682 22.4422 12.2899 22.3882 12.4237C22.3342 12.5575 22.3073 12.7007 22.309 12.8449V13.3258C22.3082 13.4785 22.3396 13.6296 22.401 13.7693C22.4625 13.9091 22.5528 14.0343 22.6659 14.1368C22.779 14.2394 22.9124 14.3169 23.0575 14.3644C23.2026 14.412 23.356 14.4284 23.5079 14.4127L25.731 14.1788H25.7739L28.3659 13.9186C28.6499 13.8979 28.9145 13.7668 29.1031 13.5535C29.2918 13.3401 29.3894 13.0614 29.3752 12.777C29.361 12.4926 29.2361 12.225 29.0272 12.0315C28.8182 11.838 28.5419 11.734 28.2572 11.7416H23.3992Z" fill="white"/>
</svg>
