<svg width="69" height="70" viewBox="0 0 69 70" fill="none" xmlns="http://www.w3.org/2000/svg">
<path d="M43.061 32.9326C44.2944 32.9326 45.2943 31.9328 45.2943 30.6994C45.2943 29.4659 44.2944 28.4661 43.061 28.4661C41.8276 28.4661 40.8277 29.4659 40.8277 30.6994C40.8277 31.9328 41.8276 32.9326 43.061 32.9326Z" fill="black"/>
<path d="M46.5827 69.2196C46.4109 69.2209 46.2421 69.175 46.0947 69.0868C45.8715 68.9572 45.7076 68.7457 45.6378 68.4973L44.4431 64.0346L41.6125 60.2669L40.2303 61.1883C40.1177 61.2617 39.9913 61.3113 39.8588 61.334C39.7262 61.3567 39.5905 61.3519 39.4599 61.3201C39.3293 61.2883 39.2066 61.23 39.0993 61.1489C38.9921 61.0678 38.9027 60.9656 38.8365 60.8486L34.1981 52.4972C33.265 54.1136 31.5744 55.5036 29.8565 55.5036H20.0956V59.4079H29.0092C29.1375 59.4074 29.2647 59.4323 29.3834 59.4812C29.502 59.53 29.6098 59.6019 29.7006 59.6927C29.7913 59.7834 29.8632 59.8912 29.9121 60.0099C29.9609 60.1285 29.9858 60.2557 29.9853 60.384V63.6129C29.9853 63.8718 29.8825 64.1201 29.6994 64.3031C29.5164 64.4862 29.2681 64.589 29.0092 64.589H28.2284V65.8306C28.1984 66.7141 27.8264 67.5514 27.1908 68.1658C26.5553 68.7803 25.7058 69.1237 24.8218 69.1237C23.9378 69.1237 23.0883 68.7803 22.4528 68.1658C21.8172 67.5514 21.4452 66.7141 21.4153 65.8306V64.589H12.3689V65.8306C12.339 66.7141 11.967 67.5514 11.3314 68.1658C10.6958 68.7803 9.84635 69.1237 8.96233 69.1237C8.07832 69.1237 7.22888 68.7803 6.59329 68.1658C5.95771 67.5514 5.5857 66.7141 5.55579 65.8306V64.589H4.486C4.22712 64.589 3.97885 64.4862 3.7958 64.3031C3.61275 64.1201 3.50991 63.8718 3.50991 63.6129V60.3918C3.50939 60.2635 3.53429 60.1363 3.58316 60.0177C3.63203 59.899 3.70391 59.7912 3.79465 59.7005C3.88539 59.6097 3.9932 59.5379 4.11185 59.489C4.23051 59.4401 4.35767 59.4152 4.486 59.4157H13.4035V55.5114C10.1247 55.5052 6.98223 54.1986 4.66558 51.8783C2.34892 49.558 1.04729 46.4134 1.04626 43.1346L1.04626 27.4313C1.04833 26.2363 1.52423 25.0909 2.36959 24.2462C3.21496 23.4016 4.36078 22.9267 5.55579 22.9257H6.31323C6.83369 21.5875 7.74543 20.4374 8.92947 19.6253C10.1135 18.8132 11.5149 18.3768 12.9506 18.3732H13.6183V15.117C13.1525 14.4145 12.9435 13.5727 13.0268 12.734C13.11 11.8953 13.4803 11.111 14.0751 10.5138C14.2757 10.3135 14.4984 10.1367 14.7388 9.98666V8.95201C14.7388 7.92656 14.9408 6.91115 15.3332 5.96375C15.7256 5.01636 16.3008 4.15553 17.0259 3.43043C17.751 2.70532 18.6119 2.13014 19.5593 1.73771C20.5067 1.34529 21.5221 1.14331 22.5475 1.14331C23.573 1.14331 24.5884 1.34529 25.5358 1.73771C26.4832 2.13014 27.344 2.70532 28.0691 3.43043C28.7942 4.15553 29.3694 5.01636 29.7618 5.96375C30.1542 6.91115 30.3562 7.92656 30.3562 8.95201V9.87344C30.9358 10.1891 31.4202 10.6545 31.7587 11.221C32.0973 11.7876 32.2776 12.4345 32.2811 13.0945C32.2811 14.0662 31.8953 14.9981 31.2086 15.6855C30.5219 16.373 29.5904 16.7597 28.6188 16.7607H28.0527C27.9684 17.3228 27.7999 17.8691 27.5529 18.381H29.9385V20.3332H25.9677L25.9326 20.3605V21.6724H23.9804V21.3249C23.5114 21.4481 23.0286 21.5111 22.5436 21.5123C21.2176 21.5136 19.935 21.0399 18.9282 20.177V21.6724C18.9282 22.3455 19.1956 22.991 19.6715 23.4669C20.1474 23.9428 20.7929 24.2102 21.466 24.2102C22.1391 24.2102 22.7846 23.9428 23.2605 23.4669C23.7365 22.991 24.0038 22.3455 24.0038 21.6724H25.956C25.956 22.8632 25.483 24.0053 24.6409 24.8473C23.7989 25.6893 22.6568 26.1624 21.466 26.1624C20.2752 26.1624 19.1331 25.6893 18.2911 24.8473C17.4491 24.0053 16.976 22.8632 16.976 21.6724C16.976 21.5357 16.976 21.3952 16.976 21.2624V20.3254H15.5704V23.8783C15.5688 24.5144 15.6931 25.1445 15.9364 25.7322C16.1797 26.32 16.537 26.8536 16.9877 27.3025L22.6646 32.9755L25.4289 32.1399C25.6825 32.0651 25.9454 32.0269 26.2098 32.0267H28.4977C29.2112 32.0305 29.8954 32.3104 30.407 32.8076L32.5973 34.9042L34.7642 23.6636C34.3926 22.6839 33.7322 21.8402 32.8704 21.2441C32.0087 20.648 30.9863 20.3276 29.9385 20.3254V18.3732C31.15 18.3719 32.342 18.6795 33.4016 19.267C34.4612 19.8546 35.3535 20.7026 35.9941 21.7309H53.2669C53.4119 21.7302 53.5552 21.7619 53.6864 21.8237C53.8176 21.8855 53.9332 21.9759 54.0249 22.0882C54.1166 22.2005 54.1821 22.3319 54.2164 22.4727C54.2508 22.6136 54.2532 22.7603 54.2235 22.9023L51.2484 38.3518L57.1283 43.7827L60.3299 46.6915L62.735 45.1453C65.1323 43.5836 68.4119 45.6724 68.5525 45.7583C68.6627 45.8315 68.7575 45.9257 68.8312 46.0356C68.9049 46.1455 68.9561 46.2689 68.982 46.3986C69.0074 46.5282 69.0059 46.6615 68.9777 46.7905C68.9495 46.9194 68.8952 47.0412 68.818 47.1483L62.0752 56.5617C61.999 56.6673 61.9025 56.7567 61.7913 56.8245C61.6801 56.8923 61.5565 56.9372 61.4277 56.9564C61.2989 56.9757 61.1675 56.969 61.0414 56.9368C60.9152 56.9045 60.7968 56.8473 60.693 56.7686L52.5837 50.6231L51.6505 51.732C51.4949 51.9183 51.2752 52.0397 51.0346 52.0722C50.794 52.1047 50.5499 52.046 50.3504 51.9077L45.2084 48.343L50.4636 59.4704L55.4417 60.099C55.5588 60.099 58.9283 60.4894 60.1269 64.5968C60.1642 64.7214 60.1762 64.8522 60.1621 64.9815C60.148 65.1108 60.1081 65.2359 60.0447 65.3495C59.9814 65.4631 59.8959 65.5628 59.7933 65.6428C59.6907 65.7227 59.5732 65.7813 59.4475 65.815L46.8209 69.2039C46.7425 69.2192 46.6624 69.2244 46.5827 69.2196ZM23.3635 64.5734V65.815C23.3828 66.1877 23.5445 66.5387 23.8151 66.7957C24.0858 67.0526 24.4447 67.1959 24.8179 67.1959C25.1911 67.1959 25.55 67.0526 25.8207 66.7957C26.0913 66.5387 26.253 66.1877 26.2723 65.815V64.5734H23.3635ZM7.52358 64.5734V65.815C7.5429 66.1877 7.70455 66.5387 7.97518 66.7957C8.24581 67.0526 8.60476 67.1959 8.97795 67.1959C9.35114 67.1959 9.71009 67.0526 9.98072 66.7957C10.2514 66.5387 10.413 66.1877 10.4323 65.815V64.5734H7.52358ZM46.4539 64.0033L47.2738 67.0565L57.9053 64.2025C56.9409 62.2503 55.2933 62.0356 55.2152 62.0277L50.0615 61.3991L46.4539 64.0033ZM27.2484 62.629H28.0292V61.3601H5.46208V62.629H27.2484ZM43.2562 59.2088L45.5441 62.2542L48.5778 60.0639L47.0395 56.8037L43.2562 59.2088ZM15.3596 59.4079H18.1473V55.5036H15.3557L15.3596 59.4079ZM16.6129 49.0926H33.5617C33.8581 49.0924 34.1491 49.1717 34.4045 49.322C34.66 49.4724 34.8704 49.6884 35.0141 49.9477L40.0312 58.9824L41.3001 58.139L46.1923 55.0233L38.9458 39.6675H27.3577L17.4445 44.4543C17.3547 44.5011 17.2376 44.5597 17.1205 44.6104C16.0264 45.1024 14.836 45.343 13.6368 45.3147C12.4375 45.2863 11.2598 44.9896 10.1903 44.4465C10.642 45.7968 11.5065 46.971 12.6618 47.8033C13.8171 48.6356 15.2047 49.0839 16.6285 49.0848V51.037C14.3774 51.0353 12.2136 50.166 10.5869 48.6099C8.96026 47.0537 7.99595 44.9305 7.8945 42.6817C6.68199 41.3385 5.96196 39.6231 5.85252 37.8169V37.7817C5.85252 37.6282 5.85252 37.4759 5.85252 37.3249C5.85252 37.174 5.85252 37.0217 5.85252 36.8681V25.5065C5.85252 25.2956 5.85252 25.0848 5.87985 24.8779H5.57922C5.24174 24.8748 4.90699 24.9385 4.59427 25.0654C4.28154 25.1923 3.99703 25.3798 3.75712 25.6172C3.51721 25.8545 3.32666 26.137 3.19645 26.4484C3.06624 26.7598 2.99894 27.0938 2.99844 27.4313V43.1346C3.00154 45.8964 4.10002 48.5441 6.05288 50.497C8.00573 52.4498 10.6535 53.5483 13.4152 53.5514H29.8565C30.8677 53.5514 32.2264 52.2786 32.7574 51.037H16.609L16.6129 49.0926ZM59.1274 53.1493L61.0561 54.6173L66.5574 46.9413C65.6984 46.5821 64.5388 46.301 63.7775 46.793L61.0054 48.5695L59.1274 53.1493ZM53.837 49.1278L57.5149 51.9194L59.0532 48.1634L56.5544 45.895L53.837 49.1278ZM43.5334 44.8096L50.7213 49.7954L55.1137 44.5753L49.7999 39.6675H41.1049L43.5334 44.8096ZM7.78127 37.7232C7.84626 38.6967 8.14599 39.64 8.65482 40.4725C9.16366 41.305 9.86649 42.002 10.7032 42.5038C11.54 43.0056 12.4858 43.2974 13.4599 43.3542C14.4339 43.4111 15.4072 43.2312 16.2967 42.8301L26.7096 37.8091C26.8428 37.7468 26.9881 37.7148 27.1351 37.7154H32.0585L32.1639 37.1648L29.0405 34.2014C28.8903 34.0575 28.6901 33.9777 28.4821 33.9789H26.2137C26.1396 33.9775 26.0658 33.9881 25.9951 34.0101L15.4924 37.1883C15.2743 37.2541 15.0438 37.2679 14.8194 37.2287C14.595 37.1895 14.3829 37.0983 14.2 36.9625C14.0171 36.8267 13.8686 36.6499 13.7662 36.4464C13.6638 36.2429 13.6105 36.0183 13.6105 35.7905V35.1112H7.78127V37.7232ZM39.5627 37.7232H49.3743L52.0761 23.6909H36.7476L34.0458 37.7154L39.5627 37.7232ZM13.6027 30.7266H15.5548V35.1112L20.5446 33.6041L15.6095 28.6807C14.976 28.0521 14.4737 27.3038 14.1318 26.4794C13.79 25.655 13.6154 24.7708 13.6183 23.8783V20.3254H12.9623C11.8236 20.3255 10.7167 20.7007 9.81262 21.393C8.90857 22.0854 8.25777 23.0562 7.96087 24.1556C7.84245 24.5961 7.78207 25.0503 7.78127 25.5065V33.159H13.6027V30.7266ZM18.9282 15.9798C18.9354 16.9387 19.3233 17.8554 20.0064 18.5283C20.6896 19.2012 21.6121 19.5752 22.5709 19.5679C23.5298 19.5607 24.4465 19.1728 25.1194 18.4897C25.7923 17.8065 26.1663 16.8841 26.159 15.9252V12.3605H18.9282V15.9798ZM15.5704 18.3615H16.976V16.7607H16.6637C16.2928 16.7614 15.924 16.7048 15.5704 16.5928V18.3615ZM28.1112 14.8085H28.6188C29.0727 14.8075 29.5077 14.6265 29.8282 14.3051C30.1488 13.9838 30.3289 13.5484 30.3289 13.0945C30.3272 12.7057 30.1938 12.3289 29.9507 12.0255C29.7075 11.7221 29.3688 11.5099 28.9897 11.4235C28.8689 11.3985 28.746 11.3854 28.6227 11.3844H28.1151L28.1112 14.8085ZM16.6637 11.3844C16.4997 11.384 16.3366 11.4076 16.1795 11.4547C15.907 11.5362 15.6589 11.6837 15.4572 11.8842C15.2165 12.1229 15.0522 12.4278 14.9851 12.7601C14.918 13.0924 14.9512 13.4372 15.0805 13.7506C15.2098 14.064 15.4294 14.3319 15.7112 14.5203C15.9931 14.7087 16.3246 14.809 16.6637 14.8085H16.976V11.3844H16.6637ZM19.0063 10.4083H26.159V9.1238C26.1581 8.77887 26.0217 8.44812 25.7792 8.20276C25.5368 7.9574 25.2077 7.81706 24.8628 7.81194H22.1727C21.4271 7.81559 20.7054 8.07562 20.1289 8.54839C19.5523 9.02116 19.1559 9.67789 19.0063 10.4083ZM28.1268 9.43225H28.3767V8.95201C28.3767 7.39876 27.7597 5.90913 26.6614 4.81082C25.5631 3.71251 24.0734 3.09549 22.5202 3.09549C20.9669 3.09549 19.4773 3.71251 18.379 4.81082C17.2807 5.90913 16.6637 7.39876 16.6637 8.95201V9.43615H17.2064C17.55 8.39736 18.2121 7.49319 19.0987 6.85193C19.9852 6.21067 21.0512 5.86489 22.1454 5.86367H24.8628C25.7288 5.86367 26.5595 6.20743 27.1722 6.81945C27.7849 7.43146 28.1297 8.26167 28.1307 9.12771L28.1268 9.43225ZM41.8975 19.3337C41.3891 19.334 40.8871 19.2202 40.4285 19.0007C39.9699 18.7812 39.5665 18.4615 39.2479 18.0653C38.9294 17.669 38.7038 17.2063 38.5879 16.7113C38.472 16.2163 38.4687 15.7016 38.5782 15.2051C38.6877 14.7086 38.9073 14.2431 39.2207 13.8428C39.5342 13.4425 39.9335 13.1177 40.3892 12.8922C40.8449 12.6668 41.3454 12.5466 41.8537 12.5404C42.3621 12.5342 42.8654 12.6421 43.3265 12.8564V3.42345C43.3265 3.16458 43.4293 2.91631 43.6124 2.73325C43.7954 2.5502 44.0437 2.44736 44.3026 2.44736H52.2674C52.5263 2.44736 52.7746 2.5502 52.9576 2.73325C53.1407 2.91631 53.2435 3.16458 53.2435 3.42345V14.8085C53.2436 15.545 53.0045 16.2615 52.5623 16.8505C52.1202 17.4394 51.4988 17.8689 50.7915 18.0744C50.0843 18.2798 49.3295 18.2501 48.6406 17.9898C47.9517 17.7294 47.366 17.2525 46.9714 16.6306C46.5768 16.0088 46.3948 15.2757 46.4527 14.5415C46.5105 13.8073 46.8051 13.1118 47.2922 12.5594C47.7793 12.0071 48.4326 11.6278 49.1537 11.4785C49.8749 11.3293 50.625 11.4182 51.2913 11.7319V8.95201H45.2786V15.9408C45.2766 16.8407 44.9179 17.7031 44.2812 18.339C43.6446 18.975 42.7818 19.3326 41.8819 19.3337H41.8975ZM41.8975 14.4923C41.6118 14.4923 41.3325 14.577 41.0949 14.7357C40.8573 14.8945 40.6722 15.1201 40.5628 15.3841C40.4535 15.648 40.4249 15.9385 40.4806 16.2187C40.5364 16.499 40.674 16.7564 40.876 16.9584C41.078 17.1604 41.3354 17.298 41.6157 17.3537C41.8959 17.4095 42.1863 17.3809 42.4503 17.2715C42.7143 17.1622 42.9399 16.977 43.0986 16.7395C43.2574 16.5019 43.3421 16.2226 43.3421 15.9369C43.3421 15.7459 43.3042 15.5567 43.2307 15.3804C43.1571 15.2041 43.0493 15.0442 42.9135 14.9098C42.7777 14.7755 42.6166 14.6694 42.4395 14.5977C42.2624 14.5261 42.0729 14.4902 41.8819 14.4923H41.8975ZM49.8506 13.3522C49.564 13.3514 49.2836 13.4357 49.0448 13.5944C48.8061 13.7531 48.6198 13.9791 48.5096 14.2437C48.3994 14.5083 48.3701 14.7997 48.4256 15.0809C48.481 15.3622 48.6187 15.6206 48.8211 15.8236C49.0235 16.0266 49.2816 16.1649 49.5627 16.2211C49.8438 16.2773 50.1352 16.2489 50.4002 16.1393C50.6651 16.0298 50.8915 15.8442 51.0509 15.6059C51.2102 15.3676 51.2952 15.0874 51.2952 14.8007C51.2952 14.4172 51.1432 14.0494 50.8724 13.7779C50.6016 13.5063 50.2341 13.3532 49.8506 13.3522ZM45.2786 6.99984H51.2913V4.39954H45.2786V6.99984Z" fill="black"/>
<path d="M42.0147 31.7893C43.2481 31.7893 44.248 30.7895 44.248 29.556C44.248 28.3226 43.2481 27.3228 42.0147 27.3228C40.7813 27.3228 39.7814 28.3226 39.7814 29.556C39.7814 30.7895 40.7813 31.7893 42.0147 31.7893Z" fill="white"/>
<path d="M45.5364 68.0762C45.3647 68.0776 45.1958 68.0316 45.0484 67.9435C44.8252 67.8139 44.6613 67.6024 44.5916 67.3539L43.3969 62.8913L40.5662 59.1236L39.1841 60.045C39.0715 60.1184 38.945 60.168 38.8125 60.1907C38.68 60.2134 38.5442 60.2086 38.4136 60.1768C38.283 60.145 38.1603 60.0867 38.0531 60.0056C37.9459 59.9245 37.8564 59.8223 37.7902 59.7053L33.1518 51.3539C32.2187 52.9703 30.5281 54.3603 28.8102 54.3603H19.0493V58.2646H27.963C28.0913 58.2641 28.2184 58.289 28.3371 58.3379C28.4558 58.3867 28.5636 58.4586 28.6543 58.5494C28.745 58.6401 28.8169 58.7479 28.8658 58.8666C28.9147 58.9852 28.9396 59.1124 28.939 59.2407V62.4696C28.939 62.7285 28.8362 62.9767 28.6532 63.1598C28.4701 63.3428 28.2218 63.4457 27.963 63.4457H27.1821V64.6873C27.1522 65.5708 26.7802 66.4081 26.1446 67.0225C25.509 67.637 24.6596 67.9804 23.7755 67.9804C22.8915 67.9804 22.0421 67.637 21.4065 67.0225C20.7709 66.4081 20.3989 65.5708 20.369 64.6873V63.4457H11.3226V64.6873C11.2927 65.5708 10.9207 66.4081 10.2851 67.0225C9.64953 67.637 8.80009 67.9804 7.91607 67.9804C7.03205 67.9804 6.18261 67.637 5.54703 67.0225C4.91145 66.4081 4.53944 65.5708 4.50952 64.6873V63.4457H3.43973C3.18086 63.4457 2.93259 63.3428 2.74953 63.1598C2.56648 62.9767 2.46364 62.7285 2.46364 62.4696V59.2485C2.46313 59.1202 2.48802 58.993 2.53689 58.8744C2.58576 58.7557 2.65764 58.6479 2.74838 58.5572C2.83912 58.4664 2.94693 58.3945 3.06559 58.3457C3.18425 58.2968 3.31141 58.2719 3.43973 58.2724H12.3573V54.3681C9.07844 54.3619 5.93597 53.0553 3.61931 50.735C1.30266 48.4146 0.00102814 45.2701 0 41.9913L0 26.288C0.00206704 25.093 0.477964 23.9476 1.32333 23.1029C2.16869 22.2583 3.31452 21.7834 4.50952 21.7824H5.26697C5.78743 20.4442 6.69916 19.2941 7.8832 18.482C9.06724 17.6698 10.4686 17.2335 11.9044 17.2299H12.572V13.9737C12.1062 13.2712 11.8973 12.4294 11.9805 11.5907C12.0637 10.7519 12.434 9.96766 13.0288 9.37044C13.2294 9.17024 13.4521 8.99342 13.6926 8.84335V7.8087C13.6926 6.78325 13.8945 5.76784 14.287 4.82044C14.6794 3.87304 15.2546 3.01222 15.9797 2.28712C16.7048 1.56201 17.5656 0.986826 18.513 0.594402C19.4604 0.201978 20.4758 0 21.5013 0C22.5267 0 23.5421 0.201978 24.4895 0.594402C25.4369 0.986826 26.2977 1.56201 27.0228 2.28712C27.7479 3.01222 28.3231 3.87304 28.7156 4.82044C29.108 5.76784 29.31 6.78325 29.31 7.8087V8.73013C29.8896 9.0458 30.3739 9.51116 30.7124 10.0777C31.051 10.6442 31.2314 11.2912 31.2348 11.9512C31.2348 12.9229 30.8491 13.8548 30.1624 14.5422C29.4757 15.2297 28.5442 15.6164 27.5725 15.6174H27.0064C26.9221 16.1795 26.7536 16.7258 26.5066 17.2377H28.8922V19.1899H24.9215L24.8863 19.2172V20.5291H22.9342V20.1816C22.4651 20.3048 21.9823 20.3678 21.4974 20.369C20.1714 20.3702 18.8888 19.8965 17.8819 19.0337V20.5291C17.8819 21.2021 18.1493 21.8477 18.6252 22.3236C19.1012 22.7995 19.7467 23.0669 20.4198 23.0669C21.0928 23.0669 21.7383 22.7995 22.2143 22.3236C22.6902 21.8477 22.9576 21.2021 22.9576 20.5291H24.9098C24.9098 21.7199 24.4367 22.8619 23.5947 23.704C22.7526 24.546 21.6106 25.0191 20.4198 25.0191C19.2289 25.0191 18.0869 24.546 17.2448 23.704C16.4028 22.8619 15.9297 21.7199 15.9297 20.5291C15.9297 20.3924 15.9297 20.2519 15.9297 20.1191V19.1821H14.5242V22.735C14.5225 23.3711 14.6469 24.0012 14.8901 24.5889C15.1334 25.1766 15.4907 25.7103 15.9415 26.1591L21.6184 31.8322L24.3827 30.9966C24.6362 30.9217 24.8992 30.8836 25.1635 30.8834H27.4515C28.1649 30.8872 28.8491 31.167 29.3607 31.6643L31.5511 33.7609L33.718 22.5203C33.3463 21.5406 32.6859 20.6969 31.8242 20.1008C30.9624 19.5047 29.94 19.1843 28.8922 19.1821V17.2299C30.1038 17.2286 31.2957 17.5362 32.3553 18.1237C33.4149 18.7113 34.3072 19.5593 34.9478 20.5876H52.2207C52.3657 20.5869 52.509 20.6186 52.6401 20.6804C52.7713 20.7422 52.887 20.8326 52.9787 20.9449C53.0704 21.0572 53.1358 21.1886 53.1702 21.3294C53.2045 21.4703 53.2069 21.617 53.1772 21.7589L50.2021 37.2085L56.0821 42.6394L59.2836 45.5481L61.6887 44.002C64.086 42.4403 67.3657 44.5291 67.5062 44.615C67.6165 44.6881 67.7112 44.7824 67.7849 44.8923C67.8586 45.0022 67.9099 45.1255 67.9357 45.2553C67.9611 45.3848 67.9597 45.5182 67.9315 45.6472C67.9033 45.7761 67.8489 45.8979 67.7717 46.005L61.0289 55.4183C60.9528 55.524 60.8563 55.6134 60.7451 55.6812C60.6339 55.749 60.5102 55.7939 60.3814 55.8131C60.2526 55.8324 60.1213 55.8257 59.9951 55.7935C59.8689 55.7612 59.7505 55.704 59.6468 55.6253L51.5374 49.4798L50.6043 50.5887C50.4486 50.775 50.2289 50.8964 49.9883 50.9289C49.7477 50.9614 49.5036 50.9027 49.3041 50.7644L44.1621 47.1997L49.4174 58.3271L54.3954 58.9557C54.5125 58.9557 57.882 59.3461 59.0806 63.4535C59.118 63.5781 59.1299 63.7089 59.1158 63.8382C59.1017 63.9675 59.0618 64.0926 58.9985 64.2062C58.9351 64.3198 58.8496 64.4195 58.747 64.4995C58.6445 64.5794 58.5269 64.638 58.4013 64.6717L45.7746 68.0606C45.6962 68.0758 45.6162 68.0811 45.5364 68.0762ZM22.3173 63.4301V64.6717C22.3366 65.0443 22.4982 65.3954 22.7689 65.6524C23.0395 65.9093 23.3984 66.0526 23.7716 66.0526C24.1448 66.0526 24.5038 65.9093 24.7744 65.6524C25.045 65.3954 25.2067 65.0443 25.226 64.6717V63.4301H22.3173ZM6.47732 63.4301V64.6717C6.49663 65.0443 6.65829 65.3954 6.92892 65.6524C7.19955 65.9093 7.5585 66.0526 7.93169 66.0526C8.30488 66.0526 8.66383 65.9093 8.93446 65.6524C9.20509 65.3954 9.36674 65.0443 9.38606 64.6717V63.4301H6.47732ZM45.4076 62.86L46.2275 65.9132L56.8591 63.0592C55.8947 61.107 54.247 60.8922 54.169 60.8844L49.0152 60.2558L45.4076 62.86ZM26.2021 61.4857H26.983V60.2168H4.41582V61.4857H26.2021ZM42.2099 58.0655L44.4979 61.1109L47.5316 58.9205L45.9932 55.6604L42.2099 58.0655ZM14.3133 58.2646H17.1011V54.3603H14.3094L14.3133 58.2646ZM15.5666 47.9493H32.5154C32.8118 47.9491 33.1029 48.0284 33.3583 48.1787C33.6137 48.3291 33.8242 48.5451 33.9678 48.8044L38.9849 57.839L40.2538 56.9957L45.146 53.88L37.8995 38.5242H26.3114L16.3983 43.311C16.3085 43.3578 16.1913 43.4164 16.0742 43.4671C14.9801 43.9591 13.7898 44.1997 12.5905 44.1714C11.3912 44.143 10.2136 43.8463 9.14399 43.3032C9.5957 44.6535 10.4603 45.8277 11.6155 46.66C12.7708 47.4923 14.1584 47.9406 15.5823 47.9415V49.8937C13.3311 49.892 11.1673 49.0227 9.54065 47.4665C7.91399 45.9104 6.94969 43.7872 6.84823 41.5384C5.63572 40.1952 4.9157 38.4798 4.80626 36.6736V36.6384C4.80626 36.4848 4.80626 36.3326 4.80626 36.1816C4.80626 36.0306 4.80626 35.8784 4.80626 35.7248V24.3631C4.80626 24.1523 4.80625 23.9415 4.83359 23.7345H4.53295C4.19548 23.7315 3.86073 23.7952 3.548 23.9221C3.23528 24.049 2.95076 24.2365 2.71085 24.4739C2.47095 24.7112 2.2804 24.9937 2.15018 25.3051C2.01997 25.6164 1.95268 25.9505 1.95218 26.288V41.9913C1.95528 44.753 3.05375 47.4008 5.00661 49.3537C6.95947 51.3065 9.60722 52.405 12.369 52.4081H28.8102C29.8214 52.4081 31.1801 51.1353 31.7111 49.8937H15.5627L15.5666 47.9493ZM58.0811 52.0059L60.0099 53.474L65.5111 45.798C64.6521 45.4388 63.4925 45.1577 62.7312 45.6497L59.9591 47.4261L58.0811 52.0059ZM52.7907 47.9845L56.4686 50.7761L58.0069 47.0201L55.5081 44.7517L52.7907 47.9845ZM42.4871 43.6662L49.675 48.6521L54.0674 43.432L48.7536 38.5242H40.0586L42.4871 43.6662ZM6.735 36.5799C6.8 37.5534 7.09972 38.4967 7.60856 39.3292C8.1174 40.1617 8.82022 40.8587 9.65698 41.3605C10.4937 41.8623 11.4396 42.1541 12.4136 42.2109C13.3876 42.2677 14.361 42.0879 15.2504 41.6867L25.6633 36.6658C25.7965 36.6035 25.9418 36.5715 26.0889 36.572H31.0123L31.1177 36.0215L27.9942 33.0581C27.8441 32.9142 27.6438 32.8344 27.4359 32.8356H25.1674C25.0934 32.8342 25.0195 32.8448 24.9488 32.8668L14.4461 36.045C14.228 36.1107 13.9975 36.1246 13.7731 36.0854C13.5487 36.0462 13.3366 35.955 13.1537 35.8192C12.9709 35.6834 12.8223 35.5066 12.7199 35.3031C12.6176 35.0996 12.5642 34.875 12.5642 34.6472V33.9678H6.735V36.5799ZM38.5164 36.5799H48.328L51.0299 22.5476H35.7014L32.9996 36.572L38.5164 36.5799ZM12.5564 29.5833H14.5086V33.9678L19.4983 32.4608L14.5632 27.5374C13.9297 26.9088 13.4274 26.1605 13.0856 25.3361C12.7437 24.5117 12.5692 23.6275 12.572 22.735V19.1821H11.9161C10.7774 19.1822 9.67041 19.5574 8.76636 20.2497C7.8623 20.942 7.21151 21.9129 6.9146 23.0122C6.79618 23.4528 6.73581 23.9069 6.735 24.3631V32.0157H12.5564V29.5833ZM17.8819 14.8365C17.8892 15.7954 18.277 16.7121 18.9602 17.385C19.6433 18.0579 20.5658 18.4319 21.5247 18.4246C22.4836 18.4174 23.4003 18.0295 24.0732 17.3464C24.7461 16.6632 25.12 15.7407 25.1128 14.7819V11.2172H17.8819V14.8365ZM14.5242 17.2182H15.9297V15.6174H15.6174C15.2465 15.6181 14.8778 15.5615 14.5242 15.4495V17.2182ZM27.065 13.6652H27.5725C28.0264 13.6642 28.4614 13.4832 28.782 13.1618C29.1026 12.8405 29.2826 12.4051 29.2826 11.9512C29.2809 11.5624 29.1476 11.1856 28.9044 10.8822C28.6613 10.5787 28.3225 10.3666 27.9434 10.2802C27.8227 10.2552 27.6997 10.2421 27.5764 10.2411H27.0689L27.065 13.6652ZM15.6174 10.2411C15.4534 10.2407 15.2903 10.2643 15.1333 10.3114C14.8608 10.3928 14.6127 10.5404 14.411 10.7409C14.1702 10.9796 14.0059 11.2845 13.9388 11.6168C13.8718 11.9491 13.905 12.2939 14.0343 12.6073C14.1636 12.9207 14.3831 13.1886 14.665 13.377C14.9469 13.5653 15.2784 13.6657 15.6174 13.6652H15.9297V10.2411H15.6174ZM17.96 9.26502H25.1128V7.98049C25.1118 7.63556 24.9754 7.30481 24.733 7.05945C24.4905 6.81409 24.1614 6.67375 23.8165 6.66863H21.1264C20.3808 6.67228 19.6592 6.93231 19.0826 7.40508C18.506 7.87785 18.1097 8.53458 17.96 9.26502ZM27.0806 8.28893H27.3305V7.8087C27.3305 6.25545 26.7134 4.76582 25.6151 3.66751C24.5168 2.5692 23.0272 1.95218 21.4739 1.95218C19.9207 1.95218 18.431 2.5692 17.3327 3.66751C16.2344 4.76582 15.6174 6.25545 15.6174 7.8087V8.29284H16.1601C16.5038 7.25405 17.1659 6.34988 18.0524 5.70862C18.939 5.06735 20.0049 4.72158 21.0991 4.72036H23.8165C24.6826 4.72036 25.5132 5.06412 26.1259 5.67614C26.7387 6.28815 27.0834 7.11836 27.0845 7.9844L27.0806 8.28893ZM40.8512 18.1904C40.3428 18.1907 39.8408 18.0769 39.3822 17.8574C38.9237 17.6378 38.5202 17.3182 38.2017 16.922C37.8831 16.5257 37.6576 16.063 37.5416 15.568C37.4257 15.073 37.4224 14.5583 37.5319 14.0618C37.6415 13.5653 37.861 13.0998 38.1745 12.6995C38.4879 12.2992 38.8872 11.9743 39.3429 11.7489C39.7986 11.5235 40.2991 11.4033 40.8075 11.3971C41.3158 11.3908 41.8191 11.4988 42.2802 11.713V2.28014C42.2802 2.02127 42.383 1.77299 42.5661 1.58994C42.7491 1.40689 42.9974 1.30405 43.2563 1.30405H51.2212C51.48 1.30405 51.7283 1.40689 51.9114 1.58994C52.0944 1.77299 52.1973 2.02127 52.1973 2.28014V13.6652C52.1973 14.4017 51.9582 15.1182 51.5161 15.7072C51.0739 16.2961 50.4525 16.7256 49.7453 16.931C49.0381 17.1365 48.2833 17.1068 47.5944 16.8465C46.9055 16.5861 46.3197 16.1092 45.9251 15.4873C45.5306 14.8655 45.3485 14.1324 45.4064 13.3982C45.4642 12.664 45.7589 11.9685 46.246 11.4161C46.7331 10.8638 47.3863 10.4845 48.1075 10.3352C48.8286 10.186 49.5788 10.2749 50.2451 10.5886V7.8087H44.2324V14.7975C44.2303 15.6974 43.8717 16.5598 43.235 17.1957C42.5983 17.8317 41.7355 18.1893 40.8356 18.1904H40.8512ZM40.8512 13.349C40.5655 13.349 40.2862 13.4337 40.0486 13.5924C39.8111 13.7512 39.6259 13.9768 39.5166 14.2408C39.4072 14.5047 39.3786 14.7952 39.4344 15.0754C39.4901 15.3556 39.6277 15.613 39.8297 15.8151C40.0318 16.0171 40.2892 16.1547 40.5694 16.2104C40.8496 16.2662 41.1401 16.2376 41.404 16.1282C41.668 16.0189 41.8936 15.8337 42.0524 15.5962C42.2111 15.3586 42.2958 15.0793 42.2958 14.7936C42.2958 14.6026 42.258 14.4134 42.1844 14.2371C42.1108 14.0608 42.003 13.9009 41.8672 13.7665C41.7314 13.6322 41.5703 13.5261 41.3932 13.4544C41.2161 13.3827 41.0266 13.3469 40.8356 13.349H40.8512ZM48.8044 12.2089C48.5177 12.2081 48.2373 12.2924 47.9986 12.4511C47.7598 12.6098 47.5736 12.8358 47.4633 13.1004C47.3531 13.365 47.3239 13.6564 47.3793 13.9376C47.4348 14.2188 47.5724 14.4773 47.7748 14.6803C47.9773 14.8833 48.2354 15.0216 48.5164 15.0778C48.7975 15.134 49.089 15.1056 49.3539 14.996C49.6188 14.8865 49.8453 14.7009 50.0046 14.4626C50.1639 14.2243 50.249 13.9441 50.249 13.6574C50.249 13.2739 50.0969 12.9061 49.8261 12.6345C49.5553 12.363 49.1879 12.2099 48.8044 12.2089ZM44.2324 5.85652H50.2451V3.25623H44.2324V5.85652Z" fill="white"/>
</svg>
