<svg width="67" height="68" viewBox="0 0 67 68" fill="none" xmlns="http://www.w3.org/2000/svg">
<path d="M56.4023 67.3915C55.1356 67.3897 53.8925 67.0483 52.8027 66.4028L43.6865 61.0033C42.3938 61.608 40.9924 61.9457 39.5662 61.996C37.605 62.0444 36.3378 61.4391 34.7438 60.6724C33.6791 60.1483 32.5881 59.6796 31.475 59.268C30.6142 58.965 29.7283 58.7382 28.8278 58.59C27.8027 58.3721 26.2491 58.0412 23.7471 57.4803L21.0635 56.8992C17.4315 56.0921 15.7729 55.7208 15.1716 55.4827C14.7681 55.3253 14.3403 55.172 13.8964 55.0146C11.2047 54.0501 7.84318 52.8475 5.17168 48.9614C1.13618 43.1099 1.09986 35.6442 1.76976 30.4344C2.10874 27.7911 3.00865 20.842 8.30726 14.0583C9.87186 12.0593 11.6742 10.2583 13.6745 8.69517C16.2532 6.67742 25.6195 0.19641 38.0126 1.89132C41.1722 2.36327 44.2469 3.2903 47.1408 4.64353C50.7825 6.34327 54.1071 8.65249 56.9713 11.4716C57.5268 11.0851 58.2049 10.9161 58.8768 10.9968C59.5487 11.0775 60.1675 11.4021 60.6158 11.9091C61.064 12.4161 61.3104 13.0701 61.3081 13.7468C61.3057 14.4235 61.0549 15.0758 60.6033 15.5797C61.7604 17.0989 62.8082 18.6983 63.7388 20.3658C63.8649 20.5915 63.8992 20.857 63.8346 21.1073C63.77 21.3575 63.6114 21.5733 63.3918 21.7096L56.6848 25.8904C54.3486 27.714 52.3128 29.8928 50.6517 32.3472C50.4378 34.1551 50.1675 36.8549 50.0262 38.2754L56.8301 39.2842C59.2787 39.6371 61.5055 40.8969 63.0691 42.814C64.6327 44.7311 65.419 47.1657 65.2723 49.6353C65.2037 50.9872 65.0948 52.3068 64.9576 53.5659C65.5984 53.7392 66.1554 54.1374 66.5269 54.6876C66.8983 55.2379 67.0593 55.9034 66.9805 56.5626C66.9016 57.2217 66.5882 57.8305 66.0975 58.2776C65.6067 58.7247 64.9715 58.9803 64.3078 58.9976H64.0738C63.7929 60.2646 63.4413 61.5149 63.0205 62.7426C62.683 63.7155 62.1326 64.6009 61.4093 65.334C60.686 66.067 59.8081 66.6293 58.8397 66.9798C58.0577 67.259 57.2326 67.3983 56.4023 67.3915ZM44.2232 58.9936L53.8156 64.6715C54.4594 65.0553 55.1807 65.2907 55.9269 65.3605C56.6732 65.4303 57.4257 65.3328 58.1295 65.0751C58.817 64.8264 59.4404 64.4275 59.9542 63.9074C60.468 63.3873 60.8593 62.7591 61.0996 62.0686C61.4873 60.9377 61.8107 59.7858 62.0681 58.6183L60.4539 58.3277C60.078 59.7838 59.5364 61.192 58.8397 62.5247C58.6521 62.8727 58.3959 63.179 58.0865 63.4253C57.7772 63.6715 57.4212 63.8525 57.0399 63.9573C56.6523 64.0644 56.2472 64.0936 55.8482 64.043C55.4491 63.9924 55.0641 63.8632 54.7155 63.6627L45.4096 58.2591H45.3854L43.2103 56.996C42.2194 56.4212 41.3157 55.7078 40.5267 54.8774L40.3895 54.7361L38.7188 54.4375C38.7654 54.8699 38.9123 55.2854 39.1477 55.6511C39.383 56.0168 39.7005 56.3225 40.0747 56.544L44.2232 58.9734V58.9936ZM47.1207 56.9194L55.7082 61.9072C55.8231 61.9755 55.9509 62.0193 56.0835 62.036C56.2161 62.0526 56.3507 62.0418 56.479 62.0041C56.5996 61.9716 56.7125 61.9153 56.811 61.8383C56.9094 61.7614 56.9914 61.6654 57.052 61.5561C57.6464 60.4117 58.1146 59.2061 58.4483 57.9605L47.3386 55.967C47.2942 56.3019 47.2216 56.6207 47.1368 56.9194H47.1207ZM33.8842 3.63062C24.199 3.63062 17.0481 8.59831 14.9174 10.2811C13.0409 11.7437 11.3497 13.4295 9.8811 15.3013C4.94166 21.6451 4.09017 28.1987 3.77136 30.6684C3.14586 35.5393 3.16604 42.4642 6.8343 47.7951C9.14664 51.1607 12.032 52.1938 14.5784 53.1058C15.0385 53.2713 15.4864 53.4327 15.9142 53.5981C16.3419 53.7636 18.4081 54.2317 21.5033 54.9218L24.1869 55.519C26.6809 56.08 28.2224 56.4068 29.2515 56.6248C30.2423 56.7935 31.217 57.046 32.1651 57.3794C33.3403 57.8124 34.492 58.3068 35.6155 58.8604C37.1288 59.5868 38.0368 60.0226 39.5178 59.9863C40.1709 59.9584 40.819 59.8597 41.4508 59.6917L39.0295 58.2591C38.277 57.8132 37.66 57.1708 37.2448 56.4009C36.8296 55.6309 36.6319 54.7625 36.6728 53.8887V53.812C34.7212 52.9728 33.1128 51.4953 32.1112 49.6219C31.1096 47.7485 30.7743 45.5903 31.1603 43.5013L33.0489 33.3036C33.3338 31.7569 34.1538 30.3598 35.3653 29.3569L55.3894 12.771C52.7253 10.1707 49.6438 8.03591 46.2732 6.45547C43.5627 5.18967 40.6819 4.32639 37.722 3.89293C36.4502 3.7178 35.168 3.63016 33.8842 3.63062ZM63.5088 56.8185L64.3159 56.9597C64.4134 56.9573 64.5095 56.9358 64.5987 56.8962C64.6879 56.8567 64.7684 56.8 64.8356 56.7294C64.9029 56.6587 64.9556 56.5756 64.9907 56.4846C65.0258 56.3936 65.0427 56.2965 65.0403 56.199C65.0379 56.1015 65.0163 56.0054 64.9768 55.9162C64.9373 55.8271 64.8806 55.7465 64.81 55.6793C64.7393 55.612 64.6561 55.5593 64.5651 55.5242C64.4741 55.4891 64.3771 55.4723 64.2796 55.4746C64.2084 55.4807 64.1369 55.4807 64.0657 55.4746L63.6622 55.402H63.6258L46.3378 52.2382C46.2982 52.2357 46.2589 52.229 46.2208 52.218L39.3887 50.971C37.8631 50.6995 36.5052 49.8399 35.6071 48.5773C34.709 47.3146 34.3424 45.7498 34.5864 44.2196L35.6599 37.2584C35.6599 37.2584 35.6599 37.2221 35.6599 37.206V37.1454L35.9908 34.9824C36.2043 33.5966 36.923 32.3388 38.0085 31.4513L58.8882 14.3973L58.9245 14.365C59.0165 14.297 59.0912 14.2082 59.1424 14.1058C59.1936 14.0034 59.2199 13.8903 59.2191 13.7759C59.2191 13.5779 59.1404 13.388 59.0004 13.248C58.8604 13.1079 58.6705 13.0293 58.4725 13.0293C58.3727 13.029 58.2739 13.0492 58.1822 13.0888C58.0906 13.1284 58.0081 13.1864 57.9398 13.2593C57.9082 13.2923 57.8745 13.3233 57.8389 13.3521L36.6526 30.9065C35.8104 31.6113 35.2397 32.5872 35.0384 33.6668L33.1498 43.8645C32.8282 45.5973 33.1404 47.3879 34.0294 48.9096C34.9184 50.4314 36.325 51.5826 37.9924 52.1534L38.061 52.1776C38.3903 52.2832 38.7259 52.3681 39.0658 52.4319L59.8083 56.1526L59.9374 56.1768L63.3999 56.7983H63.4604L63.5088 56.8185ZM44.655 55.4827L45.3208 55.8661C45.3208 55.7854 45.3531 55.6966 45.3693 55.6119L44.655 55.4827ZM61.4628 52.9323L62.964 53.2067C63.0932 52.0203 63.19 50.7854 63.2586 49.5142C63.3677 47.5518 62.7382 45.6196 61.4938 44.0981C60.2495 42.5767 58.4806 41.5763 56.5355 41.2939L48.8277 40.1519H48.7349L45.2926 39.6394H45.1957L37.5283 38.5054L37.3346 39.7443L46.4346 41.1486L56.3297 42.6539C57.8988 42.8904 59.3235 43.7033 60.3256 44.9337C61.3277 46.1641 61.8353 47.7239 61.7493 49.3084C61.6969 50.5513 61.596 51.766 61.4628 52.9323ZM47.4516 50.3657L59.4935 52.5691C59.6146 51.4876 59.7074 50.3617 59.7679 49.2075C59.8263 48.122 59.4784 47.0536 58.7921 46.2106C58.1057 45.3676 57.1301 44.8103 56.0553 44.6474L47.2377 43.2874C47.1687 45.3832 47.2226 47.4812 47.3991 49.5707C47.3951 49.8371 47.4153 50.1034 47.4516 50.3657ZM37.0239 41.7136L36.5921 44.5062C36.4371 45.5136 36.682 46.5418 37.2747 47.3712C37.8673 48.2005 38.7606 48.7654 39.764 48.9452L45.3854 49.9743C45.3854 49.8774 45.3854 49.7806 45.3854 49.6837C45.1969 47.4466 45.1457 45.2 45.2321 42.9565L37.0239 41.7136ZM46.4952 37.7669L48.0287 37.9929C48.178 36.4755 48.4605 33.6709 48.6622 31.8791C48.7833 30.8783 47.5847 28.7475 46.4508 27.1495L45.5831 27.8597C46.3902 28.7677 47.3668 30.3335 47.1207 32.2463C46.8705 34.3367 46.6445 36.5441 46.4952 37.7669ZM37.831 36.4876L44.4976 37.4723C44.6308 36.2253 44.8729 34.0502 45.1352 32.0002C45.2886 30.7895 44.5783 29.7524 44.0335 29.143L39.3201 32.9929C38.6208 33.5652 38.158 34.3759 38.0206 35.2689L37.831 36.4876ZM48.0327 25.8783C48.8803 27.0253 49.599 28.2623 50.1755 29.5668C51.7274 27.6023 53.5044 25.8266 55.4701 24.2762C55.5 24.2501 55.5324 24.2272 55.567 24.2076L61.479 20.5151C60.7422 19.259 59.9338 18.0464 59.0577 16.8832L48.0327 25.8783ZM20.6882 41.0437C19.8587 41.0437 19.0479 40.7977 18.3583 40.3368C17.6687 39.8759 17.1313 39.2208 16.8141 38.4544C16.4968 37.6881 16.414 36.8448 16.5761 36.0314C16.7383 35.2179 17.138 34.4708 17.7248 33.8846C18.3116 33.2984 19.059 32.8993 19.8727 32.738C20.6863 32.5767 21.5294 32.6603 22.2955 32.9783C23.0616 33.2962 23.7161 33.8343 24.1764 34.5243C24.6366 35.2144 24.8818 36.0254 24.881 36.8549C24.8789 37.9659 24.4363 39.0307 23.6504 39.8159C22.8644 40.6011 21.7992 41.0426 20.6882 41.0437ZM20.6882 34.6797C20.258 34.6797 19.8374 34.8073 19.4797 35.0463C19.122 35.2853 18.8432 35.625 18.6786 36.0225C18.514 36.4199 18.4709 36.8573 18.5548 37.2792C18.6388 37.7011 18.8459 38.0887 19.1501 38.3929C19.4543 38.6971 19.8419 38.9043 20.2638 38.9882C20.6858 39.0721 21.1231 39.0291 21.5206 38.8644C21.918 38.6998 22.2577 38.421 22.4967 38.0633C22.7357 37.7056 22.8633 37.2851 22.8633 36.8549C22.8622 36.2783 22.6327 35.7257 22.225 35.318C21.8174 34.9103 21.2647 34.6808 20.6882 34.6797ZM42.6614 8.49743C42.5035 8.49709 42.3476 8.46123 42.2054 8.3925C41.6405 8.11079 41.0483 7.88767 40.4379 7.72665C39.8279 7.56812 39.2031 7.47345 38.5735 7.44416C38.3059 7.43132 38.0544 7.31271 37.8743 7.11443C37.6942 6.91615 37.6002 6.65443 37.613 6.38686C37.6259 6.11929 37.7445 5.86778 37.9428 5.68766C38.1411 5.50754 38.4028 5.41357 38.6703 5.42641C39.439 5.46308 40.2017 5.57938 40.9464 5.77347C41.6917 5.9682 42.4151 6.23864 43.1054 6.58057C43.3096 6.68177 43.4735 6.84914 43.5704 7.05542C43.6674 7.26169 43.6916 7.49471 43.6392 7.71652C43.5868 7.93833 43.4608 8.13586 43.2818 8.27693C43.1028 8.418 42.8813 8.49429 42.6534 8.49339L42.6614 8.49743Z" fill="black"/>
<path d="M54.957 65.7798C53.6903 65.778 52.4472 65.4366 51.3573 64.7911L42.2411 59.3916C40.9485 59.9963 39.5471 60.334 38.1209 60.3843C36.1597 60.4327 34.8925 59.8274 33.2985 59.0607C32.2338 58.5366 31.1428 58.0679 30.0297 57.6563C29.1688 57.3533 28.283 57.1265 27.3824 56.9784C26.3574 56.7604 24.8038 56.4295 22.3018 55.8686L19.6182 55.2875C15.9862 54.4804 14.3276 54.1091 13.7263 53.871C13.3228 53.7136 12.895 53.5603 12.4511 53.4029C9.75943 52.4384 6.39786 51.2358 3.72637 47.3497C-0.309131 41.4982 -0.34545 34.0325 0.324443 28.8227C0.663424 26.1794 1.56334 19.2303 6.86195 12.4466C8.42655 10.4476 10.2289 8.64657 12.2292 7.08347C14.8078 5.06572 24.1742 -1.41528 36.5672 0.279624C39.7269 0.75158 42.8016 1.6786 45.6955 3.03183C49.3372 4.73158 52.6618 7.0408 55.526 9.85989C56.0815 9.4734 56.7596 9.30443 57.4315 9.3851C58.1034 9.46576 58.7222 9.79043 59.1705 10.2974C59.6187 10.8044 59.865 11.4584 59.8627 12.1351C59.8604 12.8118 59.6096 13.4641 59.1579 13.968C60.3151 15.4872 61.3629 17.0866 62.2935 18.7541C62.4196 18.9798 62.4539 19.2453 62.3893 19.4956C62.3246 19.7458 62.1661 19.9616 61.9465 20.0979L55.2395 24.2787C52.9033 26.1024 50.8675 28.2811 49.2064 30.7355C48.9925 32.5434 48.7222 35.2432 48.5809 36.6637L55.3848 37.6725C57.8334 38.0254 60.0601 39.2852 61.6238 41.2023C63.1874 43.1194 63.9737 45.554 63.827 48.0236C63.7584 49.3755 63.6495 50.6951 63.5122 51.9542C64.1531 52.1275 64.7101 52.5257 65.0816 53.0759C65.453 53.6262 65.614 54.2917 65.5352 54.9509C65.4563 55.61 65.1429 56.2188 64.6521 56.6659C64.1614 57.113 63.5262 57.3686 62.8625 57.3859H62.6285C62.3476 58.6529 61.996 59.9032 61.5752 61.1309C61.2377 62.1039 60.6873 62.9892 59.964 63.7223C59.2407 64.4553 58.3628 65.0176 57.3944 65.3681C56.6124 65.6473 55.7873 65.7866 54.957 65.7798ZM42.7779 57.3819L52.3702 63.0598C53.0141 63.4436 53.7354 63.679 54.4816 63.7488C55.2279 63.8186 55.9804 63.7211 56.6842 63.4634C57.3717 63.2147 57.9951 62.8158 58.5089 62.2957C59.0227 61.7756 59.414 61.1474 59.6543 60.457C60.042 59.326 60.3654 58.1741 60.6228 57.0066L59.0086 56.716C58.6327 58.1721 58.0911 59.5803 57.3944 60.913C57.2068 61.261 56.9506 61.5673 56.6412 61.8136C56.3319 62.0598 55.9758 62.2408 55.5946 62.3456C55.2069 62.4527 54.8019 62.4819 54.4028 62.4313C54.0038 62.3807 53.6188 62.2515 53.2702 62.051L43.9643 56.6474H43.9401L41.765 55.3843C40.7741 54.8095 39.8704 54.0961 39.0814 53.2657L38.9441 53.1245L37.2735 52.8258C37.3201 53.2582 37.467 53.6737 37.7023 54.0394C37.9377 54.4051 38.2551 54.7108 38.6294 54.9324L42.7779 57.3617V57.3819ZM45.6754 55.3077L54.2629 60.2955C54.3778 60.3638 54.5056 60.4076 54.6382 60.4243C54.7708 60.4409 54.9054 60.4301 55.0337 60.3924C55.1543 60.3599 55.2672 60.3036 55.3657 60.2266C55.4641 60.1497 55.5461 60.0537 55.6067 59.9444C56.2011 58.8001 56.6693 57.5944 57.003 56.3488L45.8933 54.3553C45.8489 54.6902 45.7762 55.009 45.6915 55.3077H45.6754ZM32.4389 2.01892C22.7537 2.01892 15.6028 6.98662 13.4721 8.66942C11.5956 10.132 9.90435 11.8178 8.43579 13.6896C3.49634 20.0334 2.64485 26.587 2.32605 29.0568C1.70055 33.9276 1.72072 40.8525 5.38899 46.1834C7.70133 49.549 10.5867 50.5821 13.1331 51.4941C13.5932 51.6596 14.0411 51.821 14.4689 51.9864C14.8966 52.1519 16.9628 52.62 20.058 53.3101L22.7416 53.9073C25.2356 54.4683 26.7771 54.7952 27.8062 55.0131C28.797 55.1818 29.7717 55.4343 30.7198 55.7677C31.895 56.2007 33.0467 56.6951 34.1702 57.2487C35.6835 57.9751 36.5914 58.411 38.0725 58.3746C38.7256 58.3467 39.3737 58.248 40.0055 58.08L37.5842 56.6474C36.8316 56.2015 36.2147 55.5591 35.7995 54.7892C35.3843 54.0192 35.1866 53.1508 35.2275 52.277V52.2003C33.2759 51.3611 31.6675 49.8836 30.6659 48.0102C29.6643 46.1368 29.329 43.9786 29.715 41.8896L31.6036 31.6919C31.8885 30.1452 32.7085 28.7481 33.92 27.7452L53.9441 11.1593C51.28 8.55904 48.1985 6.42421 44.8279 4.84377C42.1174 3.57798 39.2366 2.7147 36.2767 2.28123C35.0049 2.10611 33.7227 2.01846 32.4389 2.01892ZM62.0635 55.2068L62.8706 55.348C62.9681 55.3456 63.0642 55.3241 63.1534 55.2845C63.2425 55.245 63.3231 55.1883 63.3903 55.1177C63.4576 55.0471 63.5103 54.9639 63.5454 54.8729C63.5805 54.7819 63.5974 54.6848 63.595 54.5873C63.5926 54.4898 63.571 54.3937 63.5315 54.3046C63.492 54.2154 63.4353 54.1349 63.3647 54.0676C63.294 54.0003 63.2108 53.9476 63.1198 53.9125C63.0288 53.8774 62.9318 53.8606 62.8343 53.8629C62.7631 53.869 62.6916 53.869 62.6204 53.8629L62.2169 53.7903H62.1805L44.8925 50.6265C44.8528 50.624 44.8136 50.6173 44.7754 50.6063L37.9433 49.3593C36.4178 49.0878 35.0599 48.2282 34.1618 46.9656C33.2636 45.7029 32.8971 44.1381 33.1411 42.608L34.2145 35.6467C34.2145 35.6467 34.2145 35.6104 34.2145 35.5943V35.5337L34.5455 33.3707C34.759 31.9849 35.4777 30.7271 36.5632 29.8396L57.4429 12.7856L57.4792 12.7533C57.5712 12.6853 57.6459 12.5965 57.6971 12.4941C57.7483 12.3917 57.7746 12.2786 57.7738 12.1642C57.7738 11.9662 57.6951 11.7763 57.5551 11.6363C57.4151 11.4963 57.2252 11.4176 57.0272 11.4176C56.9274 11.4173 56.8286 11.4375 56.7369 11.4771C56.6452 11.5167 56.5627 11.5747 56.4945 11.6476C56.4629 11.6806 56.4292 11.7116 56.3936 11.7404L35.2073 29.2948C34.3651 29.9996 33.7944 30.9755 33.5931 32.0551L31.7045 42.2528C31.3829 43.9856 31.6951 45.7762 32.5841 47.298C33.4731 48.8197 34.8797 49.971 36.5471 50.5417L36.6157 50.566C36.945 50.6715 37.2806 50.7564 37.6205 50.8202L58.363 54.5409L58.4921 54.5651L61.9545 55.1866H62.0151L62.0635 55.2068ZM43.2097 53.871L43.8755 54.2544C43.8755 54.1737 43.9078 54.0849 43.924 54.0002L43.2097 53.871ZM60.0175 51.3206L61.5187 51.595C61.6479 50.4086 61.7447 49.1737 61.8133 47.9025C61.9224 45.9401 61.2928 44.0079 60.0485 42.4864C58.8042 40.965 57.0353 39.9646 55.0902 39.6822L47.3824 38.5402H47.2896L43.8473 38.0277H43.7504L36.083 36.8937L35.8893 38.1326L44.9893 39.5369L54.8844 41.0422C56.4535 41.2787 57.8782 42.0916 58.8803 43.322C59.8824 44.5524 60.39 46.1122 60.304 47.6967C60.2516 48.9396 60.1507 50.1543 60.0175 51.3206ZM46.0063 48.754L58.0482 50.9574C58.1693 49.8759 58.2621 48.75 58.3226 47.5958C58.381 46.5103 58.0331 45.4419 57.3468 44.5989C56.6604 43.7559 55.6848 43.1986 54.6099 43.0357L45.7924 41.6758C45.7234 43.7715 45.7773 45.8695 45.9538 47.959C45.9498 48.2254 45.9699 48.4917 46.0063 48.754ZM35.5785 40.1019L35.1467 42.8945C34.9918 43.902 35.2367 44.9301 35.8293 45.7595C36.422 46.5888 37.3153 47.1537 38.3186 47.3335L43.9401 48.3626C43.9401 48.2657 43.9401 48.1689 43.9401 48.072C43.7516 45.8349 43.7004 43.5883 43.7867 41.3448L35.5785 40.1019ZM45.0499 36.1552L46.5833 36.3812C46.7327 34.8638 47.0151 32.0592 47.2169 30.2674C47.338 29.2666 46.1394 27.1359 45.0055 25.5378L44.1378 26.248C44.9449 27.156 45.9215 28.7218 45.6754 30.6346C45.4252 32.725 45.1992 34.9324 45.0499 36.1552ZM36.3856 34.8759L43.0523 35.8606C43.1855 34.6136 43.4276 32.4385 43.6899 30.3885C43.8432 29.1778 43.133 28.1407 42.5882 27.5313L37.8747 31.3812C37.1755 31.9535 36.7127 32.7642 36.5753 33.6572L36.3856 34.8759ZM46.5874 24.2666C47.435 25.4136 48.1536 26.6506 48.7302 27.9551C50.2821 25.9906 52.0591 24.2149 54.0248 22.6645C54.0547 22.6385 54.0871 22.6155 54.1216 22.5959L60.0336 18.9034C59.2969 17.6473 58.4884 16.4347 57.6124 15.2715L46.5874 24.2666ZM19.2429 39.432C18.4134 39.432 17.6026 39.186 16.913 38.7251C16.2234 38.2642 15.686 37.6091 15.3687 36.8427C15.0515 36.0764 14.9687 35.2331 15.1308 34.4197C15.2929 33.6062 15.6927 32.8591 16.2795 32.2729C16.8663 31.6867 17.6137 31.2877 18.4273 31.1263C19.2409 30.965 20.0841 31.0486 20.8502 31.3666C21.6163 31.6845 22.2708 32.2226 22.7311 32.9126C23.1913 33.6027 23.4365 34.4137 23.4357 35.2432C23.4336 36.3542 22.991 37.419 22.2051 38.2042C21.4191 38.9894 20.3538 39.4309 19.2429 39.432ZM19.2429 33.068C18.8127 33.068 18.3921 33.1956 18.0344 33.4346C17.6767 33.6736 17.3979 34.0133 17.2333 34.4108C17.0687 34.8082 17.0256 35.2456 17.1095 35.6675C17.1934 36.0895 17.4006 36.477 17.7048 36.7812C18.009 37.0854 18.3966 37.2926 18.8185 37.3765C19.2404 37.4604 19.6778 37.4174 20.0752 37.2527C20.4727 37.0881 20.8124 36.8093 21.0514 36.4516C21.2904 36.0939 21.418 35.6734 21.418 35.2432C21.4169 34.6666 21.1874 34.114 20.7797 33.7063C20.372 33.2986 19.8194 33.0691 19.2429 33.068ZM41.2161 6.88573C41.0582 6.88539 40.9023 6.84953 40.7601 6.78081C40.1952 6.4991 39.6029 6.27598 38.9926 6.11495C38.3826 5.95642 37.7578 5.86175 37.1282 5.83247C36.8606 5.81962 36.6091 5.70102 36.429 5.50273C36.2489 5.30445 36.1549 5.04274 36.1677 4.77517C36.1806 4.5076 36.2992 4.25609 36.4975 4.07597C36.6957 3.89585 36.9575 3.80188 37.225 3.81472C37.9937 3.85138 38.7564 3.96769 39.501 4.16177C40.2463 4.35651 40.9698 4.62695 41.66 4.96887C41.8643 5.07008 42.0282 5.23745 42.1251 5.44372C42.2221 5.64999 42.2463 5.88302 42.1939 6.10483C42.1415 6.32664 42.0155 6.52416 41.8365 6.66523C41.6575 6.8063 41.436 6.8826 41.2081 6.8817L41.2161 6.88573Z" fill="white"/>
</svg>
