<svg width="65" height="64" viewBox="0 0 65 64" fill="none" xmlns="http://www.w3.org/2000/svg">
<path d="M13.3592 63.3947H6.72407C6.49179 63.3947 6.26903 63.3024 6.10478 63.1382C5.94054 62.9739 5.84827 62.7512 5.84827 62.5189V3.75601C5.85012 3.00586 6.14893 2.28696 6.67937 1.75652C7.20981 1.22608 7.92871 0.927265 8.67886 0.925415L11.4009 0.925415C12.1516 0.92634 12.8714 1.22475 13.4026 1.75529C13.9338 2.28583 14.2331 3.00525 14.235 3.75601V62.5189C14.235 62.7512 14.1427 62.9739 13.9784 63.1382C13.8142 63.3024 13.5914 63.3947 13.3592 63.3947ZM7.59987 61.6431H12.4833V3.75601C12.4824 3.46952 12.368 3.19509 12.1651 2.99284C11.9622 2.79059 11.6873 2.67702 11.4009 2.67702H8.67886C8.3927 2.67702 8.11825 2.7907 7.9159 2.99305C7.71355 3.1954 7.59987 3.46984 7.59987 3.75601V61.6431Z" fill="black"/>
<path d="M6.72409 14.7104H1.53584C1.30356 14.7104 1.0808 14.6181 0.916551 14.4539C0.752306 14.2897 0.660034 14.0669 0.660034 13.8346V7.19953C0.660034 6.96726 0.752306 6.74449 0.916551 6.58025C1.0808 6.416 1.30356 6.32373 1.53584 6.32373H6.72409V8.07534H2.41164V12.9588H6.72409V14.7104Z" fill="black"/>
<path d="M62.5232 14.7104H13.3591V12.9588H62.5232C62.7159 12.9579 62.9003 12.8807 63.0362 12.7442C63.1721 12.6076 63.2484 12.4228 63.2484 12.2301V8.8005C63.2484 8.60818 63.172 8.42373 63.036 8.28773C62.9 8.15174 62.7155 8.07534 62.5232 8.07534H13.3591V6.32373H62.5232C63.1798 6.32466 63.8092 6.5859 64.2735 7.05018C64.7378 7.51447 64.9991 8.14391 65 8.8005V12.2301C65 12.8873 64.7392 13.5177 64.2748 13.9827C63.8104 14.4478 63.1804 14.7095 62.5232 14.7104Z" fill="black"/>
<path d="M50.756 53.2739H22.9229C21.6649 53.273 20.4586 52.773 19.5687 51.8838C18.6788 50.9945 18.1779 49.7886 18.1761 48.5305V26.166C18.177 24.9074 18.6774 23.7005 19.5674 22.8105C20.4574 21.9205 21.6643 21.4201 22.9229 21.4192H30.7877C31.0199 21.4192 31.2427 21.5115 31.4069 21.6757C31.5712 21.84 31.6635 22.0627 31.6635 22.295C31.6635 22.5273 31.5712 22.75 31.4069 22.9143C31.2427 23.0785 31.0199 23.1708 30.7877 23.1708H22.9229C22.1286 23.1708 21.3667 23.4864 20.805 24.0481C20.2433 24.6098 19.9277 25.3717 19.9277 26.166V48.5305C19.9286 49.3237 20.2441 50.0841 20.805 50.645C21.3658 51.2059 22.1263 51.5214 22.9194 51.5223H50.756C50.9882 51.5223 51.211 51.6146 51.3752 51.7788C51.5395 51.9431 51.6318 52.1658 51.6318 52.3981C51.6318 52.6304 51.5395 52.8531 51.3752 53.0174C51.211 53.1816 50.9882 53.2739 50.756 53.2739Z" fill="black"/>
<path d="M59.2372 53.2739H54.4799C54.2476 53.2739 54.0248 53.1816 53.8606 53.0174C53.6963 52.8531 53.6041 52.6304 53.6041 52.3981C53.6041 52.1658 53.6963 51.9431 53.8606 51.7788C54.0248 51.6146 54.2476 51.5223 54.4799 51.5223H59.2372C60.0304 51.5214 60.7908 51.2059 61.3517 50.645C61.9125 50.0841 62.228 49.3237 62.229 48.5305V26.166C62.229 25.3723 61.9139 24.6109 61.3529 24.0493C60.792 23.4877 60.031 23.1717 59.2372 23.1708H34.6166C34.3844 23.1708 34.1616 23.0785 33.9974 22.9143C33.8331 22.75 33.7408 22.5273 33.7408 22.295C33.7408 22.0627 33.8331 21.84 33.9974 21.6757C34.1616 21.5115 34.3844 21.4192 34.6166 21.4192H59.2372C60.495 21.422 61.7004 21.9231 62.5894 22.8128C63.4785 23.7025 63.9787 24.9083 63.9806 26.166V48.5305C63.9787 49.788 63.4784 50.9934 62.5892 51.8826C61.7001 52.7717 60.4947 53.272 59.2372 53.2739Z" fill="black"/>
<path d="M24.8322 23.1708C24.717 23.1713 24.6029 23.149 24.4965 23.1051C24.39 23.0613 24.2933 22.9968 24.2119 22.9154C24.1304 22.8339 24.0659 22.7372 24.0221 22.6307C23.9782 22.5243 23.9559 22.4102 23.9564 22.295V13.8348C23.9564 13.6025 24.0486 13.3797 24.2129 13.2155C24.3771 13.0513 24.5999 12.959 24.8322 12.959C25.0644 12.959 25.2872 13.0513 25.4515 13.2155C25.6157 13.3797 25.708 13.6025 25.708 13.8348V22.295C25.708 22.5273 25.6157 22.7501 25.4515 22.9143C25.2872 23.0786 25.0644 23.1708 24.8322 23.1708Z" fill="black"/>
<path d="M57.2369 23.1708C57.0046 23.1708 56.7818 23.0786 56.6176 22.9143C56.4534 22.7501 56.3611 22.5273 56.3611 22.295V13.8348C56.3611 13.6025 56.4534 13.3797 56.6176 13.2155C56.7818 13.0513 57.0046 12.959 57.2369 12.959C57.4692 12.959 57.6919 13.0513 57.8562 13.2155C58.0204 13.3797 58.1127 13.6025 58.1127 13.8348V22.295C58.1127 22.5273 58.0204 22.7501 57.8562 22.9143C57.6919 23.0786 57.4692 23.1708 57.2369 23.1708Z" fill="black"/>
<path d="M57.6608 48.0856H24.4118C24.1795 48.0856 23.9568 47.9934 23.7925 47.8291C23.6283 47.6649 23.536 47.4421 23.536 47.2098V27.8231C23.536 27.5908 23.6283 27.368 23.7925 27.2038C23.9568 27.0395 24.1795 26.9473 24.4118 26.9473H57.6608C57.8931 26.9473 58.1158 27.0395 58.2801 27.2038C58.4443 27.368 58.5366 27.5908 58.5366 27.8231V47.2098C58.5366 47.4421 58.4443 47.6649 58.2801 47.8291C58.1158 47.9934 57.8931 48.0856 57.6608 48.0856ZM25.2876 46.334H56.785V28.6989H25.2876V46.334Z" fill="black"/>
<path d="M30.5249 37.986H30.0554V40.5118C30.0751 40.7685 30.0099 41.0245 29.8698 41.2404C29.814 41.3156 29.7409 41.3761 29.6568 41.417C29.5726 41.4579 29.4798 41.4778 29.3863 41.4752C29.29 41.4793 29.1942 41.459 29.1078 41.4161C29.0214 41.3732 28.9473 41.3092 28.8924 41.2299C28.7654 41.0191 28.7044 40.7751 28.7172 40.5293V34.4862C28.6944 34.225 28.7625 33.9639 28.9099 33.7471C28.9897 33.6625 29.0874 33.5968 29.196 33.555C29.3045 33.5131 29.421 33.4962 29.537 33.5053H31.7125C31.9701 33.5021 32.2277 33.5173 32.4832 33.5509C32.6842 33.5758 32.879 33.6376 33.0577 33.7331C33.2745 33.847 33.4626 34.0087 33.6077 34.206C33.766 34.4047 33.8849 34.6318 33.958 34.8751C34.0404 35.1357 34.0817 35.4075 34.0806 35.6808C34.106 36.1819 33.9589 36.6765 33.6637 37.0821C33.3346 37.4605 32.8903 37.7202 32.3991 37.8213C32.6722 37.9945 32.91 38.218 33.0997 38.4799C33.3159 38.7753 33.5092 39.0868 33.6778 39.4118C33.8286 39.6984 33.9608 39.9945 34.0736 40.2981C34.1458 40.4727 34.193 40.6567 34.2137 40.8446C34.214 40.9526 34.1863 41.0588 34.1332 41.1529C34.0781 41.2498 33.9999 41.3317 33.9055 41.3911C33.8 41.4544 33.678 41.4849 33.5551 41.4787C33.418 41.4831 33.2838 41.4384 33.1768 41.3525C33.0685 41.2657 32.978 41.1586 32.9106 41.0373C32.837 40.9076 32.7389 40.722 32.6128 40.4732L32.0768 39.4223C31.9305 39.1128 31.7582 38.8163 31.5618 38.536C31.4423 38.3638 31.2839 38.2221 31.0994 38.1226C30.9198 38.0367 30.7239 37.9902 30.5249 37.986ZM31.2886 34.7069H30.0554V36.8509H31.2535C31.5266 36.8578 31.7993 36.8248 32.0628 36.7528C32.2655 36.6959 32.4431 36.5725 32.5672 36.4025C32.6923 36.2091 32.7525 35.9808 32.7389 35.7509C32.7438 35.5515 32.6955 35.3544 32.5988 35.1799C32.5122 35.0189 32.3775 34.8891 32.2134 34.8085C31.9146 34.7154 31.6005 34.6809 31.2886 34.7069Z" fill="black"/>
<path d="M39.7103 34.7382H36.6975V36.658H39.4721C39.5556 36.651 39.6397 36.6618 39.7188 36.6896C39.7978 36.7173 39.8702 36.7615 39.931 36.8191C40.0279 36.9425 40.0805 37.0949 40.0805 37.2518C40.0805 37.4087 40.0279 37.561 39.931 37.6844C39.8706 37.7429 39.7984 37.7878 39.7193 37.8162C39.6402 37.8446 39.5559 37.8558 39.4721 37.8491H36.6975V40.0701H39.8154C39.9027 40.064 39.9903 40.0765 40.0724 40.1067C40.1545 40.1369 40.2293 40.1841 40.2918 40.2453C40.4009 40.3726 40.4573 40.5367 40.4495 40.7042C40.4569 40.8695 40.4004 41.0313 40.2918 41.1561C40.229 41.2166 40.154 41.2632 40.0719 41.2928C39.9898 41.3224 39.9024 41.3343 39.8154 41.3277H36.1791C36.0642 41.3387 35.9483 41.3239 35.8399 41.2846C35.7314 41.2452 35.6331 41.1821 35.552 41.1C35.4059 40.8813 35.338 40.6196 35.3593 40.3574V34.486C35.3524 34.2964 35.3822 34.1073 35.4469 33.929C35.4946 33.796 35.5893 33.6851 35.7131 33.6172C35.8578 33.5462 36.018 33.5124 36.1791 33.5191H39.7103C39.7971 33.5121 39.8843 33.5235 39.9664 33.5524C40.0485 33.5814 40.1236 33.6273 40.1867 33.6872C40.2401 33.7464 40.2812 33.8156 40.3077 33.8908C40.3341 33.9659 40.3454 34.0456 40.3409 34.1251C40.3489 34.2092 40.3379 34.2939 40.3087 34.3731C40.2796 34.4523 40.2331 34.524 40.1726 34.5828C40.112 34.6417 40.0391 34.6862 39.9591 34.7131C39.8791 34.74 39.7941 34.7485 39.7103 34.7382Z" fill="black"/>
<path d="M43.2555 34.332L45.8269 38.9352V34.2899C45.8107 34.0518 45.8682 33.8146 45.9915 33.6103C46.0413 33.539 46.1081 33.4812 46.1857 33.4421C46.2634 33.403 46.3495 33.3837 46.4364 33.3861C46.525 33.3829 46.6129 33.4017 46.6924 33.4409C46.7718 33.48 46.8404 33.5382 46.8919 33.6103C47.0167 33.814 47.0743 34.0517 47.0565 34.2899V40.431C47.0565 41.1317 46.8183 41.4575 46.3383 41.4575C46.2263 41.4621 46.1146 41.4416 46.0115 41.3973C45.9084 41.353 45.8166 41.2862 45.7428 41.2018C45.6538 41.1064 45.5752 41.0019 45.5081 40.89L45.2909 40.5396L42.7826 35.9855V40.5607C42.8 40.7992 42.7384 41.0367 42.6074 41.2368C42.5566 41.3081 42.4892 41.366 42.4112 41.4057C42.3331 41.4453 42.2466 41.4655 42.159 41.4645C42.0699 41.4669 41.9815 41.447 41.902 41.4066C41.8225 41.3662 41.7543 41.3067 41.7036 41.2333C41.5757 41.0333 41.5156 40.7975 41.5319 40.5607V34.5281C41.5257 34.3261 41.5493 34.1242 41.602 33.9291C41.6575 33.774 41.7559 33.638 41.8858 33.5367C42.0085 33.4398 42.1602 33.3868 42.3167 33.3861C42.4233 33.3828 42.5291 33.4057 42.6249 33.4526C42.7105 33.5016 42.7864 33.5657 42.8491 33.6418C42.9237 33.736 42.9893 33.8369 43.0453 33.9431C43.1154 34.0692 43.1855 34.1988 43.2555 34.332Z" fill="black"/>
<path d="M52.8088 34.8225H51.3515V40.5117C51.3704 40.7672 51.3052 41.0219 51.1658 41.2369C51.1118 41.3123 51.0401 41.3734 50.9571 41.4149C50.8741 41.4565 50.7822 41.4771 50.6894 41.4751C50.5952 41.4768 50.5019 41.456 50.4173 41.4146C50.3326 41.3732 50.259 41.3123 50.2025 41.2369C50.064 41.0215 49.9989 40.7671 50.0168 40.5117V34.8225H48.5559C48.4635 34.8297 48.3706 34.8176 48.2831 34.7868C48.1956 34.7561 48.1155 34.7074 48.048 34.6438C47.9338 34.5149 47.8747 34.3464 47.8833 34.1744C47.878 34.087 47.8905 33.9993 47.92 33.9169C47.9495 33.8344 47.9954 33.7587 48.055 33.6945C48.122 33.6325 48.2011 33.5849 48.2873 33.5548C48.3734 33.5247 48.4649 33.5126 48.5559 33.5193H52.8088C52.9024 33.5117 52.9965 33.5237 53.0851 33.5544C53.1738 33.5852 53.2551 33.6341 53.3238 33.698C53.435 33.8305 53.496 33.9979 53.496 34.1709C53.496 34.3439 53.435 34.5113 53.3238 34.6438C53.2543 34.7065 53.1729 34.7546 53.0844 34.7853C52.996 34.816 52.9023 34.8286 52.8088 34.8225Z" fill="black"/>
<path d="M12.6992 62.4694H6.06416C5.83188 62.4694 5.60912 62.3771 5.44487 62.2129C5.28063 62.0486 5.18835 61.8259 5.18835 61.5936V2.83072C5.1902 2.08057 5.48902 1.36167 6.01946 0.831228C6.5499 0.300789 7.2688 0.00197202 8.01895 0.00012207L10.7409 0.00012207C11.4917 0.00104665 12.2115 0.299455 12.7427 0.829994C13.2739 1.36053 13.5732 2.07996 13.575 2.83072V61.5936C13.575 61.8259 13.4828 62.0486 13.3185 62.2129C13.1543 62.3771 12.9315 62.4694 12.6992 62.4694ZM6.93996 60.7178H11.8234V2.83072C11.8225 2.54423 11.7081 2.26979 11.5051 2.06754C11.3022 1.86529 11.0274 1.75173 10.7409 1.75173H8.01895C7.73278 1.75173 7.45834 1.86541 7.25599 2.06776C7.05364 2.27011 6.93996 2.54455 6.93996 2.83072V60.7178Z" fill="white"/>
<path d="M6.06418 13.7851H0.875925C0.643648 13.7851 0.420884 13.6929 0.256639 13.5286C0.0923939 13.3644 0.00012207 13.1416 0.00012207 12.9093L0.00012207 6.27424C0.00012207 6.04196 0.0923939 5.8192 0.256639 5.65495C0.420884 5.49071 0.643648 5.39844 0.875925 5.39844H6.06418V7.15004H1.75173V12.0335H6.06418V13.7851Z" fill="white"/>
<path d="M61.8633 13.7851H12.6992V12.0335H61.8633C62.0559 12.0326 62.2404 11.9554 62.3763 11.8189C62.5122 11.6823 62.5885 11.4975 62.5885 11.3049V7.87521C62.5885 7.68288 62.5121 7.49843 62.3761 7.36244C62.2401 7.22644 62.0556 7.15004 61.8633 7.15004H12.6992V5.39844H61.8633C62.5199 5.39936 63.1493 5.66061 63.6136 6.12489C64.0779 6.58917 64.3391 7.21861 64.3401 7.87521V11.3049C64.3401 11.9621 64.0792 12.5924 63.6149 13.0574C63.1505 13.5225 62.5205 13.7842 61.8633 13.7851Z" fill="white"/>
<path d="M50.0961 52.3486H22.263C21.005 52.3477 19.7987 51.8477 18.9088 50.9585C18.0189 50.0693 17.518 48.8633 17.5162 47.6053V25.2407C17.5171 23.9821 18.0175 22.7752 18.9075 21.8852C19.7975 20.9952 21.0044 20.4948 22.263 20.4939H30.1277C30.36 20.4939 30.5828 20.5862 30.747 20.7504C30.9113 20.9147 31.0035 21.1374 31.0035 21.3697C31.0035 21.602 30.9113 21.8247 30.747 21.989C30.5828 22.1532 30.36 22.2455 30.1277 22.2455H22.263C21.4686 22.2455 20.7068 22.5611 20.1451 23.1228C19.5834 23.6845 19.2678 24.4464 19.2678 25.2407V47.6053C19.2687 48.3984 19.5842 49.1589 20.1451 49.7197C20.7059 50.2806 21.4663 50.5961 22.2595 50.597H50.0961C50.3283 50.597 50.5511 50.6893 50.7153 50.8535C50.8796 51.0178 50.9719 51.2405 50.9719 51.4728C50.9719 51.7051 50.8796 51.9278 50.7153 52.0921C50.5511 52.2563 50.3283 52.3486 50.0961 52.3486Z" fill="white"/>
<path d="M58.5773 52.3486H53.82C53.5877 52.3486 53.3649 52.2563 53.2007 52.0921C53.0364 51.9278 52.9441 51.7051 52.9441 51.4728C52.9441 51.2405 53.0364 51.0178 53.2007 50.8535C53.3649 50.6893 53.5877 50.597 53.82 50.597H58.5773C59.3705 50.5961 60.1309 50.2806 60.6918 49.7197C61.2526 49.1589 61.5681 48.3984 61.5691 47.6053V25.2407C61.5691 24.447 61.254 23.6856 60.693 23.124C60.132 22.5624 59.3711 22.2464 58.5773 22.2455H33.9567C33.7245 22.2455 33.5017 22.1532 33.3374 21.989C33.1732 21.8247 33.0809 21.602 33.0809 21.3697C33.0809 21.1374 33.1732 20.9147 33.3374 20.7504C33.5017 20.5862 33.7245 20.4939 33.9567 20.4939H58.5773C59.8351 20.4967 61.0405 20.9978 61.9295 21.8875C62.8186 22.7772 63.3188 23.983 63.3207 25.2407V47.6053C63.3188 48.8627 62.8185 50.0681 61.9293 50.9573C61.0402 51.8464 59.8348 52.3467 58.5773 52.3486Z" fill="white"/>
<path d="M24.1723 22.2456C24.0571 22.246 23.943 22.2237 23.8366 22.1798C23.7301 22.136 23.6334 22.0715 23.5519 21.9901C23.4705 21.9087 23.406 21.8119 23.3622 21.7055C23.3183 21.599 23.296 21.4849 23.2965 21.3698V12.9095C23.2965 12.6772 23.3887 12.4545 23.553 12.2902C23.7172 12.126 23.94 12.0337 24.1723 12.0337C24.4045 12.0337 24.6273 12.126 24.7915 12.2902C24.9558 12.4545 25.0481 12.6772 25.0481 12.9095V21.3698C25.0481 21.602 24.9558 21.8248 24.7915 21.989C24.6273 22.1533 24.4045 22.2456 24.1723 22.2456Z" fill="white"/>
<path d="M56.577 22.2456C56.3447 22.2456 56.1219 22.1533 55.9577 21.989C55.7934 21.8248 55.7012 21.602 55.7012 21.3698V12.9095C55.7012 12.6772 55.7934 12.4545 55.9577 12.2902C56.1219 12.126 56.3447 12.0337 56.577 12.0337C56.8093 12.0337 57.032 12.126 57.1963 12.2902C57.3605 12.4545 57.4528 12.6772 57.4528 12.9095V21.3698C57.4528 21.602 57.3605 21.8248 57.1963 21.989C57.032 22.1533 56.8093 22.2456 56.577 22.2456Z" fill="white"/>
<path d="M57.0009 47.1604H23.7519C23.5196 47.1604 23.2969 47.0681 23.1326 46.9038C22.9684 46.7396 22.8761 46.5168 22.8761 46.2846V26.8978C22.8761 26.6655 22.9684 26.4427 23.1326 26.2785C23.2969 26.1142 23.5196 26.022 23.7519 26.022H57.0009C57.2332 26.022 57.4559 26.1142 57.6202 26.2785C57.7844 26.4427 57.8767 26.6655 57.8767 26.8978V46.2846C57.8767 46.5168 57.7844 46.7396 57.6202 46.9038C57.4559 47.0681 57.2332 47.1604 57.0009 47.1604ZM24.6277 45.4087H56.1251V27.7736H24.6277V45.4087Z" fill="white"/>
<path d="M29.865 37.0607H29.3955V39.5865C29.4152 39.8432 29.35 40.0992 29.2099 40.3151C29.1541 40.3903 29.081 40.4508 28.9969 40.4917C28.9127 40.5326 28.8199 40.5525 28.7264 40.5499C28.6301 40.554 28.5342 40.5337 28.4479 40.4908C28.3615 40.448 28.2874 40.3839 28.2325 40.3046C28.1055 40.0938 28.0445 39.8498 28.0573 39.604V33.561C28.0345 33.2997 28.1025 33.0386 28.25 32.8218C28.3298 32.7372 28.4275 32.6715 28.5361 32.6297C28.6446 32.5879 28.7611 32.5709 28.877 32.5801H31.0525C31.3102 32.5768 31.5678 32.592 31.8232 32.6256C32.0243 32.6505 32.2191 32.7123 32.3978 32.8078C32.6146 32.9217 32.8027 33.0834 32.9478 33.2807C33.1061 33.4794 33.225 33.7065 33.2981 33.9498C33.3805 34.2104 33.4218 34.4822 33.4207 34.7555C33.4461 35.2566 33.299 35.7512 33.0038 36.1568C32.6747 36.5352 32.2304 36.7949 31.7392 36.896C32.0123 37.0692 32.2501 37.2927 32.4398 37.5546C32.656 37.85 32.8493 38.1615 33.0178 38.4865C33.1687 38.7731 33.3009 39.0692 33.4137 39.3728C33.4859 39.5474 33.5331 39.7314 33.5538 39.9193C33.5541 40.0273 33.5264 40.1335 33.4733 40.2276C33.4182 40.3245 33.3399 40.4064 33.2456 40.4658C33.1401 40.5291 33.0181 40.5596 32.8952 40.5534C32.7581 40.5579 32.6239 40.5131 32.5169 40.4273C32.4086 40.3404 32.3181 40.2333 32.2506 40.112C32.1771 39.9823 32.079 39.7967 31.9529 39.5479L31.4169 38.497C31.2706 38.1875 31.0983 37.891 30.9019 37.6107C30.7824 37.4385 30.6239 37.2969 30.4395 37.1973C30.2599 37.1115 30.064 37.0649 29.865 37.0607ZM30.6287 33.7817H29.3955V35.9256H30.5936C30.8667 35.9325 31.1393 35.8995 31.4029 35.8275C31.6055 35.7706 31.7832 35.6472 31.9073 35.4772C32.0324 35.2838 32.0925 35.0555 32.079 34.8256C32.0839 34.6262 32.0355 34.4291 31.9389 34.2546C31.8523 34.0936 31.7176 33.9638 31.5535 33.8832C31.2547 33.7901 30.9406 33.7556 30.6287 33.7817Z" fill="white"/>
<path d="M39.0504 33.8129H36.0376V35.7327H38.8122C38.8957 35.7257 38.9798 35.7365 39.0588 35.7643C39.1379 35.792 39.2102 35.8362 39.2711 35.8938C39.368 36.0172 39.4206 36.1696 39.4206 36.3265C39.4206 36.4834 39.368 36.6357 39.2711 36.7591C39.2107 36.8176 39.1385 36.8625 39.0594 36.8909C38.9802 36.9193 38.896 36.9305 38.8122 36.9238H36.0376V39.1448H39.1555C39.2428 39.1387 39.3303 39.1512 39.4125 39.1814C39.4946 39.2116 39.5694 39.2588 39.6319 39.32C39.741 39.4473 39.7973 39.6114 39.7896 39.7789C39.797 39.9442 39.7405 40.106 39.6319 40.2308C39.5691 40.2913 39.4941 40.3379 39.412 40.3675C39.3299 40.3971 39.2425 40.409 39.1555 40.4025H35.5192C35.4043 40.4134 35.2884 40.3986 35.18 40.3593C35.0715 40.3199 34.9732 40.2568 34.8921 40.1747C34.746 39.956 34.6781 39.6943 34.6994 39.4321V33.5607C34.6925 33.3711 34.7222 33.182 34.787 33.0037C34.8347 32.8707 34.9294 32.7598 35.0532 32.6919C35.1979 32.6209 35.3581 32.5871 35.5192 32.5938H39.0504C39.1372 32.5868 39.2244 32.5982 39.3065 32.6271C39.3886 32.6561 39.4637 32.702 39.5268 32.7619C39.5802 32.8211 39.6213 32.8903 39.6478 32.9655C39.6742 33.0406 39.6855 33.1203 39.681 33.1999C39.6889 33.2839 39.678 33.3686 39.6488 33.4478C39.6197 33.527 39.5732 33.5987 39.5126 33.6575C39.4521 33.7164 39.3792 33.7609 39.2992 33.7878C39.2192 33.8147 39.1342 33.8233 39.0504 33.8129Z" fill="white"/>
<path d="M42.5956 33.4067L45.167 38.0099V33.3646C45.1508 33.1266 45.2083 32.8893 45.3316 32.685C45.3814 32.6137 45.4482 32.5559 45.5258 32.5168C45.6035 32.4777 45.6896 32.4584 45.7765 32.4608C45.865 32.4576 45.953 32.4764 46.0325 32.5156C46.1119 32.5547 46.1805 32.6129 46.2319 32.685C46.3568 32.8887 46.4144 33.1264 46.3966 33.3646V39.5058C46.3966 40.2064 46.1584 40.5322 45.6784 40.5322C45.5664 40.5368 45.4547 40.5163 45.3516 40.472C45.2485 40.4278 45.1567 40.3609 45.0829 40.2765C44.9939 40.1811 44.9152 40.0766 44.8482 39.9647L44.631 39.6144L42.1227 35.0602V39.6354C42.1401 39.8739 42.0785 40.1114 41.9475 40.3115C41.8967 40.3828 41.8293 40.4407 41.7513 40.4804C41.6732 40.52 41.5867 40.5402 41.4991 40.5392C41.4099 40.5416 41.3216 40.5217 41.2421 40.4813C41.1626 40.441 41.0944 40.3814 41.0437 40.308C40.9158 40.108 40.8556 39.8722 40.872 39.6354V33.6028C40.8658 33.4008 40.8894 33.1989 40.9421 33.0038C40.9976 32.8488 41.096 32.7127 41.2258 32.6114C41.3486 32.5145 41.5003 32.4615 41.6567 32.4608C41.7634 32.4575 41.8692 32.4804 41.965 32.5274C42.0506 32.5764 42.1265 32.6404 42.1892 32.7165C42.2637 32.8107 42.3294 32.9116 42.3854 33.0178C42.4555 33.1439 42.5255 33.2735 42.5956 33.4067Z" fill="white"/>
<path d="M52.1489 33.8972H50.6916V39.5864C50.7105 39.8419 50.6453 40.0966 50.5059 40.3116C50.4519 40.387 50.3802 40.4481 50.2972 40.4897C50.2142 40.5312 50.1223 40.5518 50.0295 40.5498C49.9353 40.5515 49.842 40.5307 49.7573 40.4893C49.6727 40.4479 49.5991 40.387 49.5425 40.3116C49.4041 40.0962 49.339 39.8418 49.3569 39.5864V33.8972H47.896C47.8036 33.9045 47.7107 33.8923 47.6232 33.8615C47.5357 33.8308 47.4556 33.7821 47.3881 33.7185C47.2739 33.5896 47.2148 33.4211 47.2234 33.2491C47.2181 33.1617 47.2306 33.074 47.2601 32.9916C47.2896 32.9091 47.3355 32.8334 47.3951 32.7692C47.4621 32.7072 47.5412 32.6596 47.6273 32.6295C47.7135 32.5994 47.805 32.5873 47.896 32.594H52.1489C52.2425 32.5864 52.3366 32.5984 52.4252 32.6291C52.5139 32.6599 52.5952 32.7088 52.6639 32.7727C52.7751 32.9052 52.8361 33.0726 52.8361 33.2456C52.8361 33.4186 52.7751 33.586 52.6639 33.7185C52.5944 33.7812 52.513 33.8293 52.4245 33.86C52.3361 33.8907 52.2424 33.9033 52.1489 33.8972Z" fill="white"/>
</svg>
