<svg width="54" height="72" viewBox="0 0 54 72" fill="none" xmlns="http://www.w3.org/2000/svg">
<path d="M46.4263 71.259H9.7563C9.46052 71.259 9.17684 71.1415 8.96769 70.9323C8.75854 70.7232 8.64104 70.4395 8.64104 70.1437V57.849C8.64104 57.5532 8.75854 57.2696 8.96769 57.0604C9.17684 56.8512 9.46052 56.7337 9.7563 56.7337H12.0493C12.3096 55.3846 13.0301 54.1677 14.0878 53.2906C15.1454 52.4136 16.4747 51.9308 17.8487 51.9247H22.0421C22.1667 51.9253 22.2901 51.9013 22.4054 51.854C22.5207 51.8067 22.6254 51.7372 22.7137 51.6493C22.802 51.5614 22.8721 51.457 22.9199 51.3419C22.9677 51.2269 22.9923 51.1035 22.9923 50.979V48.222C22.9887 47.3022 22.7009 46.406 22.1682 45.6561C21.6355 44.9063 20.8841 44.3394 20.0168 44.0331C14.5226 41.9534 10.0007 37.9007 7.33394 32.6662C7.0975 32.2201 6.88783 31.7383 6.66924 31.261C5.32773 28.1927 4.63515 24.8802 4.63499 21.5314V7.82699C3.86264 7.62896 3.18909 7.15592 2.74069 6.49662C2.2923 5.83732 2.09987 5.03706 2.1995 4.24598C2.29914 3.4549 2.684 2.72735 3.28188 2.19983C3.87976 1.67231 4.64957 1.38107 5.44691 1.38074L50.7268 1.38074C51.5241 1.38107 52.294 1.67231 52.8918 2.19983C53.4897 2.72735 53.8746 3.4549 53.9742 4.24598C54.0738 5.03706 53.8814 5.83732 53.433 6.49662C52.9846 7.15592 52.3111 7.62896 51.5387 7.82699V21.4556C51.5387 31.319 45.5074 40.3259 36.5272 43.8769C35.6803 44.1975 34.9509 44.7683 34.4362 45.5133C33.9214 46.2584 33.6456 47.1424 33.6454 48.048V50.97C33.6454 51.0942 33.6698 51.2172 33.7173 51.332C33.7649 51.4467 33.8345 51.551 33.9224 51.6388C34.0102 51.7266 34.1144 51.7963 34.2292 51.8438C34.3439 51.8913 34.4669 51.9158 34.5911 51.9158H38.789C40.163 51.9219 41.4922 52.4047 42.5499 53.2817C43.6076 54.1588 44.328 55.3757 44.5884 56.7248H46.4263C46.7221 56.7248 47.0058 56.8423 47.2149 57.0515C47.4241 57.2606 47.5416 57.5443 47.5416 57.8401V70.1348C47.5428 70.282 47.5148 70.428 47.4593 70.5643C47.4038 70.7007 47.3218 70.8247 47.2181 70.9292C47.1144 71.0337 46.9911 71.1167 46.8552 71.1733C46.7193 71.2299 46.5735 71.259 46.4263 71.259ZM10.8626 69.0285H45.3111V58.9643H10.8626V69.0285ZM14.3378 56.7337H42.3221C42.0847 55.9863 41.6157 55.3336 40.983 54.8701C40.3503 54.4066 39.5867 54.1563 38.8024 54.1552H34.5911C34.174 54.1552 33.761 54.0731 33.3756 53.9135C32.9902 53.7538 32.6401 53.5199 32.3451 53.2249C32.0502 52.93 31.8162 52.5798 31.6566 52.1945C31.497 51.8091 31.4148 51.3961 31.4148 50.979V48.057C31.415 46.7041 31.8252 45.3832 32.5913 44.2682C33.3575 43.1532 34.4436 42.2967 35.7064 41.8115C43.83 38.5995 49.2903 30.4446 49.3082 21.5091V7.92513H6.86553V21.4556C6.85424 24.5257 7.48325 27.5644 8.71241 30.3777C8.89978 30.8238 9.10499 31.2387 9.31912 31.6536C11.7391 36.3936 15.8375 40.0625 20.8153 41.9453C22.1018 42.4232 23.2129 43.2804 24.0016 44.4037C24.7902 45.5269 25.2192 46.863 25.2318 48.2354V50.979C25.2306 51.8218 24.895 52.6297 24.2986 53.2252C23.7022 53.8207 22.8938 54.1552 22.051 54.1552H17.8576C17.0733 54.1563 16.3096 54.4066 15.6769 54.8701C15.0443 55.3336 14.5753 55.9863 14.3378 56.7337ZM50.4235 5.6946H50.7268C50.8693 5.70393 51.0123 5.68391 51.1467 5.63579C51.2812 5.58766 51.4044 5.51245 51.5086 5.41481C51.6129 5.31717 51.696 5.19917 51.7528 5.06813C51.8096 4.93708 51.8389 4.79577 51.8389 4.65294C51.8389 4.5101 51.8096 4.36879 51.7528 4.23774C51.696 4.1067 51.6129 3.9887 51.5086 3.89106C51.4044 3.79342 51.2812 3.71821 51.1467 3.67008C51.0123 3.62196 50.8693 3.60194 50.7268 3.61127H5.44691C5.30438 3.60194 5.16146 3.62196 5.02698 3.67008C4.8925 3.71821 4.76932 3.79342 4.66508 3.89106C4.56084 3.9887 4.47774 4.1067 4.42093 4.23774C4.36412 4.36879 4.33481 4.5101 4.33481 4.65294C4.33481 4.79577 4.36412 4.93708 4.42093 5.06813C4.47774 5.19917 4.56084 5.31717 4.66508 5.41481C4.76932 5.51245 4.8925 5.58766 5.02698 5.63579C5.16146 5.68391 5.30438 5.70393 5.44691 5.6946H50.4235ZM35.7019 67.0924H20.4629C19.6086 67.0924 18.7894 66.753 18.1854 66.149C17.5813 65.545 17.242 64.7257 17.242 63.8715C17.242 63.0172 17.5813 62.198 18.1854 61.5939C18.7894 60.9899 19.6086 60.6506 20.4629 60.6506H35.693C36.5472 60.6506 37.3665 60.9899 37.9705 61.5939C38.5745 62.198 38.9139 63.0172 38.9139 63.8715C38.9139 64.7257 38.5745 65.545 37.9705 66.149C37.3665 66.753 36.5472 67.0924 35.693 67.0924H35.7019ZM20.4629 62.8811C20.3328 62.8811 20.204 62.9067 20.0839 62.9565C19.9637 63.0063 19.8546 63.0792 19.7626 63.1712C19.6706 63.2631 19.5977 63.3723 19.5479 63.4925C19.4981 63.6126 19.4725 63.7414 19.4725 63.8715C19.4725 64.0015 19.4981 64.1303 19.5479 64.2505C19.5977 64.3706 19.6706 64.4798 19.7626 64.5718C19.8546 64.6637 19.9637 64.7367 20.0839 64.7864C20.204 64.8362 20.3328 64.8618 20.4629 64.8618H35.693C35.823 64.8618 35.9518 64.8362 36.072 64.7864C36.1921 64.7367 36.3013 64.6637 36.3933 64.5718C36.4852 64.4798 36.5582 64.3706 36.608 64.2505C36.6577 64.1303 36.6833 64.0015 36.6833 63.8715C36.6833 63.7414 36.6577 63.6126 36.608 63.4925C36.5582 63.3723 36.4852 63.2631 36.3933 63.1712C36.3013 63.0792 36.1921 63.0063 36.072 62.9565C35.9518 62.9067 35.823 62.8811 35.693 62.8811H20.4629Z" fill="black"/>
<path d="M44.2525 69.8783H7.58248C7.28669 69.8783 7.00302 69.7608 6.79386 69.5516C6.58471 69.3425 6.46721 69.0588 6.46721 68.763V56.4683C6.46721 56.1725 6.58471 55.8888 6.79386 55.6797C7.00302 55.4705 7.28669 55.353 7.58248 55.353H9.87547C10.1358 54.0039 10.8563 52.787 11.9139 51.9099C12.9716 51.0329 14.3009 50.5501 15.6749 50.544H19.8683C19.9928 50.5446 20.1163 50.5205 20.2316 50.4733C20.3468 50.426 20.4516 50.3564 20.5399 50.2685C20.6282 50.1807 20.6983 50.0762 20.7461 49.9612C20.7939 49.8461 20.8185 49.7228 20.8185 49.5982V46.8413C20.8149 45.9215 20.527 45.0253 19.9944 44.2754C19.4617 43.5255 18.7103 42.9586 17.8429 42.6523C12.3487 40.5727 7.82686 36.52 5.16011 31.2855C4.92368 30.8394 4.714 30.3576 4.49541 29.8803C3.15391 26.812 2.46132 23.4994 2.46116 20.1507V6.44625C1.68882 6.24822 1.01526 5.77518 0.566865 5.11588C0.118468 4.45658 -0.0739625 3.65632 0.0256754 2.86524C0.125313 2.07416 0.510172 1.34662 1.10805 0.819095C1.70593 0.291575 2.47575 0.000330712 3.27308 0L48.553 0C49.3503 0.000330712 50.1201 0.291575 50.718 0.819095C51.3159 1.34662 51.7007 2.07416 51.8004 2.86524C51.9 3.65632 51.7076 4.45658 51.2592 5.11588C50.8108 5.77518 50.1372 6.24822 49.3649 6.44625V20.0748C49.3649 29.9383 43.3335 38.9452 34.3534 42.4962C33.5064 42.8168 32.7771 43.3875 32.2623 44.1326C31.7476 44.8776 31.4718 45.7617 31.4715 46.6673V49.5893C31.4715 49.7135 31.496 49.8365 31.5435 49.9512C31.591 50.066 31.6607 50.1702 31.7485 50.258C31.8364 50.3459 31.9406 50.4155 32.0554 50.4631C32.1701 50.5106 32.2931 50.535 32.4173 50.535H36.6151C37.9891 50.5412 39.3184 51.0239 40.3761 51.901C41.4337 52.778 42.1542 53.995 42.4145 55.3441H44.2525C44.5483 55.3441 44.832 55.4616 45.0411 55.6707C45.2503 55.8799 45.3678 56.1636 45.3678 56.4594V68.7541C45.3689 68.9013 45.341 69.0473 45.2855 69.1836C45.2299 69.32 45.148 69.444 45.0443 69.5485C44.9406 69.653 44.8173 69.7359 44.6814 69.7925C44.5455 69.8491 44.3997 69.8783 44.2525 69.8783ZM8.68882 67.6477H43.1372V57.5835H8.68882V67.6477ZM12.164 55.353H40.1483C39.9109 54.6055 39.4419 53.9529 38.8092 53.4894C38.1765 53.0259 37.4128 52.7755 36.6285 52.7745H32.4173C32.0002 52.7745 31.5871 52.6923 31.2018 52.5327C30.8164 52.3731 30.4662 52.1391 30.1713 51.8442C29.8764 51.5492 29.6424 51.1991 29.4828 50.8137C29.3231 50.4284 29.241 50.0153 29.241 49.5982V46.6762C29.2412 45.3234 29.6514 44.0024 30.4175 42.8875C31.1837 41.7725 32.2697 40.9159 33.5325 40.4307C41.6562 37.2187 47.1165 29.0639 47.1344 20.1284V6.5444H4.6917V20.0748C4.68041 23.1449 5.30942 26.1837 6.53858 28.997C6.72595 29.4431 6.93116 29.858 7.14529 30.2729C9.56526 35.0128 13.6636 38.6818 18.6415 40.5645C19.928 41.0424 21.0391 41.8997 21.8277 43.0229C22.6164 44.1461 23.0454 45.4823 23.0579 46.8547V49.5982C23.0568 50.441 22.7211 51.2489 22.1247 51.8445C21.5284 52.44 20.72 52.7745 19.8772 52.7745H15.6838C14.8995 52.7755 14.1358 53.0259 13.5031 53.4894C12.8704 53.9529 12.4015 54.6055 12.164 55.353ZM48.2496 4.31386H48.553C48.6955 4.32319 48.8384 4.30317 48.9729 4.25505C49.1074 4.20692 49.2306 4.13171 49.3348 4.03407C49.439 3.93643 49.5221 3.81844 49.579 3.68739C49.6358 3.55634 49.6651 3.41503 49.6651 3.2722C49.6651 3.12937 49.6358 2.98806 49.579 2.85701C49.5221 2.72596 49.439 2.60796 49.3348 2.51032C49.2306 2.41268 49.1074 2.33747 48.9729 2.28935C48.8384 2.24122 48.6955 2.2212 48.553 2.23054H3.27308C3.13055 2.2212 2.98763 2.24122 2.85315 2.28935C2.71867 2.33747 2.5955 2.41268 2.49125 2.51032C2.38701 2.60796 2.30391 2.72596 2.2471 2.85701C2.19029 2.98806 2.16098 3.12937 2.16098 3.2722C2.16098 3.41503 2.19029 3.55634 2.2471 3.68739C2.30391 3.81844 2.38701 3.93643 2.49125 4.03407C2.5955 4.13171 2.71867 4.20692 2.85315 4.25505C2.98763 4.30317 3.13055 4.32319 3.27308 4.31386H48.2496ZM33.5281 65.7116H18.2891C17.4348 65.7116 16.6156 65.3723 16.0115 64.7682C15.4075 64.1642 15.0682 63.345 15.0682 62.4907C15.0682 61.6365 15.4075 60.8172 16.0115 60.2132C16.6156 59.6092 17.4348 59.2698 18.2891 59.2698H33.5192C34.3734 59.2698 35.1926 59.6092 35.7967 60.2132C36.4007 60.8172 36.7401 61.6365 36.7401 62.4907C36.7401 63.345 36.4007 64.1642 35.7967 64.7682C35.1926 65.3723 34.3734 65.7116 33.5192 65.7116H33.5281ZM18.2891 61.5004C18.159 61.5004 18.0302 61.526 17.9101 61.5758C17.7899 61.6255 17.6807 61.6985 17.5888 61.7904C17.4968 61.8824 17.4239 61.9916 17.3741 62.1117C17.3243 62.2319 17.2987 62.3607 17.2987 62.4907C17.2987 62.6208 17.3243 62.7496 17.3741 62.8697C17.4239 62.9899 17.4968 63.0991 17.5888 63.191C17.6807 63.283 17.7899 63.3559 17.9101 63.4057C18.0302 63.4555 18.159 63.4811 18.2891 63.4811H33.5192C33.6492 63.4811 33.778 63.4555 33.8982 63.4057C34.0183 63.3559 34.1275 63.283 34.2194 63.191C34.3114 63.0991 34.3844 62.9899 34.4341 62.8697C34.4839 62.7496 34.5095 62.6208 34.5095 62.4907C34.5095 62.3607 34.4839 62.2319 34.4341 62.1117C34.3844 61.9916 34.3114 61.8824 34.2194 61.7904C34.1275 61.6985 34.0183 61.6255 33.8982 61.5758C33.778 61.526 33.6492 61.5004 33.5192 61.5004H18.2891Z" fill="white"/>
</svg>
