<svg width="100" height="62" viewBox="0 0 100 62" fill="none" xmlns="http://www.w3.org/2000/svg">
<path d="M83.1146 59.8904C82.2251 59.889 81.3583 59.6089 80.6362 59.0895C79.9141 58.5701 79.3729 57.8374 79.0887 56.9945H75.8573C75.5754 57.8386 75.0351 58.5727 74.313 59.0928C73.5909 59.6129 72.7235 59.8928 71.8336 59.8928C70.9436 59.8928 70.0762 59.6129 69.3541 59.0928C68.632 58.5727 68.0918 57.8386 67.8098 56.9945H57.9524C57.6597 56.9945 57.379 56.8782 57.1721 56.6713C56.9651 56.4643 56.8488 56.1836 56.8488 55.8909C56.8488 55.5982 56.9651 55.3175 57.1721 55.1105C57.379 54.9036 57.6597 54.7873 57.9524 54.7873H67.5891V49.3929H27.8373C27.5446 49.3929 27.2639 49.2766 27.0569 49.0696C26.85 48.8627 26.7337 48.582 26.7337 48.2893C26.7337 47.9966 26.85 47.7159 27.0569 47.5089C27.2639 47.3019 27.5446 47.1857 27.8373 47.1857H67.5891V44.6606C67.5891 44.1035 67.6988 43.5519 67.912 43.0372C68.1252 42.5225 68.4377 42.0548 68.8316 41.6609C69.2256 41.267 69.6932 40.9545 70.2079 40.7413C70.7226 40.5281 71.2743 40.4184 71.8314 40.4184C72.3885 40.4184 72.9401 40.5281 73.4548 40.7413C73.9695 40.9545 74.4371 41.267 74.8311 41.6609C75.225 42.0548 75.5375 42.5225 75.7507 43.0372C75.9639 43.5519 76.0736 44.1035 76.0736 44.6606V47.1857H78.8723V44.6606C78.8723 43.5355 79.3193 42.4565 80.1149 41.6609C80.9104 40.8653 81.9895 40.4184 83.1146 40.4184C84.2397 40.4184 85.3187 40.8653 86.1143 41.6609C86.9099 42.4565 87.3568 43.5355 87.3568 44.6606V47.1857H92.8263V6.91739H86.6461C86.0414 26.1642 69.6815 41.6412 49.6577 41.6412C40.6844 41.6617 31.9983 38.4794 25.1622 32.6667C25.0493 32.5731 24.9562 32.458 24.8883 32.328C24.8204 32.1981 24.7791 32.0559 24.7668 31.9098C24.7544 31.7637 24.7714 31.6166 24.8165 31.4771C24.8617 31.3376 24.9342 31.2085 25.0298 31.0974C25.1254 30.9862 25.2422 30.8952 25.3734 30.8297C25.5046 30.7642 25.6475 30.7255 25.7938 30.7158C25.9401 30.7062 26.0868 30.7257 26.2255 30.7734C26.3641 30.8211 26.4919 30.896 26.6013 30.9936C33.0374 36.4642 41.2152 39.4573 49.6622 39.434C68.4676 39.434 83.8386 24.9459 84.4433 6.91739H83.8165C83.0293 6.91622 82.2748 6.6027 81.7186 6.04567C81.1624 5.48865 80.85 4.73365 80.85 3.94649V2.96649C80.85 2.17973 81.1625 1.42519 81.7189 0.868864C82.2752 0.31254 83.0297 0 83.8165 0H92.067C92.8538 0 93.6083 0.31254 94.1646 0.868864C94.721 1.42519 95.0335 2.17973 95.0335 2.96649V47.1857H96.8964C97.1891 47.1857 97.4698 47.3019 97.6768 47.5089C97.8837 47.7159 98 47.9966 98 48.2893V55.8909C98 56.1836 97.8837 56.4643 97.6768 56.6713C97.4698 56.8782 97.1891 56.9945 96.8964 56.9945H87.1361C86.8527 57.8371 86.3123 58.5696 85.591 59.089C84.8696 59.6085 84.0035 59.8887 83.1146 59.8904ZM81.0928 55.8909C81.1497 56.3872 81.3872 56.8453 81.76 57.1778C82.1329 57.5104 82.615 57.6942 83.1146 57.6942C83.6142 57.6942 84.0963 57.5104 84.4692 57.1778C84.842 56.8453 85.0795 56.3872 85.1364 55.8909C85.134 55.8453 85.134 55.7996 85.1364 55.7541C85.1386 55.7232 85.1386 55.6922 85.1364 55.6614V44.6606C85.1364 44.1209 84.922 43.6033 84.5403 43.2216C84.1587 42.84 83.6411 42.6256 83.1013 42.6256C82.5616 42.6256 82.044 42.84 81.6624 43.2216C81.2807 43.6033 81.0663 44.1209 81.0663 44.6606V55.6967C81.0708 55.754 81.0708 55.8115 81.0663 55.8688L81.0928 55.8909ZM69.8095 55.8909C69.8665 56.3872 70.1039 56.8453 70.4768 57.1778C70.8496 57.5104 71.3318 57.6942 71.8314 57.6942C72.3309 57.6942 72.8131 57.5104 73.1859 57.1778C73.5588 56.8453 73.7962 56.3872 73.8532 55.8909C73.8486 55.8336 73.8486 55.776 73.8532 55.7187V44.6827C73.8532 44.143 73.6387 43.6254 73.2571 43.2437C72.8755 42.8621 72.3578 42.6477 71.8181 42.6477C71.2784 42.6477 70.7608 42.8621 70.3791 43.2437C69.9975 43.6254 69.7831 44.143 69.7831 44.6827V55.6658C69.7809 55.6966 69.7809 55.7276 69.7831 55.7585C69.7936 55.7963 69.8024 55.8346 69.8095 55.8732V55.8909ZM87.3568 54.805H95.7928V49.3929H87.3568V54.805ZM76.0736 54.805H78.8723V49.3929H76.0736V54.805ZM83.0572 3.94649C83.0572 4.14827 83.1371 4.34185 83.2793 4.48494C83.4216 4.62804 83.6147 4.70901 83.8165 4.71018H92.8263V2.96649C92.8263 2.76511 92.7463 2.57199 92.6039 2.42959C92.4615 2.2872 92.2684 2.20721 92.067 2.20721H83.8165C83.6151 2.20721 83.422 2.2872 83.2796 2.42959C83.1372 2.57199 83.0572 2.76511 83.0572 2.96649V3.94649ZM51.0836 56.9945H1.1036C0.81091 56.9945 0.530204 56.8782 0.323238 56.6713C0.116272 56.4643 0 56.1836 0 55.8909L0 48.2893C0 47.9966 0.116272 47.7159 0.323238 47.5089C0.530204 47.3019 0.81091 47.1857 1.1036 47.1857H2.96649V2.96649C2.96649 2.17973 3.27903 1.42519 3.83535 0.868864C4.39167 0.31254 5.14621 0 5.93297 0L14.1835 0C14.9703 0 15.7248 0.31254 16.2811 0.868864C16.8375 1.42519 17.15 2.17973 17.15 2.96649V3.94649C17.1493 4.61217 16.9253 5.25839 16.514 5.78178C16.1026 6.30517 15.5277 6.67549 14.881 6.83351C15.0906 13.9597 17.6323 20.8203 22.1162 26.3629C22.2828 26.5925 22.3545 26.8775 22.3166 27.1586C22.2786 27.4397 22.1338 27.6954 21.9123 27.8727C21.6908 28.0499 21.4095 28.135 21.1269 28.1103C20.8443 28.0856 20.5821 27.9531 20.3946 27.7402C15.6132 21.8303 12.9012 14.5159 12.6738 6.91739H5.16928V47.1857H20.9199C21.2126 47.1857 21.4933 47.3019 21.7003 47.5089C21.9072 47.7159 22.0235 47.9966 22.0235 48.2893C22.0235 48.582 21.9072 48.8627 21.7003 49.0696C21.4933 49.2766 21.2126 49.3929 20.9199 49.3929H2.20721V54.7873H51.0836C51.3763 54.7873 51.657 54.9036 51.864 55.1105C52.0709 55.3175 52.1872 55.5982 52.1872 55.8909C52.1872 56.1836 52.0709 56.4643 51.864 56.6713C51.657 56.8782 51.3763 56.9945 51.0836 56.9945ZM5.17369 4.71018H14.1835C14.3853 4.70901 14.5784 4.62804 14.7207 4.48494C14.8629 4.34185 14.9428 4.14827 14.9428 3.94649V2.96649C14.9428 2.76511 14.8628 2.57199 14.7204 2.42959C14.578 2.2872 14.3849 2.20721 14.1835 2.20721H5.93297C5.83326 2.20721 5.73453 2.22685 5.64241 2.265C5.55029 2.30316 5.46659 2.35909 5.39608 2.42959C5.32558 2.5001 5.26965 2.5838 5.23149 2.67592C5.19333 2.76804 5.17369 2.86678 5.17369 2.96649V4.71018Z" fill="white"/>
<path d="M85.1146 61.8904C84.2251 61.889 83.3583 61.6089 82.6362 61.0895C81.9141 60.5701 81.3729 59.8374 81.0887 58.9945H77.8573C77.5754 59.8386 77.0351 60.5727 76.313 61.0928C75.5909 61.6129 74.7235 61.8928 73.8336 61.8928C72.9436 61.8928 72.0762 61.6129 71.3541 61.0928C70.632 60.5727 70.0918 59.8386 69.8098 58.9945H59.9524C59.6597 58.9945 59.379 58.8782 59.1721 58.6713C58.9651 58.4643 58.8488 58.1836 58.8488 57.8909C58.8488 57.5982 58.9651 57.3175 59.1721 57.1105C59.379 56.9036 59.6597 56.7873 59.9524 56.7873H69.5891V51.3929H29.8373C29.5446 51.3929 29.2639 51.2766 29.0569 51.0696C28.85 50.8627 28.7337 50.582 28.7337 50.2893C28.7337 49.9966 28.85 49.7159 29.0569 49.5089C29.2639 49.3019 29.5446 49.1857 29.8373 49.1857H69.5891V46.6606C69.5891 46.1035 69.6988 45.5519 69.912 45.0372C70.1252 44.5225 70.4377 44.0548 70.8316 43.6609C71.2256 43.267 71.6932 42.9545 72.2079 42.7413C72.7226 42.5281 73.2743 42.4184 73.8314 42.4184C74.3885 42.4184 74.9401 42.5281 75.4548 42.7413C75.9695 42.9545 76.4371 43.267 76.8311 43.6609C77.225 44.0548 77.5375 44.5225 77.7507 45.0372C77.9639 45.5519 78.0736 46.1035 78.0736 46.6606V49.1857H80.8723V46.6606C80.8723 45.5355 81.3193 44.4565 82.1149 43.6609C82.9104 42.8653 83.9895 42.4184 85.1146 42.4184C86.2397 42.4184 87.3187 42.8653 88.1143 43.6609C88.9099 44.4565 89.3568 45.5355 89.3568 46.6606V49.1857H94.8263V8.91739H88.6461C88.0414 28.1642 71.6815 43.6412 51.6577 43.6412C42.6844 43.6617 33.9983 40.4794 27.1622 34.6667C27.0493 34.5731 26.9562 34.458 26.8883 34.328C26.8204 34.1981 26.7791 34.0559 26.7668 33.9098C26.7544 33.7637 26.7714 33.6166 26.8165 33.4771C26.8617 33.3376 26.9342 33.2085 27.0298 33.0974C27.1254 32.9862 27.2422 32.8952 27.3734 32.8297C27.5046 32.7642 27.6475 32.7255 27.7938 32.7158C27.9401 32.7062 28.0868 32.7257 28.2255 32.7734C28.3641 32.8211 28.4919 32.896 28.6013 32.9936C35.0374 38.4642 43.2152 41.4573 51.6622 41.434C70.4676 41.434 85.8386 26.9459 86.4433 8.91739H85.8165C85.0293 8.91622 84.2748 8.6027 83.7186 8.04567C83.1624 7.48865 82.85 6.73365 82.85 5.94649V4.96649C82.85 4.17973 83.1625 3.42519 83.7189 2.86886C84.2752 2.31254 85.0297 2 85.8165 2H94.067C94.8538 2 95.6083 2.31254 96.1646 2.86886C96.721 3.42519 97.0335 4.17973 97.0335 4.96649V49.1857H98.8964C99.1891 49.1857 99.4698 49.3019 99.6768 49.5089C99.8837 49.7159 100 49.9966 100 50.2893V57.8909C100 58.1836 99.8837 58.4643 99.6768 58.6713C99.4698 58.8782 99.1891 58.9945 98.8964 58.9945H89.1361C88.8527 59.8371 88.3123 60.5696 87.591 61.089C86.8696 61.6085 86.0035 61.8887 85.1146 61.8904ZM83.0928 57.8909C83.1497 58.3872 83.3872 58.8453 83.76 59.1778C84.1329 59.5104 84.615 59.6942 85.1146 59.6942C85.6142 59.6942 86.0963 59.5104 86.4692 59.1778C86.842 58.8453 87.0795 58.3872 87.1364 57.8909C87.134 57.8453 87.134 57.7996 87.1364 57.7541C87.1386 57.7232 87.1386 57.6922 87.1364 57.6614V46.6606C87.1364 46.1209 86.922 45.6033 86.5403 45.2216C86.1587 44.84 85.6411 44.6256 85.1013 44.6256C84.5616 44.6256 84.044 44.84 83.6624 45.2216C83.2807 45.6033 83.0663 46.1209 83.0663 46.6606V57.6967C83.0708 57.754 83.0708 57.8115 83.0663 57.8688L83.0928 57.8909ZM71.8095 57.8909C71.8665 58.3872 72.1039 58.8453 72.4768 59.1778C72.8496 59.5104 73.3318 59.6942 73.8314 59.6942C74.3309 59.6942 74.8131 59.5104 75.1859 59.1778C75.5588 58.8453 75.7962 58.3872 75.8532 57.8909C75.8486 57.8336 75.8486 57.776 75.8532 57.7187V46.6827C75.8532 46.143 75.6387 45.6254 75.2571 45.2437C74.8755 44.8621 74.3578 44.6477 73.8181 44.6477C73.2784 44.6477 72.7608 44.8621 72.3791 45.2437C71.9975 45.6254 71.7831 46.143 71.7831 46.6827V57.6658C71.7809 57.6966 71.7809 57.7276 71.7831 57.7585C71.7936 57.7963 71.8024 57.8346 71.8095 57.8732V57.8909ZM89.3568 56.805H97.7928V51.3929H89.3568V56.805ZM78.0736 56.805H80.8723V51.3929H78.0736V56.805ZM85.0572 5.94649C85.0572 6.14827 85.1371 6.34185 85.2793 6.48494C85.4216 6.62804 85.6147 6.70901 85.8165 6.71018H94.8263V4.96649C94.8263 4.76511 94.7463 4.57199 94.6039 4.42959C94.4615 4.2872 94.2684 4.20721 94.067 4.20721H85.8165C85.6151 4.20721 85.422 4.2872 85.2796 4.42959C85.1372 4.57199 85.0572 4.76511 85.0572 4.96649V5.94649ZM53.0836 58.9945H3.1036C2.81091 58.9945 2.5302 58.8782 2.32324 58.6713C2.11627 58.4643 2 58.1836 2 57.8909V50.2893C2 49.9966 2.11627 49.7159 2.32324 49.5089C2.5302 49.3019 2.81091 49.1857 3.1036 49.1857H4.96649V4.96649C4.96649 4.17973 5.27903 3.42519 5.83535 2.86886C6.39167 2.31254 7.14621 2 7.93297 2H16.1835C16.9703 2 17.7248 2.31254 18.2811 2.86886C18.8375 3.42519 19.15 4.17973 19.15 4.96649V5.94649C19.1493 6.61217 18.9253 7.25839 18.514 7.78178C18.1026 8.30517 17.5277 8.67549 16.881 8.83351C17.0906 15.9597 19.6323 22.8203 24.1162 28.3629C24.2828 28.5925 24.3545 28.8775 24.3166 29.1586C24.2786 29.4397 24.1338 29.6954 23.9123 29.8727C23.6908 30.0499 23.4095 30.135 23.1269 30.1103C22.8443 30.0856 22.5821 29.9531 22.3946 29.7402C17.6132 23.8303 14.9012 16.5159 14.6738 8.91739H7.16928V49.1857H22.9199C23.2126 49.1857 23.4933 49.3019 23.7003 49.5089C23.9072 49.7159 24.0235 49.9966 24.0235 50.2893C24.0235 50.582 23.9072 50.8627 23.7003 51.0696C23.4933 51.2766 23.2126 51.3929 22.9199 51.3929H4.20721V56.7873H53.0836C53.3763 56.7873 53.657 56.9036 53.864 57.1105C54.0709 57.3175 54.1872 57.5982 54.1872 57.8909C54.1872 58.1836 54.0709 58.4643 53.864 58.6713C53.657 58.8782 53.3763 58.9945 53.0836 58.9945ZM7.17369 6.71018H16.1835C16.3853 6.70901 16.5784 6.62804 16.7207 6.48494C16.8629 6.34185 16.9428 6.14827 16.9428 5.94649V4.96649C16.9428 4.76511 16.8628 4.57199 16.7204 4.42959C16.578 4.2872 16.3849 4.20721 16.1835 4.20721H7.93297C7.83326 4.20721 7.73453 4.22685 7.64241 4.265C7.55029 4.30316 7.46659 4.35909 7.39608 4.42959C7.32558 4.5001 7.26965 4.5838 7.23149 4.67592C7.19333 4.76804 7.17369 4.86678 7.17369 4.96649V6.71018Z" fill="black"/>
</svg>
