<svg width="71" height="82" viewBox="0 0 71 82" fill="none" xmlns="http://www.w3.org/2000/svg">
<path d="M19.34 81.422C17.9409 81.4494 16.5797 80.966 15.5114 80.0622C13.0636 78.0014 12.6295 74.1937 12.551 72.9751C8.8584 66.8033 7.10624 55.0403 7.9274 50.4846C8.59165 46.7816 9.38143 34.7937 9.58542 31.5352C6.55727 29.751 4.21424 27.0037 2.93046 23.7319C1.64669 20.4601 1.49621 16.8525 2.50306 13.4851C3.5099 10.1178 5.616 7.18486 8.48506 5.15475C11.3541 3.12464 14.8207 2.1144 18.3312 2.28534C21.8417 2.45628 25.1937 3.79854 27.8519 6.09779C30.5101 8.39704 32.3213 11.5207 32.9963 14.9699C33.6712 18.4192 33.1709 21.9951 31.5753 25.1267C29.9798 28.2583 27.3809 30.765 24.1937 32.2465C24.3036 34.8616 24.9103 43.136 28.2315 50.788C30.8467 44.9196 36.8982 42.885 39.2832 42.2939C41.7572 23.606 53.8392 20.8496 57.7149 20.473C58.0497 18.3784 59.1423 16.4798 60.7851 15.1381C64.394 12.2248 69.6296 12.8315 69.8545 12.8576C70.1707 12.8972 70.4616 13.0508 70.6725 13.2896C70.8834 13.5285 70.9999 13.8361 71 14.1548V67.1642C70.9997 67.3788 70.9467 67.59 70.8456 67.7793C70.7444 67.9685 70.5982 68.13 70.4199 68.2494C70.2415 68.3688 70.0366 68.4425 69.8231 68.4639C69.6095 68.4854 69.394 68.4539 69.1955 68.3724C65.0845 66.683 60.942 61.8449 58.625 58.7852C55.8111 70.2919 43.2897 77.8236 21.338 81.2024L20.59 81.3174C20.1767 81.3849 19.7588 81.4199 19.34 81.422ZM12.1274 32.7224C11.8502 37.0165 11.1388 47.3674 10.506 50.924C9.77371 54.988 11.552 66.4685 14.9517 71.8872C15.0765 72.0905 15.145 72.3233 15.1505 72.5619C15.1505 73.6079 15.5741 76.6991 17.206 78.0694C17.6205 78.3964 18.103 78.6263 18.618 78.7422C19.133 78.858 19.6675 78.8569 20.1821 78.7389L20.9405 78.6186C43.4936 75.1456 55.4606 67.3368 56.5381 55.4012C56.5381 54.6323 56.0674 47.4667 49.1058 44.5639C48.8028 44.4197 48.5669 44.1645 48.4468 43.8512C48.3267 43.5378 48.3317 43.1903 48.4607 42.8805C48.5897 42.5707 48.8329 42.3224 49.1399 42.187C49.4469 42.0515 49.7942 42.0392 50.11 42.1527C57.9869 45.4321 59.0016 53.1364 59.1323 55.0141C60.0633 56.3792 64.1796 62.2267 68.3848 64.9831V15.3839C66.8994 15.3839 64.2842 15.6454 62.417 17.1622C61.0832 18.2397 60.3248 19.7774 60.1627 21.812C60.1275 22.1434 59.9694 22.4496 59.7197 22.6704C59.4699 22.8911 59.1465 23.0103 58.8133 23.0045C58.217 23.0045 44.0794 22.8214 41.7676 43.5022C41.7375 43.791 41.6114 44.0613 41.4094 44.27C41.2074 44.4786 40.9413 44.6134 40.6536 44.6528C40.277 44.7104 31.307 46.1225 29.8006 54.5225C29.2201 57.7653 29.0004 59.6011 28.8696 60.6942C28.6238 62.7498 28.5401 62.9642 27.4261 64.5281L26.903 65.2969C26.8099 65.4491 26.6866 65.5806 26.5407 65.6833C26.3948 65.786 26.2295 65.8577 26.0548 65.8942C25.8802 65.9306 25.6999 65.9309 25.5251 65.895C25.3504 65.8592 25.1848 65.7879 25.0386 65.6857C24.8924 65.5835 24.7686 65.4524 24.675 65.3005C24.5813 65.1487 24.5197 64.9793 24.494 64.8027C24.4683 64.6262 24.4789 64.4463 24.5253 64.274C24.5717 64.1017 24.6529 63.9408 24.7638 63.8011C24.9783 63.4925 25.1613 63.231 25.3235 63.0113C26.1185 61.8972 26.1185 61.8972 26.3016 60.3961C26.4271 59.3187 26.6415 57.556 27.175 54.512C22.7972 46.3631 21.8296 37.0165 21.6152 33.167C18.4823 34.0002 15.1686 33.8449 12.1274 32.7224ZM17.5669 4.8657C15.6398 4.86539 13.7364 5.29002 11.9921 6.10934C10.2479 6.92867 8.70575 8.12253 7.47559 9.60589C6.24543 11.0893 5.35749 12.8256 4.87502 14.6914C4.39255 16.5571 4.32741 18.5062 4.68426 20.4C5.0411 22.2937 5.81113 24.0855 6.93952 25.6477C8.06791 27.2099 9.52689 28.504 11.2125 29.438C12.8982 30.3719 14.7691 30.9227 16.6919 31.051C18.6147 31.1794 20.5421 30.8821 22.337 30.1805L22.4206 30.1439C25.2542 29.0182 27.6064 26.9395 29.072 24.2659C30.5377 21.5923 31.025 18.4913 30.4501 15.497C29.8751 12.5028 28.2739 9.8028 25.9223 7.86221C23.5707 5.92161 20.6158 4.86192 17.5669 4.8657ZM17.5669 27.0109C15.7791 27.012 14.0312 26.4828 12.5442 25.4903C11.0572 24.4978 9.89801 23.0866 9.21314 21.4352C8.52827 19.7838 8.34854 17.9664 8.69669 16.2129C9.04483 14.4593 9.9052 12.8484 11.169 11.5839C12.4328 10.3194 14.0432 9.4581 15.7965 9.10894C17.5499 8.75979 19.3674 8.93846 21.0192 9.62238C22.6709 10.3063 24.0828 11.4647 25.0761 12.9511C26.0695 14.4375 26.5997 16.1851 26.5997 17.9729C26.5969 20.3682 25.6445 22.6646 23.9513 24.3588C22.2581 26.053 19.9622 27.0068 17.5669 27.0109ZM17.5669 11.5501C16.2964 11.549 15.0541 11.9248 13.9971 12.63C12.9402 13.3351 12.1162 14.3378 11.6292 15.5114C11.1423 16.6849 11.0144 17.9765 11.2616 19.2227C11.5088 20.469 12.1201 21.6139 13.0182 22.5127C13.9162 23.4115 15.0607 24.0237 16.3067 24.272C17.5528 24.5202 18.8445 24.3933 20.0184 23.9073C21.1923 23.4214 22.1957 22.5981 22.9017 21.5418C23.6077 20.4854 23.9845 19.2435 23.9845 17.9729C23.9818 16.2712 23.3049 14.6399 22.1021 13.4362C20.8993 12.2324 19.2686 11.5542 17.5669 11.5501ZM17.5669 21.6498C16.8428 21.6498 16.1349 21.4351 15.5328 21.0328C14.9307 20.6305 14.4615 20.0587 14.1844 19.3897C13.9073 18.7207 13.8348 17.9845 13.976 17.2743C14.1173 16.5641 14.466 15.9118 14.978 15.3997C15.4901 14.8877 16.1424 14.539 16.8526 14.3977C17.5628 14.2564 18.299 14.329 18.968 14.6061C19.637 14.8832 20.2088 15.3524 20.6111 15.9545C21.0134 16.5566 21.2281 17.2645 21.2281 17.9886C21.2281 18.9596 20.8424 19.8909 20.1558 20.5775C19.4692 21.2641 18.5379 21.6498 17.5669 21.6498ZM17.5669 16.9112C17.36 16.9112 17.1578 16.9725 16.9857 17.0874C16.8137 17.2024 16.6796 17.3658 16.6005 17.5569C16.5213 17.748 16.5006 17.9584 16.5409 18.1613C16.5813 18.3642 16.6809 18.5506 16.8272 18.6969C16.9735 18.8432 17.1599 18.9428 17.3628 18.9832C17.5657 19.0235 17.7761 19.0028 17.9672 18.9237C18.1584 18.8445 18.3217 18.7104 18.4367 18.5384C18.5516 18.3664 18.613 18.1641 18.613 17.9572C18.615 17.8185 18.5895 17.6808 18.5379 17.5521C18.4863 17.4234 18.4095 17.3062 18.3122 17.2074C18.2148 17.1086 18.0988 17.0301 17.9709 16.9766C17.8429 16.923 17.7056 16.8954 17.5669 16.8955V16.9112Z" fill="black"/>
<path d="M17.4959 79.5779C16.0968 79.6053 14.7356 79.1219 13.6673 78.218C11.2195 76.1573 10.7854 72.3496 10.7069 71.131C7.01428 64.9592 5.26212 53.1961 6.08329 48.6405C6.74754 44.9375 7.53732 32.9495 7.7413 29.691C4.71315 27.9069 2.37012 25.1596 1.08635 21.8878C-0.197426 18.616 -0.347904 15.0084 0.65894 11.641C1.66579 8.27364 3.77189 5.34075 6.64094 3.31064C9.51 1.28053 12.9765 0.270285 16.487 0.441222C19.9975 0.612159 23.3495 1.95442 26.0078 4.25367C28.666 6.55292 30.4772 9.67656 31.1521 13.1258C31.8271 16.5751 31.3268 20.151 29.7312 23.2826C28.1356 26.4142 25.5368 28.9209 22.3496 30.4024C22.4595 33.0175 23.0662 41.2919 26.3874 48.9439C29.0026 43.0755 35.0541 41.0409 37.4391 40.4498C39.9131 21.7619 51.9951 19.0055 55.8708 18.6289C56.2055 16.5343 57.2982 14.6357 58.941 13.294C62.5499 10.3807 67.7855 10.9874 68.0104 11.0135C68.3266 11.053 68.6175 11.2067 68.8284 11.4455C69.0393 11.6844 69.1558 11.992 69.1558 12.3107V65.32C69.1556 65.5347 69.1026 65.7459 69.0014 65.9352C68.9003 66.1244 68.7541 66.2859 68.5758 66.4053C68.3974 66.5247 68.1925 66.5983 67.9789 66.6198C67.7654 66.6412 67.5499 66.6098 67.3514 66.5283C63.2403 64.8389 59.0979 60.0008 56.7809 56.9411C53.967 68.4478 41.4455 75.9795 19.4939 79.3583L18.7459 79.4733C18.3326 79.5408 17.9146 79.5758 17.4959 79.5779ZM10.2832 30.8783C10.006 35.1724 9.29471 45.5232 8.66184 49.0799C7.92959 53.1438 9.7079 64.6244 13.1076 70.043C13.2324 70.2464 13.3009 70.4792 13.3064 70.7178C13.3064 71.7638 13.73 74.8549 15.3619 76.2253C15.7763 76.5523 16.2588 76.7822 16.7739 76.898C17.2889 77.0139 17.8234 77.0128 18.338 76.8948L19.0963 76.7745C41.6495 73.3015 53.6165 65.4926 54.694 53.557C54.694 52.7882 54.2232 45.6226 47.2617 42.7198C46.9587 42.5756 46.7227 42.3204 46.6027 42.007C46.4826 41.6937 46.4876 41.3462 46.6166 41.0364C46.7456 40.7266 46.9888 40.4783 47.2958 40.3428C47.6028 40.2074 47.9501 40.1951 48.2659 40.3086C56.1428 43.588 57.1575 51.2923 57.2882 53.17C58.2192 54.5351 62.3355 60.3826 66.5407 63.139V13.5398C65.0553 13.5398 62.4401 13.8013 60.5729 15.3181C59.2391 16.3955 58.4807 17.9333 58.3186 19.9679C58.2834 20.2993 58.1253 20.6055 57.8755 20.8262C57.6258 21.047 57.3024 21.1662 56.9692 21.1604C56.3729 21.1604 42.2353 20.9773 39.9235 41.658C39.8934 41.9469 39.7673 42.2172 39.5653 42.4258C39.3633 42.6345 39.0972 42.7693 38.8095 42.8087C38.4329 42.8662 29.4629 44.2784 27.9565 52.6783C27.376 55.9211 27.1563 57.757 27.0255 58.8501C26.7797 60.9056 26.696 61.1201 25.582 62.684L25.0589 63.4528C24.9658 63.605 24.8424 63.7364 24.6966 63.8391C24.5507 63.9419 24.3853 64.0136 24.2107 64.05C24.036 64.0865 23.8558 64.0868 23.681 64.0509C23.5063 64.015 23.3407 63.9438 23.1945 63.8416C23.0483 63.7393 22.9245 63.6083 22.8309 63.4564C22.7372 63.3046 22.6756 63.1352 22.6499 62.9586C22.6242 62.7821 22.6348 62.6021 22.6812 62.4299C22.7276 62.2576 22.8088 62.0967 22.9197 61.9569C23.1342 61.6484 23.3172 61.3868 23.4794 61.1672C24.2744 60.0531 24.2744 60.0531 24.4574 58.552C24.583 57.4746 24.7974 55.7119 25.3309 52.6679C20.9531 44.519 19.9855 35.1724 19.7711 31.3229C16.6382 32.1561 13.3245 32.0008 10.2832 30.8783ZM15.7228 3.02158C13.7957 3.02127 11.8922 3.4459 10.148 4.26523C8.40376 5.08455 6.86164 6.27841 5.63148 7.76178C4.40131 9.24514 3.51338 10.9815 3.0309 12.8472C2.54843 14.713 2.4833 16.6621 2.84014 18.5559C3.19698 20.4496 3.96702 22.2414 5.09541 23.8036C6.2238 25.3658 7.68278 26.6599 9.36843 27.5939C11.0541 28.5278 12.9249 29.0786 14.8478 29.2069C16.7706 29.3352 18.698 29.038 20.4928 28.3364L20.5765 28.2998C23.41 27.174 25.7622 25.0953 27.2279 22.4218C28.6936 19.7482 29.1809 16.6472 28.6059 13.6529C28.031 10.6587 26.4298 7.95869 24.0782 6.01809C21.7265 4.07749 18.7717 3.01781 15.7228 3.02158ZM15.7228 25.1668C13.935 25.1678 12.1871 24.6386 10.7001 23.6462C9.21313 22.6537 8.05389 21.2425 7.36902 19.5911C6.68416 17.9397 6.50443 16.1223 6.85257 14.3688C7.20071 12.6152 8.06109 11.0043 9.32487 9.7398C10.5886 8.47529 12.1991 7.61399 13.9524 7.26483C15.7057 6.91567 17.5233 7.09435 19.175 7.77826C20.8268 8.46217 22.2387 9.62059 23.232 11.107C24.2254 12.5934 24.7556 14.341 24.7556 16.1288C24.7528 18.5241 23.8004 20.8205 22.1072 22.5147C20.414 24.2089 18.1181 25.1626 15.7228 25.1668ZM15.7228 9.70595C14.4522 9.70491 13.2099 10.0807 12.153 10.7858C11.0961 11.491 10.2721 12.4937 9.78512 13.6672C9.29819 14.8408 9.17025 16.1324 9.41748 17.3786C9.66472 18.6249 10.276 19.7698 11.1741 20.6686C12.0721 21.5674 13.2165 22.1796 14.4626 22.4278C15.7086 22.6761 17.0003 22.5492 18.1743 22.0632C19.3482 21.5772 20.3516 20.754 21.0576 19.6977C21.7636 18.6413 22.1404 17.3993 22.1404 16.1288C22.1376 14.4271 21.4608 12.7958 20.258 11.5921C19.0552 10.3883 17.4245 9.7101 15.7228 9.70595ZM15.7228 19.8057C14.9987 19.8057 14.2908 19.591 13.6887 19.1887C13.0866 18.7864 12.6174 18.2146 12.3402 17.5456C12.0631 16.8766 11.9906 16.1404 12.1319 15.4302C12.2732 14.72 12.6219 14.0676 13.1339 13.5556C13.6459 13.0436 14.2983 12.6949 15.0085 12.5536C15.7187 12.4123 16.4549 12.4848 17.1239 12.7619C17.7929 13.0391 18.3647 13.5083 18.767 14.1104C19.1693 14.7125 19.384 15.4204 19.384 16.1445C19.384 17.1155 18.9983 18.0468 18.3117 18.7334C17.6251 19.42 16.6938 19.8057 15.7228 19.8057ZM15.7228 15.067C15.5159 15.067 15.3136 15.1284 15.1416 15.2433C14.9696 15.3583 14.8355 15.5216 14.7563 15.7128C14.6772 15.9039 14.6565 16.1143 14.6968 16.3172C14.7372 16.5201 14.8368 16.7065 14.9831 16.8528C15.1294 16.9991 15.3158 17.0987 15.5187 17.1391C15.7216 17.1794 15.932 17.1587 16.1231 17.0795C16.3142 17.0004 16.4776 16.8663 16.5926 16.6943C16.7075 16.5222 16.7689 16.32 16.7689 16.1131C16.7709 15.9744 16.7454 15.8367 16.6938 15.708C16.6421 15.5792 16.5654 15.4621 16.4681 15.3633C16.3707 15.2645 16.2547 15.186 16.1268 15.1324C15.9988 15.0789 15.8615 15.0513 15.7228 15.0513V15.067Z" fill="white"/>
</svg>
