<svg width="36" height="36" viewBox="0 0 36 36" fill="none" xmlns="http://www.w3.org/2000/svg">
<path d="M5.70612 35.295H30.2168C33.017 35.295 35.295 33.017 35.295 30.2169V5.70613C35.295 2.90599 33.017 0.627945 30.2168 0.627945H5.70612C2.90597 0.627945 0.62793 2.90599 0.62793 5.70613V30.2169C0.62793 33.017 2.90597 35.295 5.70612 35.295ZM2.6592 5.70613C2.6592 4.0261 4.02608 2.65922 5.70612 2.65922H30.2168C31.8969 2.65922 33.2638 4.0261 33.2638 5.70613V30.2169C33.2638 31.8969 31.8969 33.2638 30.2168 33.2638H5.70612C4.02608 33.2638 2.6592 31.8969 2.6592 30.2169V5.70613Z" fill="white"/>
<path d="M17.9614 27.1022C23.0015 27.1022 27.1022 23.0016 27.1022 17.9615C27.1022 12.9214 23.0015 8.82076 17.9614 8.82076C12.9213 8.82076 8.82068 12.9214 8.82068 17.9615C8.82068 23.0016 12.9213 27.1022 17.9614 27.1022ZM17.9614 10.852C21.8817 10.852 25.0709 14.0412 25.0709 17.9615C25.0709 21.8817 21.8817 25.071 17.9614 25.071C14.0412 25.071 10.852 21.8817 10.852 17.9615C10.852 14.0412 14.0412 10.852 17.9614 10.852Z" fill="white"/>
<path d="M28.1178 10.852C29.7979 10.852 31.1647 9.48515 31.1647 7.80511C31.1647 6.12508 29.7979 4.7582 28.1178 4.7582C26.4378 4.7582 25.0709 6.12508 25.0709 7.80511C25.0709 9.48515 26.4378 10.852 28.1178 10.852ZM28.1178 6.78948C28.6778 6.78948 29.1335 7.24519 29.1335 7.80511C29.1335 8.36504 28.6778 8.82075 28.1178 8.82075C27.5579 8.82075 27.1022 8.36504 27.1022 7.80511C27.1022 7.24519 27.5579 6.78948 28.1178 6.78948Z" fill="white"/>
</svg>
