<svg width="88" height="96" viewBox="0 0 88 96" fill="none" xmlns="http://www.w3.org/2000/svg">
<path d="M44.6451 3.04123C44.5859 3.15137 44.5349 3.28735 44.5153 3.4483C44.4225 4.21386 45.0571 4.58009 45.2362 4.67065L45.3598 4.73316L45.4957 4.75972C46.2609 4.90922 47.0822 5.0125 47.8812 5.11297C48.0496 5.13415 48.2171 5.15521 48.3828 5.17654C49.3559 5.30184 50.2962 5.43951 51.1817 5.66809C52.9334 6.12025 54.3661 6.89916 55.2648 8.53642L55.3409 8.67502L55.456 8.78339C56.2944 9.57259 56.9649 10.084 57.4597 10.4613C57.4979 10.4904 57.5351 10.5188 57.5712 10.5464C58.113 10.9606 58.2726 11.114 58.356 11.2619C58.4144 11.3655 58.4909 11.5722 58.4464 12.2349C58.4018 12.8996 58.252 13.8494 58.0037 15.3468C57.9502 15.5955 57.9053 15.825 57.8651 16.0312L57.8639 16.0373C57.8221 16.2514 57.7863 16.4349 57.7486 16.6054C57.6727 16.9487 57.5997 17.1869 57.5005 17.3898C57.3369 17.7246 57.038 18.0963 56.1861 18.6336C56.1123 18.6506 56.0573 18.6713 56.0281 18.6829C55.8083 18.7704 55.6416 18.9232 55.5818 18.9781L55.5792 18.9804C55.4069 19.1383 55.195 19.3748 54.9748 19.6311C54.6889 19.9639 54.3254 20.4056 53.9136 20.906C53.677 21.1936 53.4245 21.5005 53.1614 21.8173C51.7089 23.5672 49.8735 25.6974 48.1613 27.1795C47.7003 27.4527 47.3333 27.7795 47.0929 28.2021C46.8356 28.6543 46.7879 29.105 46.7828 29.4662C46.7796 29.6862 46.7871 29.8758 46.794 30.0519C46.8111 30.4875 46.8249 30.8403 46.6669 31.3668L46.6105 31.5548L46.6293 31.7502C46.7637 33.1457 46.0192 34.7006 44.6404 35.8242C43.2789 36.9337 41.414 37.5198 39.5012 37.0841L39.4389 37.0699L39.3753 37.0638C36.6374 36.7993 35.1231 34.3545 35.1297 31.5451C35.1363 28.7457 36.6584 26.232 39.3897 25.8664C42.8979 25.6569 44.845 25.194 46.1717 23.6798C46.7984 22.9645 47.2351 22.07 47.675 21.0656C47.8098 20.7581 47.9459 20.4375 48.0895 20.0993C48.4141 19.3345 48.777 18.4799 49.2482 17.4829C50.1145 16.6158 50.7271 15.805 51.0771 15.0385C51.4511 14.2197 51.5496 13.3897 51.2531 12.6202C50.9636 11.8692 50.3663 11.3553 49.7207 11.0078C49.0741 10.6598 48.2988 10.4333 47.4959 10.2876C45.8873 9.99574 43.9754 9.99491 42.2731 10.1563C40.6718 10.3082 39.1312 10.6154 38.1481 11.0315C30.7127 12.1178 25.9924 15.7826 23.6386 20.5869C21.2916 25.3775 21.3678 31.1562 23.2106 36.3447C25.0545 41.5364 28.7038 46.2456 33.6576 48.8838C38.6102 51.5213 44.7897 52.0454 51.5873 49.0235C52.0339 48.9496 52.4807 48.7454 52.8626 48.5391C53.331 48.2861 53.8351 47.9543 54.3327 47.6043C54.8299 47.2547 55.344 46.8703 55.833 46.5047L55.8412 46.4985C56.3383 46.1268 56.8072 45.7764 57.2323 45.4795C57.264 45.4574 57.2951 45.4357 57.3258 45.4146C57.2659 45.5568 57.198 45.7115 57.1216 45.8795C57.0635 45.9708 56.9297 46.1258 56.6731 46.34C56.4049 46.564 56.0599 46.8059 55.6585 47.0627C55.1504 47.3878 54.6194 47.696 54.0862 48.0055C53.7483 48.2016 53.4095 48.3983 53.0751 48.6001C52.6663 48.8468 52.2702 49.0985 51.9456 49.343C51.657 49.5606 51.286 49.8713 51.084 50.2614C50.9707 50.4802 50.865 50.8124 50.9576 51.1956C51.0517 51.585 51.305 51.8403 51.5319 51.9921C51.9303 52.2586 52.4792 52.3638 53.011 52.4207L53.0259 52.4223L53.0409 52.4234C54.7684 52.5559 56.0084 51.3604 56.8133 50.5844C56.8398 50.5589 56.8657 50.5339 56.8912 50.5094C57.355 50.0634 57.6948 49.7401 58.0231 49.5391C58.136 49.47 58.2305 49.4259 58.313 49.4003C58.2828 49.4464 58.2454 49.5003 58.1989 49.5626C58.0987 49.6972 57.9816 49.8393 57.8454 50.0025C57.8308 50.0199 57.816 50.0377 57.8009 50.0557C57.6815 50.1987 57.5485 50.3579 57.4242 50.5175C57.1642 50.8513 56.822 51.3317 56.7028 51.887L56.5089 52.7904L57.3942 53.055C58.455 53.372 59.453 53.2006 60.3343 52.678C61.1788 52.1772 61.8905 51.3722 62.5044 50.4441C63.73 48.5916 64.7593 45.9442 65.6944 43.1991C66.133 41.9114 66.5432 40.6276 66.9464 39.3658C67.4322 37.8453 67.9079 36.3566 68.4108 34.9313C69.3264 32.3368 70.2154 30.3219 71.1389 29.2647L71.3723 28.9975L71.3851 28.6429C71.6826 20.4025 74.482 10.8217 78.3792 2.9825L78.3804 2.98006C78.6549 2.42413 79.0728 1.95429 79.5892 1.6195C80.1053 1.28489 80.7008 1.09737 81.3128 1.07604C82.4661 1.03784 83.7744 1.00699 84.9892 1.07504L84.991 1.07514C86.4354 1.1535 87.4086 2.68706 86.8318 4.09059C84.2878 10.2799 81.6537 16.5868 78.9872 22.9713C70.3806 43.5779 61.4365 64.9926 54.0958 85.8711L54.0957 85.8713C53.4199 87.795 52.4531 89.5891 51.1691 91.1193C49.2525 93.3979 47.2056 94.5392 45.1999 94.884C43.1864 95.23 41.1048 94.7919 39.0962 93.7145C35.0505 91.5444 31.4482 86.8481 29.7428 81.4248L29.7424 81.4235C28.0898 76.1935 26.1223 71.0698 23.8508 66.081C19.873 57.3141 16.653 47.9612 13.412 38.5239L13.3312 38.2886C10.1249 28.9519 6.89192 19.5377 2.89334 10.6276C2.69252 10.1204 2.4857 9.63862 2.28547 9.17221C1.84212 8.13951 1.43106 7.182 1.18894 6.1898C0.875332 4.90462 0.909375 3.76119 1.61182 2.65796C1.68312 2.62875 1.77508 2.59294 1.88835 2.55118C2.27269 2.40945 2.84023 2.22182 3.52581 2.0241C4.90119 1.62745 6.69993 1.20517 8.3981 1.02549L8.39816 1.02548C10.6633 0.785668 12.7742 2.26254 13.2947 4.48554L13.2948 4.48574C13.5131 5.41714 13.7926 6.36199 14.06 7.26574C14.1088 7.43042 14.1571 7.59374 14.2045 7.75536C14.5151 8.81264 14.7917 9.80438 14.9543 10.7332C15.1736 12.4443 17.4367 12.6961 18.1268 11.2263C19.2444 9.42807 21.2508 7.72354 23.6135 6.22183C25.9079 4.76361 28.4537 3.54936 30.6394 2.66319C32.22 2.73873 33.6801 2.24475 34.9486 1.81557C35.0092 1.79508 35.0693 1.77473 35.129 1.75461C35.6741 1.57077 36.1898 1.40161 36.6917 1.27058C36.5557 1.41977 36.2283 1.81444 36.2919 2.36576C36.3689 3.0323 36.9146 3.32173 37.1848 3.42729L44.6451 3.04123ZM44.6451 3.04123C44.102 3.09657 43.5028 3.16672 42.8807 3.23956C42.7202 3.25836 42.558 3.27734 42.395 3.29629C41.3849 3.41368 40.3407 3.52955 39.4619 3.58244C39.0227 3.60888 38.6051 3.6209 38.2421 3.60668C37.9065 3.59354 37.5138 3.55579 37.1849 3.4273L44.6451 3.04123ZM38.1724 2.61505C38.1729 2.61451 38.1734 2.61396 38.1739 2.61341C38.1539 2.6416 38.1465 2.64318 38.1724 2.61505ZM46.2492 4.18461C46.2493 4.18453 46.2503 4.18377 46.2523 4.18236C46.2503 4.18395 46.2492 4.18469 46.2492 4.18461ZM39.0735 78.8917C39.6861 79.9191 40.3875 80.6854 41.2231 81.0661C42.1163 81.4731 43.0112 81.3726 43.8062 80.9662C44.5598 80.5808 45.2327 79.9212 45.832 79.1641C46.44 78.396 47.0241 77.4607 47.5814 76.445C48.6952 74.4153 49.7562 71.9637 50.7229 69.6717C50.8638 69.3377 51.0025 69.0076 51.1389 68.6827C51.9502 66.7514 52.6835 65.0059 53.3371 63.7318C53.3542 63.6988 53.379 63.6532 53.4096 63.5967C53.6232 63.2028 54.1212 62.2846 54.2979 61.5064C54.3522 61.2675 54.3928 60.9795 54.3627 60.6833C54.3319 60.3799 54.2184 60.004 53.9042 59.7015C53.5877 59.3967 53.1911 59.2852 52.8314 59.2683C52.4819 59.2519 52.1112 59.32 51.7359 59.4326C48.1768 60.5001 44.6838 60.492 41.6319 60.2666C40.6967 60.1975 39.8436 60.1122 39.0326 60.0311C38.4899 59.9768 37.9661 59.9244 37.4492 59.8801C36.2262 59.7751 35.0698 59.7181 34.1334 59.8761C33.1739 60.038 32.2184 60.4708 31.7742 61.525C31.3761 62.4697 31.5134 63.6607 31.9235 65.0122C32.7574 67.7606 35.0294 72.1093 39.0735 78.8917Z" stroke="white" stroke-width="2"/>
</svg>
