<svg width="34" height="24" viewBox="0 0 34 24" fill="none" xmlns="http://www.w3.org/2000/svg">
<path d="M33.49 8.48515C33.4829 8.35332 33.4528 8.04513 33.4528 8.04513C33.226 4.98456 32.9425 1.17577 28.8827 0.456057C28.1455 0.324228 27.3428 0.199525 26.5312 0.176366C22.9764 0.0587886 19.8293 0 16.9089 0C12.6454 0 8.78938 0.124703 5.12478 0.381235C2.65808 0.543349 1.0083 2.05582 0.598954 4.52138C0.203786 6.92814 0.00708821 9.40973 0 11.9056C0 14.4014 0.203786 16.8812 0.598954 19.2898C1.0083 21.7642 2.65808 23.2678 5.12655 23.4299C8.79115 23.6864 12.6471 23.8111 16.9107 23.8111C17.3555 23.8111 17.802 23.8111 18.261 23.804C18.6845 23.804 19.0354 23.4513 19.0354 23.0184C19.0354 22.5855 18.6845 22.2328 18.2539 22.2328C17.802 22.2328 17.3555 22.2399 16.9107 22.2399C12.6826 22.2399 8.85672 22.1152 5.22933 21.8658C3.46259 21.7482 2.42594 20.7933 2.13355 19.0332C1.75256 16.7138 1.55586 14.3123 1.55586 11.9056C1.55586 9.49881 1.75256 7.09738 2.13178 4.77791C2.42417 3.00891 3.46791 2.05404 5.22756 1.94537C8.85672 1.69596 12.6755 1.57126 16.9089 1.57126C19.8151 1.57126 22.9463 1.63005 26.4886 1.7405C27.2046 1.76188 27.9346 1.87233 28.6133 1.99703C31.2927 2.46734 31.6436 4.63895 31.9058 8.1627C31.9058 8.1627 31.9271 8.4709 31.943 8.60273C32.0228 9.69655 32.0671 10.8046 32.06 11.9056C32.0671 13.0065 32.0228 14.1146 31.943 15.2084C31.9359 15.3403 31.9058 15.6484 31.9058 15.6484C31.6436 19.1722 31.2927 21.3438 28.6133 21.8141C27.9346 21.9388 27.2046 22.0493 26.4886 22.0707H26.4373C26.0137 22.0849 25.6859 22.4305 25.6859 22.8492C25.6859 23.2821 26.0368 23.6348 26.4603 23.6348H26.5329C27.3428 23.6134 28.1384 23.4887 28.8845 23.3551C32.9513 22.6354 33.2295 18.8266 33.4546 15.766C33.4546 15.766 33.4759 15.465 33.4918 15.326C33.5786 14.1948 33.6229 13.0439 33.6158 11.8984C33.6212 10.7672 33.5786 9.6146 33.49 8.48515Z" fill="white"/>
<path d="M20.6992 22.2631C20.2757 22.2631 19.9248 22.6087 19.9248 23.0416C19.9248 23.4745 20.2686 23.8201 20.6992 23.8201C21.1227 23.8201 21.4736 23.4745 21.4736 23.0416C21.4736 22.6087 21.1227 22.2631 20.6992 22.2631ZM21.3921 10.7458C20.2668 10.0992 19.1504 9.45428 18.0411 8.80761L17.8444 8.69003C17.8444 8.69003 15.6825 7.443 14.8727 6.97269C14.6689 6.85511 14.4421 6.79633 14.2082 6.79633C13.9743 6.79633 13.7475 6.86224 13.5437 6.97982C13.1272 7.2221 12.8792 7.65499 12.8792 8.13956V14.3052C12.8792 14.7381 13.23 15.0909 13.6606 15.0909C14.0912 15.0909 14.4421 14.7381 14.4421 14.3052V8.5297L14.6034 8.6259C15.3547 9.05879 17.0134 10.0208 17.0134 10.0208C18.05 10.6158 19.0796 11.2179 20.1233 11.8183L20.2917 11.9145L20.1233 12.0107C19.0282 12.6413 17.933 13.2738 16.845 13.9044L15.057 14.9394C14.8745 15.0428 14.7504 15.2102 14.692 15.4169C14.6406 15.6146 14.6636 15.8284 14.7646 16.0119C14.9028 16.2542 15.158 16.4002 15.4362 16.4002C15.5744 16.4002 15.7056 16.3628 15.8225 16.2969L17.7931 15.1586C18.991 14.4691 20.1871 13.7779 21.385 13.0814C21.8014 12.8391 22.0566 12.4062 22.0566 11.9216C22.0637 11.421 21.8085 10.9881 21.3921 10.7458Z" fill="white"/>
</svg>
