<svg width="26" height="26" viewBox="0 0 26 26" fill="none" xmlns="http://www.w3.org/2000/svg">
<path d="M3.71087 25.3329H21.622C23.6682 25.3329 25.3329 23.6682 25.3329 21.622V3.71087C25.3329 1.66467 23.6682 0 21.622 0H3.71087C1.66467 0 0 1.66467 0 3.71087V21.622C0 23.6682 1.66467 25.3329 3.71087 25.3329ZM1.48435 3.71087C1.48435 2.48319 2.48319 1.48435 3.71087 1.48435H21.622C22.8497 1.48435 23.8486 2.48319 23.8486 3.71087V21.622C23.8486 22.8497 22.8497 23.8486 21.622 23.8486H3.71087C2.48319 23.8486 1.48435 22.8497 1.48435 21.622V3.71087Z" fill="white"/>
<path d="M12.6664 19.346C16.3494 19.346 19.346 16.3495 19.346 12.6665C19.346 8.98341 16.3494 5.98688 12.6664 5.98688C8.98335 5.98688 5.98682 8.98341 5.98682 12.6665C5.98682 16.3495 8.98335 19.346 12.6664 19.346ZM12.6664 7.47123C15.5311 7.47123 17.8616 9.80173 17.8616 12.6665C17.8616 15.5312 15.5311 17.8617 12.6664 17.8617C9.80167 17.8617 7.47117 15.5312 7.47117 12.6665C7.47117 9.80173 9.80167 7.47123 12.6664 7.47123Z" fill="white"/>
<path d="M20.0881 7.47121C21.3158 7.47121 22.3146 6.47236 22.3146 5.24468C22.3146 4.017 21.3158 3.01816 20.0881 3.01816C18.8604 3.01816 17.8616 4.017 17.8616 5.24468C17.8616 6.47236 18.8604 7.47121 20.0881 7.47121ZM20.0881 4.50251C20.4973 4.50251 20.8303 4.83552 20.8303 5.24468C20.8303 5.65385 20.4973 5.98686 20.0881 5.98686C19.6789 5.98686 19.3459 5.65385 19.3459 5.24468C19.3459 4.83552 19.6789 4.50251 20.0881 4.50251Z" fill="white"/>
</svg>
