<svg width="34" height="19" viewBox="0 0 34 19" fill="none" xmlns="http://www.w3.org/2000/svg">
<path d="M32.4074 1.01676L32.3955 1.05395L32.3871 1.09208C32.3055 1.4622 32.0011 2.11893 31.5092 2.97427C31.0345 3.79964 30.4371 4.72322 29.8462 5.59497C29.2566 6.46482 28.68 7.27354 28.2499 7.86748C28.035 8.16424 27.8571 8.40691 27.7323 8.57693L27.7085 8.60924C27.6574 8.67882 27.6155 8.73593 27.5855 8.77709C27.5686 8.80033 27.553 8.82186 27.5409 8.83889C27.5355 8.84649 27.5268 8.85888 27.5179 8.87214C27.5165 8.87425 27.514 8.87796 27.5109 8.88287C27.5086 8.88605 27.5064 8.88926 27.5042 8.89249C27.3308 9.14207 27.0569 9.53614 27.0157 10.0145C26.9678 10.5705 27.2293 11.0288 27.5478 11.4192C27.7959 11.7572 28.2618 12.1863 28.6827 12.5738C28.699 12.5889 28.7153 12.6039 28.7316 12.6189L28.7479 12.634C29.2326 13.0805 29.7385 13.5465 30.1404 13.9934L30.1463 14L30.1524 14.0065C30.9441 14.8506 31.6215 15.6104 32.1397 16.2713C32.6653 16.9417 32.9768 17.4485 33.1034 17.7991C33.1501 17.9453 33.152 18.0284 33.1492 18.062C33.135 18.0704 33.1091 18.0833 33.0663 18.097C32.9769 18.1256 32.8359 18.15 32.6325 18.15H28.9122C28.6802 18.15 28.5206 18.1084 28.3705 18.0338C28.2036 17.9508 28.0109 17.8084 27.7359 17.5481C27.5129 17.3372 27.2697 17.0825 26.9616 16.76C26.884 16.6787 26.8022 16.5931 26.7156 16.5027C26.294 16.063 25.7828 15.5389 25.1366 14.9309L25.1309 14.9256L25.1251 14.9203C22.8963 12.8993 21.7583 12.45 20.8604 12.45C20.4769 12.45 19.8563 12.4779 19.4335 12.9729C19.2322 13.2086 19.1378 13.4805 19.089 13.7234C19.0408 13.9637 19.0272 14.2285 19.0272 14.5V17.65C19.0272 17.82 19.0108 17.8876 19.0027 17.9104C18.9991 17.9133 18.993 17.9178 18.9837 17.9237C18.8418 18.0127 18.4042 18.15 17.2198 18.15C13.6024 18.15 9.50733 16.0676 6.55515 12.0932L6.5552 12.0931L6.54917 12.0852C4.27729 9.1003 2.84344 6.48942 1.98059 4.52667C1.54893 3.54477 1.26181 2.7288 1.08409 2.11281C0.898947 1.47111 0.85 1.10578 0.85 1C0.85 0.954256 0.852739 0.922981 0.855695 0.902681C0.906239 0.882972 1.02803 0.85 1.27554 0.85H4.99586C5.35191 0.85 5.45314 0.921831 5.50012 0.961955C5.58421 1.03378 5.6998 1.19329 5.87594 1.62863C6.80228 4.18773 8.0536 6.58192 9.24339 8.34962C9.83799 9.23302 10.4325 9.9828 10.9798 10.5225C11.2528 10.7916 11.5327 11.0271 11.812 11.2005C12.0769 11.3649 12.4228 11.525 12.8085 11.525C12.9755 11.525 13.2079 11.5097 13.4452 11.4108C13.7081 11.3013 13.9185 11.1144 14.0647 10.8676C14.3092 10.4549 14.3495 9.9038 14.3495 9.35V4.2V4.1712L14.3475 4.14246C14.2548 2.77547 13.8074 1.97908 13.365 1.4137C13.2724 1.29538 13.1813 1.18863 13.1075 1.10228C13.1004 1.09399 13.0935 1.08589 13.0868 1.07798C13.0039 0.980859 12.9504 0.916636 12.9093 0.859987C12.9084 0.858744 12.9075 0.857516 12.9066 0.856304C12.9224 0.852697 12.9426 0.85 12.968 0.85H18.8142C18.8988 0.85 18.9546 0.856382 18.9887 0.86261C18.9907 0.86981 18.9928 0.87807 18.995 0.887465C19.0127 0.964104 19.0272 1.08655 19.0272 1.275V8.225C19.0272 9.19475 19.5374 10.075 20.4618 10.075C21.3287 10.075 21.9392 9.55211 22.7715 8.76909L22.7875 8.75404L22.8027 8.73819C24.2169 7.26283 25.4006 5.40412 26.222 3.94117C26.6356 3.20471 26.9632 2.5579 27.1879 2.0941C27.3004 1.86203 27.3873 1.67532 27.4466 1.54556C27.4762 1.48067 27.499 1.42998 27.5146 1.39496L27.5325 1.35432L27.5358 1.34693C27.6171 1.16995 27.7026 1.06159 27.7982 0.992649C27.8865 0.928997 28.0506 0.85 28.3808 0.85H32.1011C32.2633 0.85 32.3729 0.864592 32.4426 0.880397C32.4361 0.915478 32.4253 0.96062 32.4074 1.01676ZM0.862925 0.870866C0.862996 0.870964 0.862555 0.872405 0.861389 0.874893C0.862271 0.872012 0.862855 0.870767 0.862925 0.870866ZM12.857 0.775197C12.8572 0.775301 12.8581 0.777131 12.8589 0.780372C12.8573 0.776714 12.8568 0.775093 12.857 0.775197Z" stroke="white" stroke-width="1.7"/>
</svg>
