<svg width="28" height="42" viewBox="0 0 28 42" fill="none" xmlns="http://www.w3.org/2000/svg">
<path d="M14.0791 0.480835C10.521 0.480835 7.10872 1.90612 4.5928 4.44314C2.07688 6.98017 0.663452 10.4211 0.663452 14.009C0.663452 19.6211 8.2328 33.331 11.9997 39.8066C12.2123 40.1723 12.5161 40.4755 12.8809 40.6862C13.2456 40.8969 13.6587 41.0077 14.0791 41.0077C14.4995 41.0077 14.9125 40.8969 15.2773 40.6862C15.6421 40.4755 15.9459 40.1723 16.1585 39.8066C19.9254 33.331 27.4947 19.6211 27.4947 14.009C27.4947 10.4211 26.0813 6.98017 23.5654 4.44314C21.0494 1.90612 17.6371 0.480835 14.0791 0.480835V0.480835ZM13.8695 19.359C12.8288 19.3175 11.8232 18.9684 10.9777 18.3551C10.1323 17.7418 9.48436 16.8914 9.11452 15.9096C8.74467 14.9279 8.66926 13.8581 8.89766 12.8335C9.12607 11.8088 9.6482 10.8745 10.3991 10.1468C11.15 9.41903 12.0965 8.93001 13.1209 8.74052C14.1453 8.55104 15.2023 8.66947 16.1605 9.08108C17.1186 9.49269 17.9356 10.1793 18.5098 11.0555C19.084 11.9317 19.39 12.9588 19.3898 14.009C19.3869 14.7292 19.2405 15.4414 18.9593 16.1034C18.6781 16.7654 18.2679 17.3636 17.753 17.8627C17.2381 18.3617 16.629 18.7513 15.9619 19.0083C15.2947 19.2654 14.5832 19.3846 13.8695 19.359Z" fill="#FF5A5A"/>
<path d="M14.0789 0.480835C13.8012 0.480835 13.5266 0.48929 13.253 0.5062C16.6615 0.718466 19.8614 2.23348 22.2005 4.74243C24.5396 7.25138 25.8418 10.5654 25.8417 14.009C25.8417 19.6211 18.2724 33.331 14.5044 39.8066C14.2227 40.2981 13.7769 40.6726 13.2467 40.8635C13.7772 41.0584 14.3587 41.0594 14.8899 40.8663C15.421 40.6731 15.8681 40.2981 16.1531 39.8066C19.9252 33.331 27.4945 19.6211 27.4945 14.009C27.4945 10.4211 26.0811 6.98017 23.5652 4.44315C21.0493 1.90612 17.637 0.480835 14.0789 0.480835V0.480835ZM10.4263 14.213C10.3766 12.9027 10.8052 11.6195 11.631 10.6066C12.4568 9.59365 13.6224 8.92139 14.9069 8.71717C14.6333 8.67425 14.3568 8.6527 14.08 8.6527C12.694 8.65926 11.3654 9.21195 10.378 10.1928C9.39061 11.1736 8.82259 12.5048 8.79523 13.9022C8.76786 15.2995 9.28333 16.6523 10.2316 17.6717C11.1798 18.691 12.4857 19.2962 13.8703 19.3579C14.2209 19.3721 14.5719 19.3516 14.9184 19.2966C13.7029 19.1021 12.5916 18.4896 11.7728 17.5631C10.9541 16.6365 10.4783 15.4529 10.4263 14.213Z" fill="#E05151"/>
</svg>
