<svg width="861" height="1209" viewBox="0 0 861 1209" fill="none" xmlns="http://www.w3.org/2000/svg">
<path d="M536.8 1033.39C541.218 1033.39 544.8 1029.81 544.8 1025.39C544.8 1020.97 541.218 1017.39 536.8 1017.39C532.382 1017.39 528.8 1020.97 528.8 1025.39C528.8 1029.81 532.382 1033.39 536.8 1033.39Z" stroke="white" stroke-width="3" stroke-linejoin="round"/>
<path d="M536.58 1044.5C546.643 1044.5 554.8 1035.8 554.8 1025.06C554.8 1014.33 546.643 1005.62 536.58 1005.62C526.517 1005.62 518.36 1014.33 518.36 1025.06C518.36 1035.8 526.517 1044.5 536.58 1044.5Z" stroke="white" stroke-width="3" stroke-linejoin="round"/>
<path d="M530.89 1006.59C529.065 1005.93 527.14 1005.59 525.2 1005.59C515.13 1005.59 506.97 1014.3 506.97 1025.04C506.97 1035.78 515.13 1044.48 525.2 1044.48C527.143 1044.47 529.07 1044.14 530.9 1043.48" stroke="white" stroke-width="3" stroke-linejoin="round"/>
<path d="M542.56 1030.95V1030.94" stroke="white" stroke-width="3" stroke-linejoin="round"/>
<path d="M465.91 1033.49C463.721 1033.42 461.646 1032.49 460.124 1030.92C458.601 1029.34 457.751 1027.24 457.751 1025.05C457.751 1022.86 458.601 1020.75 460.124 1019.18C461.646 1017.6 463.721 1016.68 465.91 1016.6" stroke="white" stroke-width="3" stroke-linejoin="round"/>
<path d="M462.84 1043.43C458.492 1042.7 454.542 1040.46 451.694 1037.1C448.845 1033.73 447.282 1029.47 447.282 1025.06C447.282 1020.65 448.845 1016.38 451.694 1013.02C454.542 1009.65 458.492 1007.41 462.84 1006.68" stroke="white" stroke-width="3" stroke-linejoin="round"/>
<path d="M476.38 1016.61C475.061 1014.01 473.148 1011.75 470.796 1010.03C468.443 1008.3 465.718 1007.16 462.84 1006.68C461.829 1006.51 460.806 1006.42 459.78 1006.42C454.912 1006.53 450.282 1008.55 446.88 1012.03C443.477 1015.51 441.572 1020.19 441.572 1025.06C441.572 1029.93 443.477 1034.6 446.88 1038.08C450.282 1041.57 454.912 1043.58 459.78 1043.69C460.806 1043.69 461.829 1043.6 462.84 1043.43C465.718 1042.96 468.443 1041.81 470.796 1040.08C473.148 1038.36 475.061 1036.1 476.38 1033.5" stroke="white" stroke-width="3" stroke-linejoin="round"/>
<path d="M465.91 1016.61H508.76" stroke="white" stroke-width="3" stroke-linejoin="round"/>
<path d="M465.91 1033.5H508.34" stroke="white" stroke-width="3" stroke-linejoin="round"/>
<path d="M497.5 1016.61L501.06 1008.5C494.12 1007.5 491.4 999.302 490.43 994.872C490.25 994.041 490.288 993.178 490.54 992.367C490.792 991.556 491.251 990.823 491.87 990.242L500.2 982.362C500.826 981.77 501.632 981.405 502.489 981.325C503.347 981.245 504.206 981.455 504.93 981.922L546.5 1008.78" stroke="white" stroke-width="3" stroke-linejoin="round"/>
<path d="M503.5 988.132C503.5 988.132 506.02 1000.06 513.28 1004.35L510.49 1013.61" stroke="white" stroke-width="3" stroke-linecap="round" stroke-linejoin="round"/>
<path d="M553.8 1018.71L747.5 1116.06C747.5 1116.06 747.96 1125.39 754.62 1125.06C761.28 1124.73 754.62 1152.98 754.62 1152.98" stroke="white" stroke-width="3" stroke-linecap="round" stroke-linejoin="round"/>
<path d="M490.39 994.872C490.39 994.872 429.24 964.502 404.39 938.282C404.39 938.282 375.95 912.062 385.73 887.612C395.51 863.162 471.95 919.612 471.95 919.612C471.95 919.612 516.84 957.842 539.06 966.282C561.28 974.722 668.39 1018.73 695.95 1038.28C723.51 1057.83 819.95 1100.06 833.73 1112.95C847.51 1125.84 885.28 1145.84 917.28 1143.17C917.28 1143.17 908.39 1157.84 808.84 1141.39C808.84 1141.39 792.1 1122.39 766.02 1120.95" stroke="white" stroke-width="3" stroke-linecap="round" stroke-linejoin="round"/>
<path d="M824.26 1177.25C828.452 1177.25 831.85 1173.67 831.85 1169.25C831.85 1164.83 828.452 1161.25 824.26 1161.25C820.068 1161.25 816.67 1164.83 816.67 1169.25C816.67 1173.67 820.068 1177.25 824.26 1177.25Z" stroke="white" stroke-width="3" stroke-linejoin="round"/>
<path d="M824.04 1188.36C833.595 1188.36 841.34 1179.66 841.34 1168.92C841.34 1158.19 833.595 1149.48 824.04 1149.48C814.485 1149.48 806.74 1158.19 806.74 1168.92C806.74 1179.66 814.485 1188.36 824.04 1188.36Z" stroke="white" stroke-width="3" stroke-linejoin="round"/>
<path d="M818.64 1150.49C816.916 1149.83 815.086 1149.49 813.24 1149.49C803.69 1149.49 795.94 1158.2 795.94 1168.94C795.94 1179.68 803.69 1188.38 813.24 1188.38C815.088 1188.37 816.921 1188.03 818.65 1187.38" stroke="white" stroke-width="3" stroke-linejoin="round"/>
<path d="M742.27 1168.62C740.045 1168.37 738.011 1167.24 736.617 1165.49C735.223 1163.74 734.582 1161.5 734.835 1159.28C735.088 1157.05 736.215 1155.02 737.968 1153.62C739.72 1152.23 741.955 1151.59 744.18 1151.84" stroke="white" stroke-width="3" stroke-linejoin="round"/>
<path d="M738.1 1178.14C733.858 1176.93 730.184 1174.25 727.73 1170.59C725.277 1166.92 724.203 1162.51 724.701 1158.12C725.199 1153.74 727.236 1149.68 730.45 1146.65C733.663 1143.63 737.845 1141.85 742.25 1141.62" stroke="white" stroke-width="3" stroke-linejoin="round"/>
<path d="M754.58 1153.02C753.117 1149.1 750.375 1145.78 746.798 1143.61C743.22 1141.44 739.015 1140.53 734.86 1141.04C730.705 1141.55 726.843 1143.44 723.896 1146.42C720.948 1149.39 719.088 1153.27 718.615 1157.43C718.141 1161.59 719.082 1165.78 721.286 1169.34C723.49 1172.9 726.828 1175.61 730.762 1177.04C734.697 1178.47 738.998 1178.54 742.972 1177.22C746.947 1175.91 750.363 1173.29 752.67 1169.8" stroke="white" stroke-width="3" stroke-linejoin="round"/>
<path d="M744.18 1151.84L798.81 1158.05" stroke="white" stroke-width="3" stroke-linejoin="round"/>
<path d="M742.27 1168.62L795.9 1174.72" stroke="white" stroke-width="3" stroke-linejoin="round"/>
<path d="M780.75 1156C780.75 1156 792.97 1142.18 789.11 1127.12" stroke="white" stroke-width="3" stroke-linecap="round" stroke-linejoin="round"/>
<path d="M772.06 1144.06C772.06 1144.06 779.5 1141.94 777.23 1131.5" stroke="white" stroke-width="3" stroke-linecap="round" stroke-linejoin="round"/>
<path d="M804 1136.84C804 1136.84 794.87 1145.11 802.28 1153.84" stroke="white" stroke-width="3" stroke-linecap="round" stroke-linejoin="round"/>
<path d="M477.5 924.242C477.5 924.242 520.68 912.652 526.9 903.762C533.12 894.872 526.31 887.472 521.27 876.762C516.23 866.052 512.27 858.392 508.79 854.242C505.31 850.092 495.69 815.722 503.44 805.942C511.19 796.162 507.35 789.352 497.27 783.722C487.19 778.092 480.68 752.022 484.53 736.022C488.38 720.022 503.2 712.312 501.12 692.172C499.04 672.032 500.24 660.762 500.24 660.762C500.24 660.762 544.09 667.872 560.38 681.502C576.67 695.132 618.75 706.092 627.64 709.942C636.53 713.792 669.72 721.802 680.09 726.832C690.46 731.862 710.01 738.982 703.79 760.912C697.57 782.842 699.64 863.132 699.64 863.132C699.64 863.132 691.94 941.062 695.49 952.312C699.04 963.562 707.96 1011.57 688.49 1033.5" stroke="white" stroke-width="3" stroke-linecap="round" stroke-linejoin="round"/>
<path d="M381.98 414.282C381.98 414.282 424.98 405.692 445.98 412.502C466.98 419.312 486.28 430.582 489.24 445.982C492.2 461.382 485.39 550.282 492.5 566.872C499.61 583.462 500.21 660.802 500.21 660.802" stroke="white" stroke-width="3" stroke-linecap="round" stroke-linejoin="round"/>
<path d="M372.35 496.062C372.35 496.062 377.24 583.612 386.58 600.952C395.92 618.292 393.84 626.132 393.84 626.132" stroke="white" stroke-width="3" stroke-linecap="round" stroke-linejoin="round"/>
<path d="M489.98 471.172C489.98 471.172 518.13 493.392 544.35 498.062C570.57 502.732 589.46 522.062 600.35 522.732C611.24 523.402 613.72 522.732 613.72 522.732" stroke="white" stroke-width="3" stroke-linecap="round" stroke-linejoin="round"/>
<path d="M433.14 809.412C433.14 809.412 444.14 794.062 456.58 796.732C469.02 799.402 468.8 801.612 479.24 800.062C489.68 798.512 502.12 808.182 502.12 808.182" stroke="white" stroke-width="3" stroke-linecap="round" stroke-linejoin="round"/>
<path d="M700.02 1002.86C700.02 1002.86 737.65 998.552 756.89 1012.42" stroke="white" stroke-width="3" stroke-linecap="round" stroke-linejoin="round"/>
<path d="M642.13 617.392C642.13 617.392 703.02 628.062 731.02 650.732" stroke="white" stroke-width="3" stroke-linecap="round" stroke-linejoin="round"/>
<path d="M611.5 574.282C611.5 574.282 664.72 579.532 693.22 591.132" stroke="white" stroke-width="3" stroke-linecap="round" stroke-linejoin="round"/>
<path d="M582.8 535.342C582.8 535.342 595.8 548.762 645.95 554.072" stroke="white" stroke-width="3" stroke-linecap="round" stroke-linejoin="round"/>
<path d="M431.58 819.302C431.58 819.302 462.8 833.612 460.8 853.612C458.8 873.612 431.88 886.282 431.88 886.282" stroke="white" stroke-width="3" stroke-linecap="round" stroke-linejoin="round"/>
<path d="M496.31 804.492C496.31 804.492 479.5 823.612 473.24 825.612C466.98 827.612 477.36 863.762 511.75 858.472" stroke="white" stroke-width="3" stroke-linecap="round" stroke-linejoin="round"/>
<path d="M769.09 1026.31C754.71 1027.97 724.59 1055.05 724.59 1055.05" stroke="white" stroke-width="3" stroke-linecap="round" stroke-linejoin="round"/>
<path d="M793.85 1090.11C793.85 1090.11 801.78 1076.21 807.29 1074.43C812.8 1072.65 769.09 1050.25 769.09 1038.28V1026.28" stroke="white" stroke-width="3" stroke-linecap="round" stroke-linejoin="round"/>
<path d="M836.64 1115.52L885.77 1114.39" stroke="white" stroke-width="3" stroke-linecap="round" stroke-linejoin="round"/>
<path d="M617.66 117.622C617.66 117.622 617.24 194.732 646.13 209.392C675.02 224.052 717.13 196.122 724.5 185.542" stroke="white" stroke-width="3" stroke-linecap="round" stroke-linejoin="round"/>
<path d="M426.58 205.392C426.58 205.392 418.72 165.842 441.09 157.842" stroke="white" stroke-width="3" stroke-linecap="round" stroke-linejoin="round"/>
<path d="M517.69 211.172C517.69 211.172 427.61 374.732 406.21 398.282" stroke="white" stroke-width="3" stroke-linecap="round" stroke-linejoin="round"/>
<path d="M614.37 395.612C614.37 395.612 520.37 363.112 515.6 353.092" stroke="white" stroke-width="3" stroke-linecap="round" stroke-linejoin="round"/>
<path d="M511.5 301.842C511.5 301.842 529.73 342.572 547.5 353.092" stroke="white" stroke-width="3" stroke-linecap="round" stroke-linejoin="round"/>
<path d="M637.69 353.092C637.69 353.092 530.96 338.092 523.56 324.802" stroke="white" stroke-width="3" stroke-linecap="round" stroke-linejoin="round"/>
<path d="M577.24 249.842C579.02 251.172 616.35 281.102 740.35 259.242" stroke="white" stroke-width="3" stroke-linecap="round" stroke-linejoin="round"/>
<path d="M713.19 343.942C713.19 343.942 640.34 351.712 617.66 436.502" stroke="white" stroke-width="3" stroke-linecap="round" stroke-linejoin="round"/>
<path d="M523.56 448.492C523.56 448.492 565.69 427.602 606.56 460.942" stroke="white" stroke-width="3" stroke-linecap="round" stroke-linejoin="round"/>
<path d="M558.5 502.072C547.74 483.202 523.58 460.952 523.58 460.952C523.58 460.952 564.82 482.282 577.26 484.062" stroke="white" stroke-width="3" stroke-linecap="round" stroke-linejoin="round"/>
<path d="M442.02 411.492C442.02 411.492 489.24 393.882 511.46 395.652" stroke="white" stroke-width="3" stroke-linecap="round" stroke-linejoin="round"/>
<path d="M477.5 419.172C477.5 419.172 516.38 406.732 543.94 419.172" stroke="white" stroke-width="3" stroke-linecap="round" stroke-linejoin="round"/>
<path d="M497.98 423.912C497.98 423.912 517.09 427.172 522.13 433.102" stroke="white" stroke-width="3" stroke-linecap="round" stroke-linejoin="round"/>
<path d="M872.61 1135.49C872.61 1135.49 893.69 1133.41 886.87 1116.82C880.05 1100.23 863.5 1094.87 863.5 1094.87C863.5 1094.87 831.09 1078.87 831.89 1060.8C832.69 1042.73 809.28 1051.02 809.28 1051.02C809.28 1051.02 806.85 1048.35 807.28 1040.35C807.71 1032.35 777.65 1033.54 777.65 1033.54C777.65 1033.54 767.5 1022.87 757.5 1020.8C747.5 1018.73 759.5 1001.24 789.82 1007.8C789.82 1007.8 815.13 928.392 813.05 911.802C810.97 895.212 821.65 811.362 813.35 798.912C805.05 786.462 811.57 755.062 811.57 755.062C811.57 755.062 819.57 691.362 793.5 670.912C767.43 650.462 660.21 564.212 629.24 541.392C598.27 518.572 622.87 510.872 622.87 510.872C622.87 510.872 628.5 491.322 618.43 477.982C608.36 464.642 646.28 424.982 646.28 424.982L729.28 324.532L794.76 318.612C794.76 318.612 824.39 302.902 828.84 292.242C833.29 281.582 1027.95 341.422 1036.54 342.312C1045.13 343.202 1089.54 371.642 1100.25 376.092C1110.96 380.542 1176.1 387.352 1188.54 365.422C1188.54 365.422 1187.36 358.012 1179.95 359.792C1179.95 359.792 1182.02 345.872 1170.76 345.572C1170.76 345.572 1173.43 334.572 1160.69 333.132C1160.69 333.132 1149.43 330.462 1143.21 324.532C1136.99 318.602 1106.47 333.422 1055.21 303.202C1003.95 272.982 893.43 250.462 893.43 250.462C893.43 250.462 807.21 228.242 793.28 206.012C793.28 206.012 736.69 180.242 724.54 185.572C724.54 185.572 743.54 158.012 746.47 156.242C749.4 154.472 766.91 171.942 774.91 170.762C782.91 169.582 795.36 162.462 783.21 144.092C771.06 125.722 776.69 102.902 781.73 91.9417C786.77 80.9817 792.1 53.4217 771.65 38.0117C751.2 22.6017 728.65 7.79168 728.65 7.79168C728.65 7.79168 693.39 -9.12832 663.5 14.8717C633.61 38.8717 639.8 50.7317 639.8 50.7317C639.8 50.7317 628.5 56.9517 626.43 65.2417C624.36 73.5317 614.58 98.1317 619.32 114.132C619.32 114.132 616.32 129.242 587.91 123.912C559.5 118.582 523.61 116.212 515.91 116.502C508.4 116.792 422.58 128.502 402.09 140.882C401.256 141.412 400.379 141.874 399.47 142.262C391.71 145.432 374.89 158.672 365.33 166.472C361.734 169.403 358.425 172.671 355.45 176.232C338.86 196.182 297.11 208.712 297.11 208.712C297.11 208.712 186.59 231.222 135.33 261.492C84.07 291.762 53.56 276.892 47.33 282.822C41.1 288.752 29.85 291.412 29.85 291.412C17.11 292.892 19.78 303.862 19.78 303.862C8.52 304.152 10.59 318.082 10.59 318.082C3.19 316.302 2 323.712 2 323.712C14.44 345.632 79.63 338.822 90.3 334.382C100.97 329.942 145.41 301.492 154 300.602C162.59 299.712 396.21 247.892 400.65 258.602" stroke="white" stroke-width="3" stroke-linecap="round" stroke-linejoin="round"/>
<path d="M361.01 170.282C361.01 170.282 418.43 173.572 400.65 258.522C398.18 267.402 392.43 291.202 403.29 303.902C405.551 306.407 408.473 308.224 411.72 309.142C427.54 314.142 386.13 387.022 386.13 387.022C386.13 387.022 387.61 404.502 381.98 414.282C376.35 424.062 345.84 451.282 342.28 457.542C338.72 463.802 315.91 515.612 324.8 543.492C333.69 571.372 324.8 596.232 393.8 626.152C393.8 626.152 393.8 661.152 407.72 678.302L405.05 726.892C405.05 726.892 406.24 758.602 413.65 771.342C421.06 784.082 432.91 792.972 433.2 803.632C433.49 814.292 431.13 824.632 426.68 828.822C422.23 833.012 426.68 846.002 426.68 846.002C426.68 846.002 416.91 856.082 427.28 860.822C437.65 865.562 430.39 893.382 430.39 893.382" stroke="white" stroke-width="3" stroke-linecap="round" stroke-linejoin="round"/>
<path d="M793.24 205.982C793.24 205.982 843.91 250.982 828.8 292.212" stroke="white" stroke-width="3" stroke-linecap="round" stroke-linejoin="round"/>
<path d="M403.29 303.902C403.29 303.902 381.5 303.352 375.66 258.492" stroke="white" stroke-width="3" stroke-linecap="round" stroke-linejoin="round"/>
<path d="M639.76 50.7317C639.76 50.7317 661.39 57.5417 669.69 72.6517C677.99 87.7617 691.02 117.392 709.39 129.542C727.76 141.692 746.39 156.212 746.39 156.212" stroke="white" stroke-width="3" stroke-linecap="round" stroke-linejoin="round"/>
<path d="M660.06 61.6516C660.06 61.6516 746 127.122 777.92 132.782" stroke="white" stroke-width="3" stroke-linecap="round" stroke-linejoin="round"/>
<path d="M548.8 1052.39C553.218 1052.39 556.8 1048.81 556.8 1044.39C556.8 1039.97 553.218 1036.39 548.8 1036.39C544.382 1036.39 540.8 1039.97 540.8 1044.39C540.8 1048.81 544.382 1052.39 548.8 1052.39Z" stroke="black" stroke-width="3" stroke-linejoin="round"/>
<path d="M548.58 1063.5C558.643 1063.5 566.8 1054.8 566.8 1044.06C566.8 1033.33 558.643 1024.62 548.58 1024.62C538.517 1024.62 530.36 1033.33 530.36 1044.06C530.36 1054.8 538.517 1063.5 548.58 1063.5Z" stroke="black" stroke-width="3" stroke-linejoin="round"/>
<path d="M542.89 1025.59C541.065 1024.93 539.14 1024.59 537.2 1024.59C527.13 1024.59 518.97 1033.3 518.97 1044.04C518.97 1054.78 527.13 1063.48 537.2 1063.48C539.143 1063.47 541.07 1063.14 542.9 1062.48" stroke="black" stroke-width="3" stroke-linejoin="round"/>
<path d="M554.56 1049.95V1049.94" stroke="black" stroke-width="3" stroke-linejoin="round"/>
<path d="M477.91 1052.49C475.721 1052.42 473.646 1051.49 472.124 1049.92C470.601 1048.34 469.751 1046.24 469.751 1044.05C469.751 1041.86 470.601 1039.75 472.124 1038.18C473.646 1036.6 475.721 1035.68 477.91 1035.6" stroke="black" stroke-width="3" stroke-linejoin="round"/>
<path d="M474.84 1062.43C470.492 1061.7 466.542 1059.46 463.694 1056.1C460.845 1052.73 459.282 1048.47 459.282 1044.06C459.282 1039.65 460.845 1035.38 463.694 1032.02C466.542 1028.65 470.492 1026.41 474.84 1025.68" stroke="black" stroke-width="3" stroke-linejoin="round"/>
<path d="M488.38 1035.61C487.061 1033.01 485.148 1030.75 482.796 1029.03C480.443 1027.3 477.718 1026.16 474.84 1025.68C473.829 1025.51 472.806 1025.42 471.78 1025.42C466.912 1025.53 462.282 1027.55 458.88 1031.03C455.477 1034.51 453.572 1039.19 453.572 1044.06C453.572 1048.93 455.477 1053.6 458.88 1057.08C462.282 1060.57 466.912 1062.58 471.78 1062.69C472.806 1062.69 473.829 1062.6 474.84 1062.43C477.718 1061.96 480.443 1060.81 482.796 1059.08C485.148 1057.36 487.061 1055.1 488.38 1052.5" stroke="black" stroke-width="3" stroke-linejoin="round"/>
<path d="M477.91 1035.61H520.76" stroke="black" stroke-width="3" stroke-linejoin="round"/>
<path d="M477.91 1052.5H520.34" stroke="black" stroke-width="3" stroke-linejoin="round"/>
<path d="M509.5 1035.61L513.06 1027.5C506.12 1026.5 503.4 1018.3 502.43 1013.87C502.25 1013.04 502.288 1012.18 502.54 1011.37C502.792 1010.56 503.251 1009.82 503.87 1009.24L512.2 1001.36C512.826 1000.77 513.632 1000.4 514.489 1000.33C515.347 1000.25 516.206 1000.46 516.93 1000.92L558.5 1027.78" stroke="black" stroke-width="3" stroke-linejoin="round"/>
<path d="M515.5 1007.13C515.5 1007.13 518.02 1019.06 525.28 1023.35L522.49 1032.61" stroke="black" stroke-width="3" stroke-linecap="round" stroke-linejoin="round"/>
<path d="M565.8 1037.71L759.5 1135.06C759.5 1135.06 759.96 1144.39 766.62 1144.06C773.28 1143.73 766.62 1171.98 766.62 1171.98" stroke="black" stroke-width="3" stroke-linecap="round" stroke-linejoin="round"/>
<path d="M502.39 1013.87C502.39 1013.87 441.24 983.502 416.39 957.282C416.39 957.282 387.95 931.062 397.73 906.612C407.51 882.162 483.95 938.612 483.95 938.612C483.95 938.612 528.84 976.842 551.06 985.282C573.28 993.722 680.39 1037.73 707.95 1057.28C735.51 1076.83 831.95 1119.06 845.73 1131.95C859.51 1144.84 897.28 1164.84 929.28 1162.17C929.28 1162.17 920.39 1176.84 820.84 1160.39C820.84 1160.39 804.1 1141.39 778.02 1139.95" stroke="black" stroke-width="3" stroke-linecap="round" stroke-linejoin="round"/>
<path d="M836.26 1196.25C840.452 1196.25 843.85 1192.67 843.85 1188.25C843.85 1183.83 840.452 1180.25 836.26 1180.25C832.068 1180.25 828.67 1183.83 828.67 1188.25C828.67 1192.67 832.068 1196.25 836.26 1196.25Z" stroke="black" stroke-width="3" stroke-linejoin="round"/>
<path d="M836.04 1207.36C845.595 1207.36 853.34 1198.66 853.34 1187.92C853.34 1177.19 845.595 1168.48 836.04 1168.48C826.485 1168.48 818.74 1177.19 818.74 1187.92C818.74 1198.66 826.485 1207.36 836.04 1207.36Z" stroke="black" stroke-width="3" stroke-linejoin="round"/>
<path d="M830.64 1169.49C828.916 1168.83 827.086 1168.49 825.24 1168.49C815.69 1168.49 807.94 1177.2 807.94 1187.94C807.94 1198.68 815.69 1207.38 825.24 1207.38C827.088 1207.37 828.921 1207.03 830.65 1206.38" stroke="black" stroke-width="3" stroke-linejoin="round"/>
<path d="M754.27 1187.62C752.045 1187.37 750.011 1186.24 748.617 1184.49C747.223 1182.74 746.582 1180.5 746.835 1178.28C747.088 1176.05 748.215 1174.02 749.968 1172.62C751.72 1171.23 753.955 1170.59 756.18 1170.84" stroke="black" stroke-width="3" stroke-linejoin="round"/>
<path d="M750.1 1197.14C745.858 1195.93 742.184 1193.25 739.73 1189.59C737.277 1185.92 736.203 1181.51 736.701 1177.12C737.199 1172.74 739.236 1168.68 742.45 1165.65C745.663 1162.63 749.845 1160.85 754.25 1160.62" stroke="black" stroke-width="3" stroke-linejoin="round"/>
<path d="M766.58 1172.02C765.117 1168.1 762.375 1164.78 758.798 1162.61C755.22 1160.44 751.015 1159.53 746.86 1160.04C742.705 1160.55 738.843 1162.44 735.896 1165.42C732.948 1168.39 731.088 1172.27 730.615 1176.43C730.141 1180.59 731.082 1184.78 733.286 1188.34C735.49 1191.9 738.828 1194.61 742.762 1196.04C746.697 1197.47 750.998 1197.54 754.972 1196.22C758.947 1194.91 762.363 1192.29 764.67 1188.8" stroke="black" stroke-width="3" stroke-linejoin="round"/>
<path d="M756.18 1170.84L810.81 1177.05" stroke="black" stroke-width="3" stroke-linejoin="round"/>
<path d="M754.27 1187.62L807.9 1193.72" stroke="black" stroke-width="3" stroke-linejoin="round"/>
<path d="M792.75 1175C792.75 1175 804.97 1161.18 801.11 1146.12" stroke="black" stroke-width="3" stroke-linecap="round" stroke-linejoin="round"/>
<path d="M784.06 1163.06C784.06 1163.06 791.5 1160.94 789.23 1150.5" stroke="black" stroke-width="3" stroke-linecap="round" stroke-linejoin="round"/>
<path d="M816 1155.84C816 1155.84 806.87 1164.11 814.28 1172.84" stroke="black" stroke-width="3" stroke-linecap="round" stroke-linejoin="round"/>
<path d="M489.5 943.242C489.5 943.242 532.68 931.652 538.9 922.762C545.12 913.872 538.31 906.472 533.27 895.762C528.23 885.052 524.27 877.392 520.79 873.242C517.31 869.092 507.69 834.722 515.44 824.942C523.19 815.162 519.35 808.352 509.27 802.722C499.19 797.092 492.68 771.022 496.53 755.022C500.38 739.022 515.2 731.312 513.12 711.172C511.04 691.032 512.24 679.762 512.24 679.762C512.24 679.762 556.09 686.872 572.38 700.502C588.67 714.132 630.75 725.092 639.64 728.942C648.53 732.792 681.72 740.802 692.09 745.832C702.46 750.862 722.01 757.982 715.79 779.912C709.57 801.842 711.64 882.132 711.64 882.132C711.64 882.132 703.94 960.062 707.49 971.312C711.04 982.562 719.96 1030.57 700.49 1052.5" stroke="black" stroke-width="3" stroke-linecap="round" stroke-linejoin="round"/>
<path d="M393.98 433.282C393.98 433.282 436.98 424.692 457.98 431.502C478.98 438.312 498.28 449.582 501.24 464.982C504.2 480.382 497.39 569.282 504.5 585.872C511.61 602.462 512.21 679.802 512.21 679.802" stroke="black" stroke-width="3" stroke-linecap="round" stroke-linejoin="round"/>
<path d="M384.35 515.062C384.35 515.062 389.24 602.612 398.58 619.952C407.92 637.292 405.84 645.132 405.84 645.132" stroke="black" stroke-width="3" stroke-linecap="round" stroke-linejoin="round"/>
<path d="M501.98 490.172C501.98 490.172 530.13 512.392 556.35 517.062C582.57 521.732 601.46 541.062 612.35 541.732C623.24 542.402 625.72 541.732 625.72 541.732" stroke="black" stroke-width="3" stroke-linecap="round" stroke-linejoin="round"/>
<path d="M445.14 828.412C445.14 828.412 456.14 813.062 468.58 815.732C481.02 818.402 480.8 820.612 491.24 819.062C501.68 817.512 514.12 827.182 514.12 827.182" stroke="black" stroke-width="3" stroke-linecap="round" stroke-linejoin="round"/>
<path d="M712.02 1021.86C712.02 1021.86 749.65 1017.55 768.89 1031.42" stroke="black" stroke-width="3" stroke-linecap="round" stroke-linejoin="round"/>
<path d="M654.13 636.392C654.13 636.392 715.02 647.062 743.02 669.732" stroke="black" stroke-width="3" stroke-linecap="round" stroke-linejoin="round"/>
<path d="M623.5 593.282C623.5 593.282 676.72 598.532 705.22 610.132" stroke="black" stroke-width="3" stroke-linecap="round" stroke-linejoin="round"/>
<path d="M594.8 554.342C594.8 554.342 607.8 567.762 657.95 573.072" stroke="black" stroke-width="3" stroke-linecap="round" stroke-linejoin="round"/>
<path d="M443.58 838.302C443.58 838.302 474.8 852.612 472.8 872.612C470.8 892.612 443.88 905.282 443.88 905.282" stroke="black" stroke-width="3" stroke-linecap="round" stroke-linejoin="round"/>
<path d="M508.31 823.492C508.31 823.492 491.5 842.612 485.24 844.612C478.98 846.612 489.36 882.762 523.75 877.472" stroke="black" stroke-width="3" stroke-linecap="round" stroke-linejoin="round"/>
<path d="M781.09 1045.31C766.71 1046.97 736.59 1074.05 736.59 1074.05" stroke="black" stroke-width="3" stroke-linecap="round" stroke-linejoin="round"/>
<path d="M805.85 1109.11C805.85 1109.11 813.78 1095.21 819.29 1093.43C824.8 1091.65 781.09 1069.25 781.09 1057.28V1045.28" stroke="black" stroke-width="3" stroke-linecap="round" stroke-linejoin="round"/>
<path d="M848.64 1134.52L897.77 1133.39" stroke="black" stroke-width="3" stroke-linecap="round" stroke-linejoin="round"/>
<path d="M629.66 136.622C629.66 136.622 629.24 213.732 658.13 228.392C687.02 243.052 729.13 215.122 736.5 204.542" stroke="black" stroke-width="3" stroke-linecap="round" stroke-linejoin="round"/>
<path d="M438.58 224.392C438.58 224.392 430.72 184.842 453.09 176.842" stroke="black" stroke-width="3" stroke-linecap="round" stroke-linejoin="round"/>
<path d="M529.69 230.172C529.69 230.172 439.61 393.732 418.21 417.282" stroke="black" stroke-width="3" stroke-linecap="round" stroke-linejoin="round"/>
<path d="M626.37 414.612C626.37 414.612 532.37 382.112 527.6 372.092" stroke="black" stroke-width="3" stroke-linecap="round" stroke-linejoin="round"/>
<path d="M523.5 320.842C523.5 320.842 541.73 361.572 559.5 372.092" stroke="black" stroke-width="3" stroke-linecap="round" stroke-linejoin="round"/>
<path d="M649.69 372.092C649.69 372.092 542.96 357.092 535.56 343.802" stroke="black" stroke-width="3" stroke-linecap="round" stroke-linejoin="round"/>
<path d="M589.24 268.842C591.02 270.172 628.35 300.102 752.35 278.242" stroke="black" stroke-width="3" stroke-linecap="round" stroke-linejoin="round"/>
<path d="M725.19 362.942C725.19 362.942 652.34 370.712 629.66 455.502" stroke="black" stroke-width="3" stroke-linecap="round" stroke-linejoin="round"/>
<path d="M535.56 467.492C535.56 467.492 577.69 446.602 618.56 479.942" stroke="black" stroke-width="3" stroke-linecap="round" stroke-linejoin="round"/>
<path d="M570.5 521.072C559.74 502.202 535.58 479.952 535.58 479.952C535.58 479.952 576.82 501.282 589.26 503.062" stroke="black" stroke-width="3" stroke-linecap="round" stroke-linejoin="round"/>
<path d="M454.02 430.492C454.02 430.492 501.24 412.882 523.46 414.652" stroke="black" stroke-width="3" stroke-linecap="round" stroke-linejoin="round"/>
<path d="M489.5 438.172C489.5 438.172 528.38 425.732 555.94 438.172" stroke="black" stroke-width="3" stroke-linecap="round" stroke-linejoin="round"/>
<path d="M509.98 442.912C509.98 442.912 529.09 446.172 534.13 452.102" stroke="black" stroke-width="3" stroke-linecap="round" stroke-linejoin="round"/>
<path d="M884.61 1154.49C884.61 1154.49 905.69 1152.41 898.87 1135.82C892.05 1119.23 875.5 1113.87 875.5 1113.87C875.5 1113.87 843.09 1097.87 843.89 1079.8C844.69 1061.73 821.28 1070.02 821.28 1070.02C821.28 1070.02 818.85 1067.35 819.28 1059.35C819.71 1051.35 789.65 1052.54 789.65 1052.54C789.65 1052.54 779.5 1041.87 769.5 1039.8C759.5 1037.73 771.5 1020.24 801.82 1026.8C801.82 1026.8 827.13 947.392 825.05 930.802C822.97 914.212 833.65 830.362 825.35 817.912C817.05 805.462 823.57 774.062 823.57 774.062C823.57 774.062 831.57 710.362 805.5 689.912C779.43 669.462 672.21 583.212 641.24 560.392C610.27 537.572 634.87 529.872 634.87 529.872C634.87 529.872 640.5 510.322 630.43 496.982C620.36 483.642 658.28 443.982 658.28 443.982L741.28 343.532L806.76 337.612C806.76 337.612 836.39 321.902 840.84 311.242C845.29 300.582 1039.95 360.422 1048.54 361.312C1057.13 362.202 1101.54 390.642 1112.25 395.092C1122.96 399.542 1188.1 406.352 1200.54 384.422C1200.54 384.422 1199.36 377.012 1191.95 378.792C1191.95 378.792 1194.02 364.872 1182.76 364.572C1182.76 364.572 1185.43 353.572 1172.69 352.132C1172.69 352.132 1161.43 349.462 1155.21 343.532C1148.99 337.602 1118.47 352.422 1067.21 322.202C1015.95 291.982 905.43 269.462 905.43 269.462C905.43 269.462 819.21 247.242 805.28 225.012C805.28 225.012 748.69 199.242 736.54 204.572C736.54 204.572 755.54 177.012 758.47 175.242C761.4 173.472 778.91 190.942 786.91 189.762C794.91 188.582 807.36 181.462 795.21 163.092C783.06 144.722 788.69 121.902 793.73 110.942C798.77 99.9817 804.1 72.4217 783.65 57.0117C763.2 41.6017 740.65 26.7917 740.65 26.7917C740.65 26.7917 705.39 9.87168 675.5 33.8717C645.61 57.8717 651.8 69.7317 651.8 69.7317C651.8 69.7317 640.5 75.9517 638.43 84.2417C636.36 92.5317 626.58 117.132 631.32 133.132C631.32 133.132 628.32 148.242 599.91 142.912C571.5 137.582 535.61 135.212 527.91 135.502C520.4 135.792 434.58 147.502 414.09 159.882C413.256 160.412 412.379 160.874 411.47 161.262C403.71 164.432 386.89 177.672 377.33 185.472C373.734 188.403 370.425 191.671 367.45 195.232C350.86 215.182 309.11 227.712 309.11 227.712C309.11 227.712 198.59 250.222 147.33 280.492C96.07 310.762 65.56 295.892 59.33 301.822C53.1 307.752 41.85 310.412 41.85 310.412C29.11 311.892 31.78 322.862 31.78 322.862C20.52 323.152 22.59 337.082 22.59 337.082C15.19 335.302 14 342.712 14 342.712C26.44 364.632 91.63 357.822 102.3 353.382C112.97 348.942 157.41 320.492 166 319.602C174.59 318.712 408.21 266.892 412.65 277.602" stroke="black" stroke-width="3" stroke-linecap="round" stroke-linejoin="round"/>
<path d="M373.01 189.282C373.01 189.282 430.43 192.572 412.65 277.522C410.18 286.402 404.43 310.202 415.29 322.902C417.551 325.407 420.473 327.224 423.72 328.142C439.54 333.142 398.13 406.022 398.13 406.022C398.13 406.022 399.61 423.502 393.98 433.282C388.35 443.062 357.84 470.282 354.28 476.542C350.72 482.802 327.91 534.612 336.8 562.492C345.69 590.372 336.8 615.232 405.8 645.152C405.8 645.152 405.8 680.152 419.72 697.302L417.05 745.892C417.05 745.892 418.24 777.602 425.65 790.342C433.06 803.082 444.91 811.972 445.2 822.632C445.49 833.292 443.13 843.632 438.68 847.822C434.23 852.012 438.68 865.002 438.68 865.002C438.68 865.002 428.91 875.082 439.28 879.822C449.65 884.562 442.39 912.382 442.39 912.382" stroke="black" stroke-width="3" stroke-linecap="round" stroke-linejoin="round"/>
<path d="M805.24 224.982C805.24 224.982 855.91 269.982 840.8 311.212" stroke="black" stroke-width="3" stroke-linecap="round" stroke-linejoin="round"/>
<path d="M415.29 322.902C415.29 322.902 393.5 322.352 387.66 277.492" stroke="black" stroke-width="3" stroke-linecap="round" stroke-linejoin="round"/>
<path d="M651.76 69.7317C651.76 69.7317 673.39 76.5417 681.69 91.6517C689.99 106.762 703.02 136.392 721.39 148.542C739.76 160.692 758.39 175.212 758.39 175.212" stroke="black" stroke-width="3" stroke-linecap="round" stroke-linejoin="round"/>
<path d="M672.06 80.6516C672.06 80.6516 758 146.122 789.92 151.782" stroke="black" stroke-width="3" stroke-linecap="round" stroke-linejoin="round"/>
</svg>
