<svg width="47" height="46" viewBox="0 0 47 46" fill="none" xmlns="http://www.w3.org/2000/svg">
<path d="M23.6911 45.3582C36.2164 45.3582 46.3702 35.2045 46.3702 22.6791C46.3702 10.1538 36.2164 0 23.6911 0C11.1658 0 1.01196 10.1538 1.01196 22.6791C1.01196 35.2045 11.1658 45.3582 23.6911 45.3582Z" fill="#E6E6E6"/>
<path d="M22.4305 44.2406C34.3386 44.2406 43.9921 34.5872 43.9921 22.6791C43.9921 10.771 34.3386 1.11755 22.4305 1.11755C10.5224 1.11755 0.869019 10.771 0.869019 22.6791C0.869019 34.5872 10.5224 44.2406 22.4305 44.2406Z" fill="white"/>
<path d="M22.4305 1.98909C26.5229 1.98889 30.5235 3.20226 33.9263 5.47576C37.3291 7.74925 39.9814 10.9808 41.5476 14.7616C43.1138 18.5425 43.5236 22.7029 42.7253 26.7167C41.927 30.7305 39.9564 34.4174 37.0626 37.3112C35.1412 39.2327 32.8601 40.7568 30.3496 41.7967C27.8391 42.8366 25.1484 43.3718 22.4311 43.3718C19.7138 43.3718 17.0231 42.8366 14.5126 41.7967C12.0022 40.7568 9.72108 39.2327 7.79965 37.3112C5.87822 35.3898 4.35405 33.1087 3.31418 30.5983C2.27431 28.0878 1.73909 25.3971 1.73909 22.6798C1.73909 19.9625 2.27431 17.2717 3.31418 14.7613C4.35405 12.2508 5.87822 9.96973 7.79965 8.0483C9.71662 6.12112 11.9968 4.59329 14.5082 3.55323C17.0196 2.51317 19.7123 1.98153 22.4305 1.98909ZM22.4305 0.248657C17.9939 0.248903 13.6571 1.56474 9.96831 4.02978C6.27956 6.49481 3.40463 9.99833 1.70705 14.0973C0.00947075 18.1962 -0.434502 22.7065 0.431272 27.0578C1.29705 31.4091 3.43368 35.4059 6.57099 38.5429C9.7083 41.6799 13.7054 43.8161 18.0567 44.6813C22.4081 45.5466 26.9184 45.1022 31.0171 43.4041C35.1159 41.7061 38.6191 38.8308 41.0837 35.1418C43.5484 31.4527 44.8637 27.1157 44.8635 22.6791C44.8633 19.7334 44.2829 16.8165 43.1555 14.095C42.028 11.3735 40.3756 8.90074 38.2925 6.81788C36.2094 4.73502 33.7365 3.08284 31.0148 1.9557C28.2932 0.828546 25.3763 0.248494 22.4305 0.248657Z" fill="black"/>
<path d="M10.0311 10.1915L22.4081 22.6792L27.3808 15.9387" stroke="#DDDDDD" stroke-width="1.45067" stroke-linecap="round" stroke-linejoin="round"/>
<path d="M10.5359 10.0387L22.9129 22.5251L27.8855 15.7846" stroke="black" stroke-width="1.45067" stroke-linecap="round" stroke-linejoin="round"/>
</svg>
