<svg width="35" height="25" viewBox="0 0 35 25" fill="none" xmlns="http://www.w3.org/2000/svg">
<path d="M34.3942 12.3896C34.3995 11.2562 34.3569 10.1015 34.2682 8.96989C34.2645 8.90179 34.2551 8.79078 34.2467 8.69801C34.2425 8.65105 34.2385 8.60824 34.2355 8.57717L34.232 8.5403L34.231 8.53022L34.2309 8.52901L34.2308 8.52759L34.2307 8.52691L34.2307 8.52673L34.2304 8.52298C34.1174 6.99796 33.989 5.26576 33.3755 3.82486C32.7572 2.37306 31.6457 1.21534 29.5785 0.848864C28.8404 0.716866 28.0318 0.591079 27.2126 0.567685C23.6571 0.450085 20.5089 0.391272 17.5873 0.391272C13.3218 0.391272 9.46355 0.516028 5.79635 0.772736C4.54376 0.855099 3.49218 1.28101 2.70118 2.00502C1.91023 2.72899 1.38639 3.74501 1.17865 4.99627L1.17862 4.99645L5.80489 23.9212L5.79791 24.0209C5.79794 24.0209 5.79796 24.0209 5.79799 24.0209C9.46523 24.2777 13.3235 24.4024 17.589 24.4024H17.5894C18.0337 24.4024 18.4806 24.4024 18.9401 24.3953C19.4196 24.3949 19.8137 23.9965 19.8137 23.5097C19.8137 23.022 19.4186 22.624 18.9323 22.624C18.7059 22.624 18.4809 22.6258 18.2572 22.6276L18.2553 22.6276C18.0321 22.6294 17.8103 22.6312 17.589 22.6312C13.3629 22.6312 9.53936 22.5065 5.91453 22.2573L5.91431 22.2573C5.04769 22.1996 4.37036 21.9375 3.87447 21.483C3.37846 21.0284 3.05411 20.3723 2.91055 19.5082C2.53046 17.1941 2.33421 14.7982 2.33421 12.3968C2.33421 9.99548 2.53047 7.59947 2.90881 5.28536C3.05237 4.41691 3.37847 3.75863 3.87529 3.30406C4.37198 2.84963 5.04918 2.58974 5.91207 2.53645L5.91276 2.5364C9.53936 2.28717 13.3558 2.16253 17.5873 2.16253C20.4921 2.16253 23.6222 2.22129 27.1639 2.33172L27.164 2.33173C27.8723 2.35288 28.5966 2.46226 29.2736 2.58666L29.2744 2.5868C29.9314 2.70213 30.4395 2.92057 30.8379 3.23323C31.2361 3.54583 31.5302 3.95695 31.7527 4.46614C32.2001 5.48998 32.3531 6.89618 32.4844 8.6614L32.4845 8.66178L32.4846 8.66442L32.4854 8.67451L32.488 8.71142C32.4902 8.7425 32.4934 8.78534 32.4971 8.83234C32.5043 8.92453 32.5136 9.03506 32.5218 9.1036C32.6013 10.1945 32.6454 11.2991 32.6383 12.3962L32.6383 12.3975C32.6454 13.4954 32.6012 14.6008 32.5216 15.6924L32.5215 15.6943C32.5181 15.7582 32.5089 15.8664 32.5005 15.9602C32.4991 15.9753 32.4978 15.99 32.4965 16.004C32.4938 16.0331 32.4914 16.0592 32.4894 16.0801L32.4859 16.1166L32.485 16.1266L32.4847 16.1291L32.4847 16.1298L32.4846 16.1299L32.4846 16.13L32.5842 16.1397L32.4846 16.13L32.4844 16.1323C32.3531 17.8975 32.2001 19.3037 31.7527 20.3276C31.5302 20.8367 31.2361 21.2479 30.8379 21.5605C30.4395 21.8731 29.9314 22.0916 29.2744 22.2069L29.2736 22.207C28.5971 22.3313 27.8734 22.4407 27.1655 22.4619H27.1156V22.4619L27.1122 22.462C26.6342 22.4781 26.2643 22.8685 26.2643 23.3404C26.2643 23.8275 26.6588 24.2261 27.1386 24.2261H27.2113V24.2261L27.2139 24.226C28.0316 24.2044 28.8334 24.0786 29.5804 23.9448M34.3942 12.3896C34.4013 13.5379 34.3569 14.6913 34.2699 15.8249L34.2696 15.8287L34.2695 15.8287C34.2617 15.8962 34.2526 16.0045 34.2453 16.0973C34.2416 16.1434 34.2385 16.1852 34.2362 16.2154L34.2336 16.2513L34.2329 16.261L34.2327 16.2635L34.2327 16.2641L34.2327 16.2643L34.2327 16.2643L34.2327 16.2646L34.2317 16.2777C34.1197 17.801 33.9926 19.5301 33.3806 20.9688C32.763 22.4207 31.651 23.5783 29.5804 23.9448M34.3942 12.3896C34.3942 12.3898 34.3942 12.39 34.3942 12.3902L34.2942 12.3897L34.3942 12.3891C34.3942 12.3893 34.3942 12.3894 34.3942 12.3896ZM29.5804 23.9448C29.5803 23.9448 29.5803 23.9448 29.5802 23.9448L29.5628 23.8464L29.5804 23.9448C29.5804 23.9448 29.5804 23.9448 29.5804 23.9448ZM29.2917 22.3054C28.613 22.4301 27.8829 22.5405 27.167 22.5619L29.2917 22.3054Z" fill="white" stroke="white" stroke-width="0.2"/>
<path d="M22.1204 11.1504L22.1209 11.1507C22.5677 11.4106 22.8424 11.8765 22.8351 12.4136C22.8348 12.9342 22.5601 13.3994 22.1138 13.6591L22.1137 13.6591C20.9157 14.3557 19.7195 15.047 18.5215 15.7364L18.5215 15.7364L18.4715 15.6498L18.5214 15.7365L22.1204 11.1504ZM22.1204 11.1504C20.9954 10.5039 19.8794 9.8592 18.7704 9.21275C18.7703 9.21266 18.7701 9.21257 18.77 9.21248L18.5742 9.09546L18.5742 9.09545L18.5729 9.09467L18.5229 9.18129L18.5729 9.09466L18.5728 9.09461L18.5725 9.09444L18.5713 9.09377L18.5667 9.09108L18.5484 9.08055L18.4784 9.04017L18.2224 8.89248L17.3907 8.41239C16.749 8.04183 16.0062 7.61256 15.6014 7.37748L15.6012 7.37734C15.3817 7.25074 15.1376 7.18759 14.8867 7.18759C14.6337 7.18759 14.3898 7.25891 14.1722 7.38446L14.1722 7.38446L14.1718 7.38465C13.7244 7.64496 13.4576 8.1109 13.4576 8.63082V14.7965C13.4576 15.2841 13.8528 15.6821 14.3391 15.6821C14.8254 15.6821 15.2206 15.2841 15.2206 14.7965V9.19706M22.1204 11.1504L15.2206 9.19706M15.2206 9.19706L15.2306 9.20304L15.2306 9.20305L15.2319 9.20381C15.6075 9.42019 16.2099 9.76886 16.7185 10.0635L17.3708 10.4415L17.5689 10.5564L17.6228 10.5877L17.6369 10.5958L17.6404 10.5979L17.6413 10.5984L17.6416 10.5985L17.6416 10.5985L17.6918 10.5121L15.2206 9.19706ZM15.6858 15.3439L15.6854 15.3442L15.7355 15.4307L15.6862 15.3437C15.6861 15.3437 15.6859 15.3438 15.6858 15.3439ZM17.4733 14.3091L17.5234 14.3955L17.4734 14.3091C17.4734 14.3091 17.4733 14.3091 17.4733 14.3091ZM20.7686 12.4058L20.8693 12.4633L20.9701 12.4058L20.8693 12.3482L20.7686 12.4058ZM21.3777 22.6543C20.899 22.6543 20.5033 23.0446 20.5033 23.5328C20.5033 24.0205 20.8914 24.4113 21.3777 24.4113C21.8563 24.4113 22.2521 24.0211 22.2521 23.5328C22.2521 23.0446 21.8563 22.6543 21.3777 22.6543Z" fill="white" stroke="white" stroke-width="0.2"/>
</svg>
